<svg xmlns="http://www.w3.org/2000/svg" xmlns:xlink="http://www.w3.org/1999/xlink" contentStyleType="text/css" data-diagram-type="SEQUENCE" height="2459px" preserveAspectRatio="none" style="width:820px;height:2459px;background:#FFFFFF;" version="1.1" viewBox="0 0 820 2459" width="820px" zoomAndPan="magnify"><title>Firmware Update / Streaming Boot Sequence</title><defs/><g><text fill="#000000" font-family="sans-serif" font-size="14" font-weight="bold" lengthAdjust="spacing" textLength="356.583" x="233.5713" y="27.9951">Firmware Update / Streaming Boot Sequence</text><g><title>PLDM Stack - T5</title><rect fill="#FFFFFF" height="2160.0859" style="stroke:#181818;stroke-width:1;" width="10" x="268.4951" y="209.125"/></g><rect fill="#FFFFFF" fill-opacity="0.00000" height="129.0781" style="stroke:#000000;stroke-width:1.5;" width="327.3564" x="20" y="531.7188"/><rect fill="#FFFFFF" fill-opacity="0.00000" height="1437.2188" style="stroke:#000000;stroke-width:1.5;" width="804.3955" x="10" y="674.7969"/><rect fill="#FFFFFF" fill-opacity="0.00000" height="208.7344" style="stroke:#000000;stroke-width:1.5;" width="290.4272" x="398.1997" y="787.4609"/><rect fill="#FFFFFF" fill-opacity="0.00000" height="74.3984" style="stroke:#000000;stroke-width:1.5;" width="270.4272" x="408.1997" y="811.5938"/><rect fill="#FFFFFF" fill-opacity="0.00000" height="74.3984" style="stroke:#000000;stroke-width:1.5;" width="248.0137" x="408.1997" y="914.7969"/><rect fill="#FFFFFF" fill-opacity="0.00000" height="495.6875" style="stroke:#000000;stroke-width:1.5;" width="676.418" x="20" y="1083.5938"/><rect fill="#FFFFFF" fill-opacity="0.00000" height="337.4141" style="stroke:#000000;stroke-width:1.5;" width="288.2183" x="398.1997" y="1205.7344"/><rect fill="#FFFFFF" fill-opacity="0.00000" height="203.4063" style="stroke:#000000;stroke-width:1.5;" width="268.2183" x="408.1997" y="1229.8672"/><rect fill="#FFFFFF" fill-opacity="0.00000" height="74.0703" style="stroke:#000000;stroke-width:1.5;" width="253.7964" x="408.1997" y="1462.0781"/><rect fill="#FFFFFF" fill-opacity="0.00000" height="146.4688" style="stroke:#000000;stroke-width:1.5;" width="270.8271" x="408.1997" y="1651.5469"/><rect fill="#FFFFFF" fill-opacity="0.00000" height="147.3359" style="stroke:#000000;stroke-width:1.5;" width="406.1958" x="398.1997" y="1899.4141"/><rect fill="#FFFFFF" fill-opacity="0.00000" height="116.2031" style="stroke:#000000;stroke-width:1.5;" width="386.1958" x="408.1997" y="1923.5469"/><rect fill="#FFFFFF" fill-opacity="0.00000" height="74.3984" style="stroke:#000000;stroke-width:1.5;" width="244.9668" x="408.1997" y="2184.2813"/><g><title>Update Agent</title><rect fill="#FFFFFF" fill-opacity="0.00000" height="2259.6172" width="8" x="81.2959" y="118.5938"/><line style="stroke:#181818;stroke-width:0.5;stroke-dasharray:5.0,5.0;" x1="85" x2="85" y1="118.5938" y2="2378.2109"/></g><g><title>PLDM Stack - T5</title><rect fill="#FFFFFF" fill-opacity="0.00000" height="2259.6172" width="8" x="269.4951" y="118.5938"/><line style="stroke:#181818;stroke-width:0.5;stroke-dasharray:5.0,5.0;" x1="272.6338" x2="272.6338" y1="118.5938" y2="2378.2109"/></g><g><title>Firmware Update API</title><rect fill="#FFFFFF" fill-opacity="0.00000" height="2259.6172" width="8" x="494.9424" y="118.5938"/><line style="stroke:#181818;stroke-width:0.5;stroke-dasharray:5.0,5.0;" x1="498.1997" x2="498.1997" y1="118.5938" y2="2378.2109"/></g><g><title>Initiator</title><rect fill="#FFFFFF" fill-opacity="0.00000" height="2259.6172" width="8" x="785.3955" y="118.5938"/><line style="stroke:#181818;stroke-width:0.5;stroke-dasharray:5.0,5.0;" x1="789.0654" x2="789.0654" y1="118.5938" y2="2378.2109"/></g><rect fill="#E2E2F0" height="30.2969" rx="2.5" ry="2.5" style="stroke:#181818;stroke-width:0.5;" width="110.5918" x="30" y="87.2969"/><text fill="#000000" font-family="sans-serif" font-size="14" lengthAdjust="spacing" textLength="96.5918" x="37" y="107.292">Update Agent</text><rect fill="#E2E2F0" height="30.2969" rx="2.5" ry="2.5" style="stroke:#181818;stroke-width:0.5;" width="110.5918" x="30" y="2377.2109"/><text fill="#000000" font-family="sans-serif" font-size="14" lengthAdjust="spacing" textLength="96.5918" x="37" y="2397.2061">Update Agent</text><rect fill="#E2E2F0" height="30.2969" rx="2.5" ry="2.5" style="stroke:#181818;stroke-width:0.5;" width="127.7227" x="209.6338" y="87.2969"/><text fill="#000000" font-family="sans-serif" font-size="14" lengthAdjust="spacing" textLength="113.7227" x="216.6338" y="107.292">PLDM Stack - T5</text><rect fill="#E2E2F0" height="30.2969" rx="2.5" ry="2.5" style="stroke:#181818;stroke-width:0.5;" width="127.7227" x="209.6338" y="2377.2109"/><text fill="#000000" font-family="sans-serif" font-size="14" lengthAdjust="spacing" textLength="113.7227" x="216.6338" y="2397.2061">PLDM Stack - T5</text><rect fill="#E2E2F0" height="30.2969" rx="2.5" ry="2.5" style="stroke:#181818;stroke-width:0.5;" width="161.4854" x="418.1997" y="87.2969"/><text fill="#000000" font-family="sans-serif" font-size="14" lengthAdjust="spacing" textLength="147.4854" x="425.1997" y="107.292">Firmware Update API</text><rect fill="#E2E2F0" height="30.2969" rx="2.5" ry="2.5" style="stroke:#181818;stroke-width:0.5;" width="161.4854" x="418.1997" y="2377.2109"/><text fill="#000000" font-family="sans-serif" font-size="14" lengthAdjust="spacing" textLength="147.4854" x="425.1997" y="2397.2061">Firmware Update API</text><text fill="#000000" font-family="sans-serif" font-size="14" lengthAdjust="spacing" textLength="54.6602" x="759.0654" y="115.292">Initiator</text><ellipse cx="789.3955" cy="50.7969" fill="#E2E2F0" rx="8" ry="8" style="stroke:#181818;stroke-width:0.5;"/><path d="M789.3955,58.7969 L789.3955,85.7969 M776.3955,66.7969 L802.3955,66.7969 M789.3955,85.7969 L776.3955,100.7969 M789.3955,85.7969 L802.3955,100.7969 " fill="#FFFFFF" fill-opacity="0.00000" style="stroke:#181818;stroke-width:0.5;"/><text fill="#000000" font-family="sans-serif" font-size="14" lengthAdjust="spacing" textLength="54.6602" x="759.0654" y="2390.2061">Initiator</text><ellipse cx="789.3955" cy="2402.0078" fill="#E2E2F0" rx="8" ry="8" style="stroke:#181818;stroke-width:0.5;"/><path d="M789.3955,2410.0078 L789.3955,2437.0078 M776.3955,2418.0078 L802.3955,2418.0078 M789.3955,2437.0078 L776.3955,2452.0078 M789.3955,2437.0078 L802.3955,2452.0078 " fill="#FFFFFF" fill-opacity="0.00000" style="stroke:#181818;stroke-width:0.5;"/><g><title>PLDM Stack - T5</title><rect fill="#FFFFFF" height="2160.0859" style="stroke:#181818;stroke-width:1;" width="10" x="268.4951" y="209.125"/></g><polygon fill="#181818" points="509.9424,160.8594,499.9424,164.8594,509.9424,168.8594,505.9424,164.8594" style="stroke:#181818;stroke-width:1;"/><line style="stroke:#181818;stroke-width:1;" x1="503.9424" x2="788.3955" y1="164.8594" y2="164.8594"/><text fill="#000000" font-family="sans-serif" font-size="13" lengthAdjust="spacing" textLength="96.9287" x="515.9424" y="144.6606">Start Firmware</text><text fill="#000000" font-family="sans-serif" font-size="13" lengthAdjust="spacing" textLength="99.2583" x="515.9424" y="159.7935">Update Service</text><polygon fill="#181818" points="289.4951,205.125,279.4951,209.125,289.4951,213.125,285.4951,209.125" style="stroke:#181818;stroke-width:1;"/><line style="stroke:#181818;stroke-width:1;" x1="283.4951" x2="497.9424" y1="209.125" y2="209.125"/><text fill="#000000" font-family="sans-serif" font-size="13" lengthAdjust="spacing" textLength="96.9287" x="295.4951" y="188.9263">Start Firmware</text><text fill="#000000" font-family="sans-serif" font-size="13" lengthAdjust="spacing" textLength="99.2583" x="295.4951" y="204.0591">Update Service</text><polygon fill="#181818" points="256.4951,234.2578,266.4951,238.2578,256.4951,242.2578,260.4951,238.2578" style="stroke:#181818;stroke-width:1;"/><line style="stroke:#181818;stroke-width:1;" x1="85.2959" x2="262.4951" y1="238.2578" y2="238.2578"/><text fill="#000000" font-family="sans-serif" font-size="13" lengthAdjust="spacing" textLength="149.3032" x="92.2959" y="233.1919">QueryDeviceIdentifiers</text><polygon fill="#181818" points="96.2959,263.3906,86.2959,267.3906,96.2959,271.3906,92.2959,267.3906" style="stroke:#181818;stroke-width:1;"/><line style="stroke:#181818;stroke-width:1;" x1="90.2959" x2="267.4951" y1="267.3906" y2="267.3906"/><text fill="#000000" font-family="sans-serif" font-size="13" lengthAdjust="spacing" textLength="109.7954" x="102.2959" y="262.3247">DeviceIdentifiers</text><polygon fill="#181818" points="256.4951,292.5234,266.4951,296.5234,256.4951,300.5234,260.4951,296.5234" style="stroke:#181818;stroke-width:1;"/><line style="stroke:#181818;stroke-width:1;" x1="85.2959" x2="262.4951" y1="296.5234" y2="296.5234"/><text fill="#000000" font-family="sans-serif" font-size="13" lengthAdjust="spacing" textLength="159.1992" x="92.2959" y="291.4575">GetFirmwareParameters</text><polygon fill="#181818" points="96.2959,321.6563,86.2959,325.6563,96.2959,329.6563,92.2959,325.6563" style="stroke:#181818;stroke-width:1;"/><line style="stroke:#181818;stroke-width:1;" x1="90.2959" x2="267.4951" y1="325.6563" y2="325.6563"/><text fill="#000000" font-family="sans-serif" font-size="13" lengthAdjust="spacing" textLength="136.0303" x="102.2959" y="320.5903">FirmwareParameters</text><polygon fill="#181818" points="256.4951,350.7891,266.4951,354.7891,256.4951,358.7891,260.4951,354.7891" style="stroke:#181818;stroke-width:1;"/><line style="stroke:#181818;stroke-width:1;" x1="85.2959" x2="262.4951" y1="354.7891" y2="354.7891"/><text fill="#000000" font-family="sans-serif" font-size="13" lengthAdjust="spacing" textLength="100.4707" x="92.2959" y="349.7231">RequestUpdate</text><polygon fill="#181818" points="486.9424,395.0547,496.9424,399.0547,486.9424,403.0547,490.9424,399.0547" style="stroke:#181818;stroke-width:1;"/><line style="stroke:#181818;stroke-width:1;" x1="278.4951" x2="492.9424" y1="399.0547" y2="399.0547"/><text fill="#000000" font-family="sans-serif" font-size="13" lengthAdjust="spacing" textLength="110.8174" x="285.4951" y="378.856">Update Available</text><text fill="#000000" font-family="sans-serif" font-size="13" lengthAdjust="spacing" textLength="74.5913" x="285.4951" y="393.9888">Notification</text><polygon fill="#181818" points="777.3955,439.3203,787.3955,443.3203,777.3955,447.3203,781.3955,443.3203" style="stroke:#181818;stroke-width:1;"/><line style="stroke:#181818;stroke-width:1;" x1="498.9424" x2="783.3955" y1="443.3203" y2="443.3203"/><text fill="#000000" font-family="sans-serif" font-size="13" lengthAdjust="spacing" textLength="110.8174" x="505.9424" y="423.1216">Update Available</text><text fill="#000000" font-family="sans-serif" font-size="13" lengthAdjust="spacing" textLength="74.5913" x="505.9424" y="438.2544">Notification</text><polygon fill="#181818" points="289.4951,468.4531,279.4951,472.4531,289.4951,476.4531,285.4951,472.4531" style="stroke:#181818;stroke-width:1;"/><line style="stroke:#181818;stroke-width:1;" x1="283.4951" x2="497.9424" y1="472.4531" y2="472.4531"/><text fill="#000000" font-family="sans-serif" font-size="13" lengthAdjust="spacing" textLength="17.7607" x="295.4951" y="467.3872">Ok</text><polygon fill="#181818" points="96.2959,512.7188,86.2959,516.7188,96.2959,520.7188,92.2959,516.7188" style="stroke:#181818;stroke-width:1;"/><line style="stroke:#181818;stroke-width:1;" x1="90.2959" x2="267.4951" y1="516.7188" y2="516.7188"/><text fill="#000000" font-family="sans-serif" font-size="13" lengthAdjust="spacing" textLength="100.4707" x="102.2959" y="496.52">RequestUpdate</text><text fill="#000000" font-family="sans-serif" font-size="13" lengthAdjust="spacing" textLength="63.0195" x="102.2959" y="511.6528">Response</text><path d="M20,531.7188 L96.624,531.7188 L96.624,538.8516 L86.624,548.8516 L20,548.8516 L20,531.7188 " fill="#EEEEEE" style="stroke:#000000;stroke-width:1.5;"/><rect fill="#FFFFFF" fill-opacity="0.00000" height="129.0781" style="stroke:#000000;stroke-width:1.5;" width="327.3564" x="20" y="531.7188"/><text fill="#000000" font-family="sans-serif" font-size="13" font-weight="bold" lengthAdjust="spacing" textLength="31.624" x="35" y="544.7856">loop</text><text fill="#000000" font-family="sans-serif" font-size="11" font-weight="bold" lengthAdjust="spacing" textLength="52.2822" x="111.624" y="543.9292">[until all</text><text fill="#000000" font-family="sans-serif" font-size="11" font-weight="bold" lengthAdjust="spacing" textLength="69.3516" x="111.624" y="556.7339">component</text><text fill="#000000" font-family="sans-serif" font-size="11" font-weight="bold" lengthAdjust="spacing" textLength="76.5273" x="111.624" y="569.5386">info passed]</text><polygon fill="#181818" points="256.4951,604.5313,266.4951,608.5313,256.4951,612.5313,260.4951,608.5313" style="stroke:#181818;stroke-width:1;"/><line style="stroke:#181818;stroke-width:1;" x1="85.2959" x2="262.4951" y1="608.5313" y2="608.5313"/><text fill="#000000" font-family="sans-serif" font-size="13" lengthAdjust="spacing" textLength="104.8252" x="92.2959" y="588.3325">PassComponent</text><text fill="#000000" font-family="sans-serif" font-size="13" lengthAdjust="spacing" textLength="83.6875" x="92.2959" y="603.4653">(component)</text><polygon fill="#181818" points="96.2959,648.7969,86.2959,652.7969,96.2959,656.7969,92.2959,652.7969" style="stroke:#181818;stroke-width:1;"/><line style="stroke:#181818;stroke-width:1;" x1="90.2959" x2="267.4951" y1="652.7969" y2="652.7969"/><text fill="#000000" font-family="sans-serif" font-size="13" lengthAdjust="spacing" textLength="104.8252" x="102.2959" y="632.5981">PassComponent</text><text fill="#000000" font-family="sans-serif" font-size="13" lengthAdjust="spacing" textLength="63.0195" x="102.2959" y="647.731">Response</text><path d="M10,674.7969 L86.624,674.7969 L86.624,681.9297 L76.624,691.9297 L10,691.9297 L10,674.7969 " fill="#EEEEEE" style="stroke:#000000;stroke-width:1.5;"/><rect fill="#FFFFFF" fill-opacity="0.00000" height="1437.2188" style="stroke:#000000;stroke-width:1.5;" width="804.3955" x="10" y="674.7969"/><text fill="#000000" font-family="sans-serif" font-size="13" font-weight="bold" lengthAdjust="spacing" textLength="31.624" x="25" y="687.8638">loop</text><text fill="#000000" font-family="sans-serif" font-size="11" font-weight="bold" lengthAdjust="spacing" textLength="139.5195" x="101.624" y="687.0073">[for every component]</text><polygon fill="#181818" points="256.4951,724.1953,266.4951,728.1953,256.4951,732.1953,260.4951,728.1953" style="stroke:#181818;stroke-width:1;"/><line style="stroke:#181818;stroke-width:1;" x1="85.2959" x2="262.4951" y1="728.1953" y2="728.1953"/><text fill="#000000" font-family="sans-serif" font-size="13" lengthAdjust="spacing" textLength="122.5542" x="92.2959" y="707.9966">UpdateComponent</text><text fill="#000000" font-family="sans-serif" font-size="13" lengthAdjust="spacing" textLength="83.6875" x="92.2959" y="723.1294">(component)</text><polygon fill="#181818" points="486.9424,768.4609,496.9424,772.4609,486.9424,776.4609,490.9424,772.4609" style="stroke:#181818;stroke-width:1;"/><line style="stroke:#181818;stroke-width:1;" x1="278.4951" x2="492.9424" y1="772.4609" y2="772.4609"/><text fill="#000000" font-family="sans-serif" font-size="13" lengthAdjust="spacing" textLength="122.5542" x="285.4951" y="752.2622">UpdateComponent</text><text fill="#000000" font-family="sans-serif" font-size="13" lengthAdjust="spacing" textLength="74.5913" x="285.4951" y="767.395">Notification</text><path d="M398.1997,787.4609 L462.6426,787.4609 L462.6426,794.5938 L452.6426,804.5938 L398.1997,804.5938 L398.1997,787.4609 " fill="#EEEEEE" style="stroke:#000000;stroke-width:1.5;"/><rect fill="#FFFFFF" fill-opacity="0.00000" height="208.7344" style="stroke:#000000;stroke-width:1.5;" width="290.4272" x="398.1997" y="787.4609"/><text fill="#000000" font-family="sans-serif" font-size="13" font-weight="bold" lengthAdjust="spacing" textLength="19.4429" x="413.1997" y="800.5278">alt</text><text fill="#000000" font-family="sans-serif" font-size="11" font-weight="bold" lengthAdjust="spacing" textLength="117.3477" x="477.6426" y="799.6714">[Firmware Update]</text><path d="M408.1997,811.5938 L472.6426,811.5938 L472.6426,818.7266 L462.6426,828.7266 L408.1997,828.7266 L408.1997,811.5938 " fill="#EEEEEE" style="stroke:#000000;stroke-width:1.5;"/><rect fill="#FFFFFF" fill-opacity="0.00000" height="74.3984" style="stroke:#000000;stroke-width:1.5;" width="270.4272" x="408.1997" y="811.5938"/><text fill="#000000" font-family="sans-serif" font-size="13" font-weight="bold" lengthAdjust="spacing" textLength="19.4429" x="423.1997" y="824.6606">alt</text><text fill="#000000" font-family="sans-serif" font-size="11" font-weight="bold" lengthAdjust="spacing" textLength="126.1348" x="487.6426" y="823.8042">[MCU or SOC Image]</text><line style="stroke:#181818;stroke-width:1;" x1="498.9424" x2="540.9424" y1="864.9922" y2="864.9922"/><line style="stroke:#181818;stroke-width:1;" x1="540.9424" x2="540.9424" y1="864.9922" y2="877.9922"/><line style="stroke:#181818;stroke-width:1;" x1="499.9424" x2="540.9424" y1="877.9922" y2="877.9922"/><polygon fill="#181818" points="509.9424,873.9922,499.9424,877.9922,509.9424,881.9922,505.9424,877.9922" style="stroke:#181818;stroke-width:1;"/><text fill="#000000" font-family="sans-serif" font-size="13" lengthAdjust="spacing" textLength="160.6846" x="505.9424" y="844.7935">GET_STAGING_ADDRESS</text><text fill="#000000" font-family="sans-serif" font-size="13" lengthAdjust="spacing" textLength="119.3232" x="505.9424" y="859.9263">Mailbox command</text><line style="stroke:#000000;stroke-width:1;stroke-dasharray:2.0,2.0;" x1="398.1997" x2="688.627" y1="893.9922" y2="893.9922"/><text fill="#000000" font-family="sans-serif" font-size="11" font-weight="bold" lengthAdjust="spacing" textLength="107.0674" x="403.1997" y="904.2026">[Streaming Boot]</text><path d="M408.1997,914.7969 L472.6426,914.7969 L472.6426,921.9297 L462.6426,931.9297 L408.1997,931.9297 L408.1997,914.7969 " fill="#EEEEEE" style="stroke:#000000;stroke-width:1.5;"/><rect fill="#FFFFFF" fill-opacity="0.00000" height="74.3984" style="stroke:#000000;stroke-width:1.5;" width="248.0137" x="408.1997" y="914.7969"/><text fill="#000000" font-family="sans-serif" font-size="13" font-weight="bold" lengthAdjust="spacing" textLength="19.4429" x="423.1997" y="927.8638">alt</text><text fill="#000000" font-family="sans-serif" font-size="11" font-weight="bold" lengthAdjust="spacing" textLength="77.5425" x="487.6426" y="927.0073">[SOC Image]</text><line style="stroke:#181818;stroke-width:1;" x1="498.9424" x2="540.9424" y1="968.1953" y2="968.1953"/><line style="stroke:#181818;stroke-width:1;" x1="540.9424" x2="540.9424" y1="968.1953" y2="981.1953"/><line style="stroke:#181818;stroke-width:1;" x1="499.9424" x2="540.9424" y1="981.1953" y2="981.1953"/><polygon fill="#181818" points="509.9424,977.1953,499.9424,981.1953,509.9424,985.1953,505.9424,981.1953" style="stroke:#181818;stroke-width:1;"/><text fill="#000000" font-family="sans-serif" font-size="13" lengthAdjust="spacing" textLength="138.271" x="505.9424" y="947.9966">GET_LOAD_ADDRESS</text><text fill="#000000" font-family="sans-serif" font-size="13" lengthAdjust="spacing" textLength="119.3232" x="505.9424" y="963.1294">Mailbox command</text><polygon fill="#181818" points="289.4951,1020.3281,279.4951,1024.3281,289.4951,1028.3281,285.4951,1024.3281" style="stroke:#181818;stroke-width:1;"/><line style="stroke:#181818;stroke-width:1;" x1="283.4951" x2="497.9424" y1="1024.3281" y2="1024.3281"/><text fill="#000000" font-family="sans-serif" font-size="13" lengthAdjust="spacing" textLength="17.7607" x="295.4951" y="1019.2622">Ok</text><polygon fill="#181818" points="96.2959,1064.5938,86.2959,1068.5938,96.2959,1072.5938,92.2959,1068.5938" style="stroke:#181818;stroke-width:1;"/><line style="stroke:#181818;stroke-width:1;" x1="90.2959" x2="267.4951" y1="1068.5938" y2="1068.5938"/><text fill="#000000" font-family="sans-serif" font-size="13" lengthAdjust="spacing" textLength="122.5542" x="102.2959" y="1048.395">UpdateComponent</text><text fill="#000000" font-family="sans-serif" font-size="13" lengthAdjust="spacing" textLength="63.0195" x="102.2959" y="1063.5278">Response</text><path d="M20,1083.5938 L96.624,1083.5938 L96.624,1090.7266 L86.624,1100.7266 L20,1100.7266 L20,1083.5938 " fill="#EEEEEE" style="stroke:#000000;stroke-width:1.5;"/><rect fill="#FFFFFF" fill-opacity="0.00000" height="495.6875" style="stroke:#000000;stroke-width:1.5;" width="676.418" x="20" y="1083.5938"/><text fill="#000000" font-family="sans-serif" font-size="13" font-weight="bold" lengthAdjust="spacing" textLength="31.624" x="35" y="1096.6606">loop</text><text fill="#000000" font-family="sans-serif" font-size="11" font-weight="bold" lengthAdjust="spacing" textLength="106.6699" x="111.624" y="1095.8042">[until component</text><text fill="#000000" font-family="sans-serif" font-size="11" font-weight="bold" lengthAdjust="spacing" textLength="94.5581" x="111.624" y="1108.6089">is downloaded]</text><polygon fill="#181818" points="96.2959,1128.4688,86.2959,1132.4688,96.2959,1136.4688,92.2959,1132.4688" style="stroke:#181818;stroke-width:1;"/><line style="stroke:#181818;stroke-width:1;" x1="90.2959" x2="267.4951" y1="1132.4688" y2="1132.4688"/><text fill="#000000" font-family="sans-serif" font-size="13" lengthAdjust="spacing" textLength="145.4692" x="102.2959" y="1127.4028">RequestFirmwareData</text><polygon fill="#181818" points="256.4951,1157.6016,266.4951,1161.6016,256.4951,1165.6016,260.4951,1161.6016" style="stroke:#181818;stroke-width:1;"/><line style="stroke:#181818;stroke-width:1;" x1="85.2959" x2="262.4951" y1="1161.6016" y2="1161.6016"/><text fill="#000000" font-family="sans-serif" font-size="13" lengthAdjust="spacing" textLength="92.0791" x="92.2959" y="1156.5356">FirmwareData</text><polygon fill="#181818" points="486.9424,1186.7344,496.9424,1190.7344,486.9424,1194.7344,490.9424,1190.7344" style="stroke:#181818;stroke-width:1;"/><line style="stroke:#181818;stroke-width:1;" x1="278.4951" x2="492.9424" y1="1190.7344" y2="1190.7344"/><text fill="#000000" font-family="sans-serif" font-size="13" lengthAdjust="spacing" textLength="170.8027" x="285.4951" y="1185.6685">FirmwareData Notification</text><path d="M398.1997,1205.7344 L462.6426,1205.7344 L462.6426,1212.8672 L452.6426,1222.8672 L398.1997,1222.8672 L398.1997,1205.7344 " fill="#EEEEEE" style="stroke:#000000;stroke-width:1.5;"/><rect fill="#FFFFFF" fill-opacity="0.00000" height="337.4141" style="stroke:#000000;stroke-width:1.5;" width="288.2183" x="398.1997" y="1205.7344"/><text fill="#000000" font-family="sans-serif" font-size="13" font-weight="bold" lengthAdjust="spacing" textLength="19.4429" x="413.1997" y="1218.8013">alt</text><text fill="#000000" font-family="sans-serif" font-size="11" font-weight="bold" lengthAdjust="spacing" textLength="117.3477" x="477.6426" y="1217.9448">[Firmware Update]</text><path d="M408.1997,1229.8672 L472.6426,1229.8672 L472.6426,1237 L462.6426,1247 L408.1997,1247 L408.1997,1229.8672 " fill="#EEEEEE" style="stroke:#000000;stroke-width:1.5;"/><rect fill="#FFFFFF" fill-opacity="0.00000" height="203.4063" style="stroke:#000000;stroke-width:1.5;" width="268.2183" x="408.1997" y="1229.8672"/><text fill="#000000" font-family="sans-serif" font-size="13" font-weight="bold" lengthAdjust="spacing" textLength="19.4429" x="423.1997" y="1242.9341">alt</text><text fill="#000000" font-family="sans-serif" font-size="11" font-weight="bold" lengthAdjust="spacing" textLength="93.2529" x="487.6426" y="1242.0776">[SOC Manifest]</text><line style="stroke:#181818;stroke-width:1;" x1="498.9424" x2="540.9424" y1="1268.1328" y2="1268.1328"/><line style="stroke:#181818;stroke-width:1;" x1="540.9424" x2="540.9424" y1="1268.1328" y2="1281.1328"/><line style="stroke:#181818;stroke-width:1;" x1="499.9424" x2="540.9424" y1="1281.1328" y2="1281.1328"/><polygon fill="#181818" points="509.9424,1277.1328,499.9424,1281.1328,509.9424,1285.1328,505.9424,1281.1328" style="stroke:#181818;stroke-width:1;"/><text fill="#000000" font-family="sans-serif" font-size="13" lengthAdjust="spacing" textLength="158.4756" x="505.9424" y="1263.0669">Buffer to local MCU RAM</text><line style="stroke:#000000;stroke-width:1;stroke-dasharray:2.0,2.0;" x1="408.1997" x2="676.418" y1="1290.1328" y2="1290.1328"/><text fill="#000000" font-family="sans-serif" font-size="11" font-weight="bold" lengthAdjust="spacing" textLength="114.6245" x="413.1997" y="1300.3433">[Caliptra FMC+RT]</text><line style="stroke:#181818;stroke-width:1;" x1="498.9424" x2="540.9424" y1="1340.2031" y2="1340.2031"/><line style="stroke:#181818;stroke-width:1;" x1="540.9424" x2="540.9424" y1="1340.2031" y2="1353.2031"/><line style="stroke:#181818;stroke-width:1;" x1="499.9424" x2="540.9424" y1="1353.2031" y2="1353.2031"/><polygon fill="#181818" points="509.9424,1349.2031,499.9424,1353.2031,509.9424,1357.2031,505.9424,1353.2031" style="stroke:#181818;stroke-width:1;"/><text fill="#000000" font-family="sans-serif" font-size="13" lengthAdjust="spacing" textLength="132.4629" x="505.9424" y="1320.0044">CALIPTRA_FW_LOAD</text><text fill="#000000" font-family="sans-serif" font-size="13" lengthAdjust="spacing" textLength="121.2529" x="505.9424" y="1335.1372">Mailbox Command</text><line style="stroke:#000000;stroke-width:1;stroke-dasharray:2.0,2.0;" x1="408.1997" x2="676.418" y1="1362.2031" y2="1362.2031"/><text fill="#000000" font-family="sans-serif" font-size="11" font-weight="bold" lengthAdjust="spacing" textLength="145.938" x="413.1997" y="1372.4136">[MCU RT or SOC Image]</text><line style="stroke:#181818;stroke-width:1;" x1="498.9424" x2="540.9424" y1="1412.2734" y2="1412.2734"/><line style="stroke:#181818;stroke-width:1;" x1="540.9424" x2="540.9424" y1="1412.2734" y2="1425.2734"/><line style="stroke:#181818;stroke-width:1;" x1="499.9424" x2="540.9424" y1="1425.2734" y2="1425.2734"/><polygon fill="#181818" points="509.9424,1421.2734,499.9424,1425.2734,509.9424,1429.2734,505.9424,1425.2734" style="stroke:#181818;stroke-width:1;"/><text fill="#000000" font-family="sans-serif" font-size="13" lengthAdjust="spacing" textLength="52.0889" x="505.9424" y="1392.0747">Write to</text><text fill="#000000" font-family="sans-serif" font-size="13" lengthAdjust="spacing" textLength="84.0049" x="505.9424" y="1407.2075">Staging Area</text><line style="stroke:#000000;stroke-width:1;stroke-dasharray:2.0,2.0;" x1="398.1997" x2="686.418" y1="1441.2734" y2="1441.2734"/><text fill="#000000" font-family="sans-serif" font-size="11" font-weight="bold" lengthAdjust="spacing" textLength="107.0674" x="403.1997" y="1451.4839">[Streaming Boot]</text><path d="M408.1997,1462.0781 L472.6426,1462.0781 L472.6426,1469.2109 L462.6426,1479.2109 L408.1997,1479.2109 L408.1997,1462.0781 " fill="#EEEEEE" style="stroke:#000000;stroke-width:1.5;"/><rect fill="#FFFFFF" fill-opacity="0.00000" height="74.0703" style="stroke:#000000;stroke-width:1.5;" width="253.7964" x="408.1997" y="1462.0781"/><text fill="#000000" font-family="sans-serif" font-size="13" font-weight="bold" lengthAdjust="spacing" textLength="19.4429" x="423.1997" y="1475.145">alt</text><text fill="#000000" font-family="sans-serif" font-size="11" font-weight="bold" lengthAdjust="spacing" textLength="77.5425" x="487.6426" y="1474.2886">[SOC Image]</text><line style="stroke:#181818;stroke-width:1;" x1="498.9424" x2="540.9424" y1="1500.3438" y2="1500.3438"/><line style="stroke:#181818;stroke-width:1;" x1="540.9424" x2="540.9424" y1="1500.3438" y2="1513.3438"/><line style="stroke:#181818;stroke-width:1;" x1="499.9424" x2="540.9424" y1="1513.3438" y2="1513.3438"/><polygon fill="#181818" points="509.9424,1509.3438,499.9424,1513.3438,509.9424,1517.3438,505.9424,1513.3438" style="stroke:#181818;stroke-width:1;"/><text fill="#000000" font-family="sans-serif" font-size="13" lengthAdjust="spacing" textLength="144.0537" x="505.9424" y="1495.2778">Write to Load Address</text><line style="stroke:#000000;stroke-width:1;stroke-dasharray:2.0,2.0;" x1="408.1997" x2="661.9961" y1="1522.3438" y2="1522.3438"/><text fill="#000000" font-family="sans-serif" font-size="11" font-weight="bold" lengthAdjust="spacing" textLength="126.457" x="413.1997" y="1532.5542">[others not allowed]</text><polygon fill="#181818" points="289.4951,1567.2813,279.4951,1571.2813,289.4951,1575.2813,285.4951,1571.2813" style="stroke:#181818;stroke-width:1;"/><line style="stroke:#181818;stroke-width:1;" x1="283.4951" x2="497.9424" y1="1571.2813" y2="1571.2813"/><text fill="#000000" font-family="sans-serif" font-size="13" lengthAdjust="spacing" textLength="17.7607" x="295.4951" y="1566.2153">Ok</text><polygon fill="#181818" points="96.2959,1603.4141,86.2959,1607.4141,96.2959,1611.4141,92.2959,1607.4141" style="stroke:#181818;stroke-width:1;"/><line style="stroke:#181818;stroke-width:1;" x1="90.2959" x2="267.4951" y1="1607.4141" y2="1607.4141"/><text fill="#000000" font-family="sans-serif" font-size="13" lengthAdjust="spacing" textLength="120.9673" x="102.2959" y="1602.3481">Transfer Complete</text><polygon fill="#181818" points="486.9424,1632.5469,496.9424,1636.5469,486.9424,1640.5469,490.9424,1636.5469" style="stroke:#181818;stroke-width:1;"/><line style="stroke:#181818;stroke-width:1;" x1="278.4951" x2="492.9424" y1="1636.5469" y2="1636.5469"/><text fill="#000000" font-family="sans-serif" font-size="13" lengthAdjust="spacing" textLength="196.4473" x="285.4951" y="1631.481">Verify Component Notification</text><path d="M408.1997,1651.5469 L472.6426,1651.5469 L472.6426,1658.6797 L462.6426,1668.6797 L408.1997,1668.6797 L408.1997,1651.5469 " fill="#EEEEEE" style="stroke:#000000;stroke-width:1.5;"/><rect fill="#FFFFFF" fill-opacity="0.00000" height="146.4688" style="stroke:#000000;stroke-width:1.5;" width="270.8271" x="408.1997" y="1651.5469"/><text fill="#000000" font-family="sans-serif" font-size="13" font-weight="bold" lengthAdjust="spacing" textLength="19.4429" x="423.1997" y="1664.6138">alt</text><text fill="#000000" font-family="sans-serif" font-size="11" font-weight="bold" lengthAdjust="spacing" textLength="93.2529" x="487.6426" y="1663.7573">[SOC Manifest]</text><line style="stroke:#181818;stroke-width:1;" x1="498.9424" x2="540.9424" y1="1704.9453" y2="1704.9453"/><line style="stroke:#181818;stroke-width:1;" x1="540.9424" x2="540.9424" y1="1704.9453" y2="1717.9453"/><line style="stroke:#181818;stroke-width:1;" x1="499.9424" x2="540.9424" y1="1717.9453" y2="1717.9453"/><polygon fill="#181818" points="509.9424,1713.9453,499.9424,1717.9453,509.9424,1721.9453,505.9424,1717.9453" style="stroke:#181818;stroke-width:1;"/><text fill="#000000" font-family="sans-serif" font-size="13" lengthAdjust="spacing" textLength="139.0835" x="505.9424" y="1684.7466">SET_AUTH_MANIFEST</text><text fill="#000000" font-family="sans-serif" font-size="13" lengthAdjust="spacing" textLength="66.8154" x="505.9424" y="1699.8794">Command</text><line style="stroke:#000000;stroke-width:1;stroke-dasharray:2.0,2.0;" x1="408.1997" x2="679.0269" y1="1726.9453" y2="1726.9453"/><text fill="#000000" font-family="sans-serif" font-size="11" font-weight="bold" lengthAdjust="spacing" textLength="145.6157" x="413.1997" y="1737.1558">[MCU RT or SOC image]</text><line style="stroke:#181818;stroke-width:1;" x1="498.9424" x2="540.9424" y1="1777.0156" y2="1777.0156"/><line style="stroke:#181818;stroke-width:1;" x1="540.9424" x2="540.9424" y1="1777.0156" y2="1790.0156"/><line style="stroke:#181818;stroke-width:1;" x1="499.9424" x2="540.9424" y1="1790.0156" y2="1790.0156"/><polygon fill="#181818" points="509.9424,1786.0156,499.9424,1790.0156,509.9424,1794.0156,505.9424,1790.0156" style="stroke:#181818;stroke-width:1;"/><text fill="#000000" font-family="sans-serif" font-size="13" lengthAdjust="spacing" textLength="161.0845" x="505.9424" y="1756.8169">AUTHORIZE_AND_STASH</text><text fill="#000000" font-family="sans-serif" font-size="13" lengthAdjust="spacing" textLength="66.8154" x="505.9424" y="1771.9497">Command</text><polygon fill="#181818" points="289.4951,1822.1484,279.4951,1826.1484,289.4951,1830.1484,285.4951,1826.1484" style="stroke:#181818;stroke-width:1;"/><line style="stroke:#181818;stroke-width:1;" x1="283.4951" x2="497.9424" y1="1826.1484" y2="1826.1484"/><text fill="#000000" font-family="sans-serif" font-size="13" lengthAdjust="spacing" textLength="17.7607" x="295.4951" y="1821.0825">Ok</text><polygon fill="#181818" points="96.2959,1851.2813,86.2959,1855.2813,96.2959,1859.2813,92.2959,1855.2813" style="stroke:#181818;stroke-width:1;"/><line style="stroke:#181818;stroke-width:1;" x1="90.2959" x2="267.4951" y1="1855.2813" y2="1855.2813"/><text fill="#000000" font-family="sans-serif" font-size="13" lengthAdjust="spacing" textLength="100.769" x="102.2959" y="1850.2153">VerifyComplete</text><polygon fill="#181818" points="486.9424,1880.4141,496.9424,1884.4141,486.9424,1888.4141,490.9424,1884.4141" style="stroke:#181818;stroke-width:1;"/><line style="stroke:#181818;stroke-width:1;" x1="278.4951" x2="492.9424" y1="1884.4141" y2="1884.4141"/><text fill="#000000" font-family="sans-serif" font-size="13" lengthAdjust="spacing" textLength="193.1021" x="285.4951" y="1879.3481">Apply component Notification</text><path d="M398.1997,1899.4141 L462.6426,1899.4141 L462.6426,1906.5469 L452.6426,1916.5469 L398.1997,1916.5469 L398.1997,1899.4141 " fill="#EEEEEE" style="stroke:#000000;stroke-width:1.5;"/><rect fill="#FFFFFF" fill-opacity="0.00000" height="147.3359" style="stroke:#000000;stroke-width:1.5;" width="406.1958" x="398.1997" y="1899.4141"/><text fill="#000000" font-family="sans-serif" font-size="13" font-weight="bold" lengthAdjust="spacing" textLength="19.4429" x="413.1997" y="1912.481">alt</text><text fill="#000000" font-family="sans-serif" font-size="11" font-weight="bold" lengthAdjust="spacing" textLength="117.3477" x="477.6426" y="1911.6245">[Firmware Update]</text><path d="M408.1997,1923.5469 L472.6426,1923.5469 L472.6426,1930.6797 L462.6426,1940.6797 L408.1997,1940.6797 L408.1997,1923.5469 " fill="#EEEEEE" style="stroke:#000000;stroke-width:1.5;"/><rect fill="#FFFFFF" fill-opacity="0.00000" height="116.2031" style="stroke:#000000;stroke-width:1.5;" width="386.1958" x="408.1997" y="1923.5469"/><text fill="#000000" font-family="sans-serif" font-size="13" font-weight="bold" lengthAdjust="spacing" textLength="19.4429" x="423.1997" y="1936.6138">alt</text><text fill="#000000" font-family="sans-serif" font-size="11" font-weight="bold" lengthAdjust="spacing" textLength="93.2529" x="487.6426" y="1935.7573">[SOC Manifest]</text><line style="stroke:#181818;stroke-width:1;" x1="498.9424" x2="540.9424" y1="1961.8125" y2="1961.8125"/><line style="stroke:#181818;stroke-width:1;" x1="540.9424" x2="540.9424" y1="1961.8125" y2="1974.8125"/><line style="stroke:#181818;stroke-width:1;" x1="499.9424" x2="540.9424" y1="1974.8125" y2="1974.8125"/><polygon fill="#181818" points="509.9424,1970.8125,499.9424,1974.8125,509.9424,1978.8125,505.9424,1974.8125" style="stroke:#181818;stroke-width:1;"/><text fill="#000000" font-family="sans-serif" font-size="13" lengthAdjust="spacing" textLength="236.5898" x="505.9424" y="1956.7466">Write SOC Manifest to Flash Storage</text><line style="stroke:#000000;stroke-width:1;stroke-dasharray:2.0,2.0;" x1="408.1997" x2="794.3955" y1="1983.8125" y2="1983.8125"/><text fill="#000000" font-family="sans-serif" font-size="11" font-weight="bold" lengthAdjust="spacing" textLength="145.938" x="413.1997" y="1994.0229">[MCU RT or SOC Image]</text><line style="stroke:#181818;stroke-width:1;" x1="498.9424" x2="540.9424" y1="2018.75" y2="2018.75"/><line style="stroke:#181818;stroke-width:1;" x1="540.9424" x2="540.9424" y1="2018.75" y2="2031.75"/><line style="stroke:#181818;stroke-width:1;" x1="499.9424" x2="540.9424" y1="2031.75" y2="2031.75"/><polygon fill="#181818" points="509.9424,2027.75,499.9424,2031.75,509.9424,2035.75,505.9424,2031.75" style="stroke:#181818;stroke-width:1;"/><text fill="#000000" font-family="sans-serif" font-size="13" lengthAdjust="spacing" textLength="276.4531" x="505.9424" y="2013.6841">Copy image from Staging to Flash Storage</text><polygon fill="#181818" points="289.4951,2070.8828,279.4951,2074.8828,289.4951,2078.8828,285.4951,2074.8828" style="stroke:#181818;stroke-width:1;"/><line style="stroke:#181818;stroke-width:1;" x1="283.4951" x2="497.9424" y1="2074.8828" y2="2074.8828"/><text fill="#000000" font-family="sans-serif" font-size="13" lengthAdjust="spacing" textLength="17.7607" x="295.4951" y="2069.8169">Ok</text><polygon fill="#181818" points="96.2959,2100.0156,86.2959,2104.0156,96.2959,2108.0156,92.2959,2104.0156" style="stroke:#181818;stroke-width:1;"/><line style="stroke:#181818;stroke-width:1;" x1="90.2959" x2="497.9424" y1="2104.0156" y2="2104.0156"/><text fill="#000000" font-family="sans-serif" font-size="13" lengthAdjust="spacing" textLength="99.3535" x="102.2959" y="2098.9497">ApplyComplete</text><polygon fill="#181818" points="256.4951,2136.1484,266.4951,2140.1484,256.4951,2144.1484,260.4951,2140.1484" style="stroke:#181818;stroke-width:1;"/><line style="stroke:#181818;stroke-width:1;" x1="85.2959" x2="262.4951" y1="2140.1484" y2="2140.1484"/><text fill="#000000" font-family="sans-serif" font-size="13" lengthAdjust="spacing" textLength="114.5435" x="92.2959" y="2135.0825">ActivateFirmware</text><polygon fill="#181818" points="486.9424,2165.2813,496.9424,2169.2813,486.9424,2173.2813,490.9424,2169.2813" style="stroke:#181818;stroke-width:1;"/><line style="stroke:#181818;stroke-width:1;" x1="278.4951" x2="492.9424" y1="2169.2813" y2="2169.2813"/><text fill="#000000" font-family="sans-serif" font-size="13" lengthAdjust="spacing" textLength="132.228" x="285.4951" y="2164.2153">Activate Notification</text><path d="M408.1997,2184.2813 L472.6426,2184.2813 L472.6426,2191.4141 L462.6426,2201.4141 L408.1997,2201.4141 L408.1997,2184.2813 " fill="#EEEEEE" style="stroke:#000000;stroke-width:1.5;"/><rect fill="#FFFFFF" fill-opacity="0.00000" height="74.3984" style="stroke:#000000;stroke-width:1.5;" width="244.9668" x="408.1997" y="2184.2813"/><text fill="#000000" font-family="sans-serif" font-size="13" font-weight="bold" lengthAdjust="spacing" textLength="19.4429" x="423.1997" y="2197.3481">alt</text><text fill="#000000" font-family="sans-serif" font-size="11" font-weight="bold" lengthAdjust="spacing" textLength="145.938" x="487.6426" y="2196.4917">[MCU RT or SOC Image]</text><line style="stroke:#181818;stroke-width:1;" x1="498.9424" x2="540.9424" y1="2237.6797" y2="2237.6797"/><line style="stroke:#181818;stroke-width:1;" x1="540.9424" x2="540.9424" y1="2237.6797" y2="2250.6797"/><line style="stroke:#181818;stroke-width:1;" x1="499.9424" x2="540.9424" y1="2250.6797" y2="2250.6797"/><polygon fill="#181818" points="509.9424,2246.6797,499.9424,2250.6797,509.9424,2254.6797,505.9424,2250.6797" style="stroke:#181818;stroke-width:1;"/><text fill="#000000" font-family="sans-serif" font-size="13" lengthAdjust="spacing" textLength="135.2241" x="505.9424" y="2217.481">Send Activate Image</text><text fill="#000000" font-family="sans-serif" font-size="13" lengthAdjust="spacing" textLength="121.2529" x="505.9424" y="2232.6138">Mailbox Command</text><polygon fill="#181818" points="289.4951,2282.8125,279.4951,2286.8125,289.4951,2290.8125,285.4951,2286.8125" style="stroke:#181818;stroke-width:1;"/><line style="stroke:#181818;stroke-width:1;" x1="283.4951" x2="497.9424" y1="2286.8125" y2="2286.8125"/><text fill="#000000" font-family="sans-serif" font-size="13" lengthAdjust="spacing" textLength="17.7607" x="295.4951" y="2281.7466">Ok</text><polygon fill="#181818" points="777.3955,2311.9453,787.3955,2315.9453,777.3955,2319.9453,781.3955,2315.9453" style="stroke:#181818;stroke-width:1;"/><line style="stroke:#181818;stroke-width:1;" x1="498.9424" x2="783.3955" y1="2315.9453" y2="2315.9453"/><text fill="#000000" font-family="sans-serif" font-size="13" lengthAdjust="spacing" textLength="109.7319" x="505.9424" y="2310.8794">UpdateComplete</text><polygon fill="#181818" points="96.2959,2356.2109,86.2959,2360.2109,96.2959,2364.2109,92.2959,2360.2109" style="stroke:#181818;stroke-width:1;"/><line style="stroke:#181818;stroke-width:1;" x1="90.2959" x2="267.4951" y1="2360.2109" y2="2360.2109"/><text fill="#000000" font-family="sans-serif" font-size="13" lengthAdjust="spacing" textLength="53.5044" x="102.2959" y="2340.0122">Activate</text><text fill="#000000" font-family="sans-serif" font-size="13" lengthAdjust="spacing" textLength="63.0195" x="102.2959" y="2355.145">Response</text><!--SRC=[bLLDRwCm4BtpAqOzxMeLxMalFLIYaAH88Sa2tKehfCW5arerDckSTFllTmpX8n3QRAHysSzlPjwRCPffJc71LFv658N78YMQmdS8jQ8aPs8Fzr9g2EcV0nK9jQo2ACqILX2XuUO4j_TKw1iW9MnNhdyECIl8Hf9Nc47qeq8ruSwHmoJihLUXyTkoIAAbWXjFCCq8_gntYiAoBFoStI7ereHHkcMFnOaefEh8C7V4pEwQtK_H694TpKARhMLgwJFyF53rxb83zrAKW6MCgj9g0BCxS-0MneWHqvBgvi-MA99JVOde0cJ451YdIbqNqsEe16gKFHB6oJF7ejVIv9GGpQIe1K8vhmDsCJUlerJFqeX5GCj2YX8rv58MS40bE13EOv7877TGcbWmaKaeI5dIT5JM5fUT3lgbFVPr57e0RKDJaOA9VieXmtwYHpGGMgvHr3hzJ-FsjErXpnJ35-5wE6ZLckyy0kOIRXpmSh8_zMd5kPn7kp2obzvwkRDTDvY7OInyzEHP_ZLfvqIafYwByf8EPhRYdY9TRMpt4qPyN-7pgEhEwRxLVPTBIEMRu9AawFD4tpJBBj5avChPvi25_XuC7RZiGIkKJmJBC7XFg_j3bb45McBd98HNNWMsN-lj4CuAhGWiVETR4FMEEVRAsqQ1lLiyLL9t4ZkDn8QWOekcp7zI34TGorZWJRKtjjheRstC__ZTyC0A9GSxJHKjovf1wXUyH43W3O_3ADzev_tO-cv-XgP5YeZIw6JwW5EZwS2MNrInx1tQFXbOyu438NQh_HWzx7nxxItcOHIB3pHaWzhDoKtW_PxlxBLhHYbywCvVs-DryfEruON9UvV8UMbJGpzHRUrLVzCOj-2aV46xfJBLNT4wZYpUQoqWKpA7fe76NDEJNgtK0bGLjlLtVJ0SJFlqo6oVc4EbcaVgIAAFombDoFPmjNjXeYusxV2HrbOnDBcXxswmVm00]--></g></svg>