<svg xmlns="http://www.w3.org/2000/svg" xmlns:xlink="http://www.w3.org/1999/xlink" contentStyleType="text/css" data-diagram-type="SEQUENCE" height="1271px" preserveAspectRatio="none" style="width:531px;height:1271px;background:#FFFFFF;" version="1.1" viewBox="0 0 531 1271" width="531px" zoomAndPan="magnify"><title>Firmware Update Sequence</title><defs/><g><text fill="#000000" font-family="sans-serif" font-size="14" font-weight="bold" lengthAdjust="spacing" textLength="218.251" x="156.1665" y="27.9951">Firmware Update Sequence</text><rect fill="#FFFFFF" fill-opacity="0.00000" height="105.6641" style="stroke:#000000;stroke-width:1.5;" width="310.4927" x="20" y="380.9219"/><rect fill="#FFFFFF" fill-opacity="0.00000" height="600.9375" style="stroke:#000000;stroke-width:1.5;" width="427.2256" x="10" y="500.5859"/><rect fill="#FFFFFF" fill-opacity="0.00000" height="277.6719" style="stroke:#000000;stroke-width:1.5;" width="407.2256" x="20" y="568.9844"/><rect fill="#FFFFFF" fill-opacity="0.00000" height="188.2734" style="stroke:#000000;stroke-width:1.5;" width="268.2183" x="149.0073" y="651.3828"/><rect fill="#FFFFFF" fill-opacity="0.00000" height="146.4688" style="stroke:#000000;stroke-width:1.5;" width="270.8271" x="149.0073" y="889.7891"/><rect fill="#FFFFFF" fill-opacity="0.00000" height="74.3984" style="stroke:#000000;stroke-width:1.5;" width="244.9668" x="149.0073" y="1144.6563"/><g><title>PLDM</title><rect fill="#FFFFFF" fill-opacity="0.00000" height="1162.4609" width="8" x="52.5508" y="73.5938"/><line style="stroke:#181818;stroke-width:0.5;stroke-dasharray:5.0,5.0;" x1="56" x2="56" y1="73.5938" y2="1236.0547"/></g><g><title>Firmware Update API</title><rect fill="#FFFFFF" fill-opacity="0.00000" height="1162.4609" width="8" x="235.75" y="73.5938"/><line style="stroke:#181818;stroke-width:0.5;stroke-dasharray:5.0,5.0;" x1="239.0073" x2="239.0073" y1="73.5938" y2="1236.0547"/></g><g><title>App</title><rect fill="#FFFFFF" fill-opacity="0.00000" height="1162.4609" width="8" x="410.8345" y="73.5938"/><line style="stroke:#181818;stroke-width:0.5;stroke-dasharray:5.0,5.0;" x1="414.1592" x2="414.1592" y1="73.5938" y2="1236.0547"/></g><rect fill="#E2E2F0" height="30.2969" rx="2.5" ry="2.5" style="stroke:#181818;stroke-width:0.5;" width="53.1016" x="30" y="42.2969"/><text fill="#000000" font-family="sans-serif" font-size="14" lengthAdjust="spacing" textLength="39.1016" x="37" y="62.292">PLDM</text><rect fill="#E2E2F0" height="30.2969" rx="2.5" ry="2.5" style="stroke:#181818;stroke-width:0.5;" width="53.1016" x="30" y="1235.0547"/><text fill="#000000" font-family="sans-serif" font-size="14" lengthAdjust="spacing" textLength="39.1016" x="37" y="1255.0498">PLDM</text><rect fill="#E2E2F0" height="30.2969" rx="2.5" ry="2.5" style="stroke:#181818;stroke-width:0.5;" width="161.4854" x="159.0073" y="42.2969"/><text fill="#000000" font-family="sans-serif" font-size="14" lengthAdjust="spacing" textLength="147.4854" x="166.0073" y="62.292">Firmware Update API</text><rect fill="#E2E2F0" height="30.2969" rx="2.5" ry="2.5" style="stroke:#181818;stroke-width:0.5;" width="161.4854" x="159.0073" y="1235.0547"/><text fill="#000000" font-family="sans-serif" font-size="14" lengthAdjust="spacing" textLength="147.4854" x="166.0073" y="1255.0498">Firmware Update API</text><rect fill="#E2E2F0" height="30.2969" rx="2.5" ry="2.5" style="stroke:#181818;stroke-width:0.5;" width="41.3506" x="394.1592" y="42.2969"/><text fill="#000000" font-family="sans-serif" font-size="14" lengthAdjust="spacing" textLength="27.3506" x="401.1592" y="62.292">App</text><rect fill="#E2E2F0" height="30.2969" rx="2.5" ry="2.5" style="stroke:#181818;stroke-width:0.5;" width="41.3506" x="394.1592" y="1235.0547"/><text fill="#000000" font-family="sans-serif" font-size="14" lengthAdjust="spacing" textLength="27.3506" x="401.1592" y="1255.0498">App</text><line style="stroke:#181818;stroke-width:1;" x1="414.8345" x2="456.8345" y1="104.7266" y2="104.7266"/><line style="stroke:#181818;stroke-width:1;" x1="456.8345" x2="456.8345" y1="104.7266" y2="117.7266"/><line style="stroke:#181818;stroke-width:1;" x1="415.8345" x2="456.8345" y1="117.7266" y2="117.7266"/><polygon fill="#181818" points="425.8345,113.7266,415.8345,117.7266,425.8345,121.7266,421.8345,117.7266" style="stroke:#181818;stroke-width:1;"/><text fill="#000000" font-family="sans-serif" font-size="13" lengthAdjust="spacing" textLength="102.7495" x="421.8345" y="99.6606">Wait for Update</text><polygon fill="#181818" points="227.75,142.8594,237.75,146.8594,227.75,150.8594,231.75,146.8594" style="stroke:#181818;stroke-width:1;"/><line style="stroke:#181818;stroke-width:1;" x1="56.5508" x2="233.75" y1="146.8594" y2="146.8594"/><text fill="#000000" font-family="sans-serif" font-size="13" lengthAdjust="spacing" textLength="149.3032" x="63.5508" y="141.7935">QueryDeviceIdentifiers</text><polygon fill="#181818" points="67.5508,171.9922,57.5508,175.9922,67.5508,179.9922,63.5508,175.9922" style="stroke:#181818;stroke-width:1;"/><line style="stroke:#181818;stroke-width:1;" x1="61.5508" x2="238.75" y1="175.9922" y2="175.9922"/><text fill="#000000" font-family="sans-serif" font-size="13" lengthAdjust="spacing" textLength="109.7954" x="73.5508" y="170.9263">DeviceIdentifiers</text><polygon fill="#181818" points="227.75,201.125,237.75,205.125,227.75,209.125,231.75,205.125" style="stroke:#181818;stroke-width:1;"/><line style="stroke:#181818;stroke-width:1;" x1="56.5508" x2="233.75" y1="205.125" y2="205.125"/><text fill="#000000" font-family="sans-serif" font-size="13" lengthAdjust="spacing" textLength="159.1992" x="63.5508" y="200.0591">GetFirmwareParameters</text><polygon fill="#181818" points="67.5508,230.2578,57.5508,234.2578,67.5508,238.2578,63.5508,234.2578" style="stroke:#181818;stroke-width:1;"/><line style="stroke:#181818;stroke-width:1;" x1="61.5508" x2="238.75" y1="234.2578" y2="234.2578"/><text fill="#000000" font-family="sans-serif" font-size="13" lengthAdjust="spacing" textLength="136.0303" x="73.5508" y="229.1919">FirmwareParameters</text><polygon fill="#181818" points="227.75,259.3906,237.75,263.3906,227.75,267.3906,231.75,263.3906" style="stroke:#181818;stroke-width:1;"/><line style="stroke:#181818;stroke-width:1;" x1="56.5508" x2="233.75" y1="263.3906" y2="263.3906"/><text fill="#000000" font-family="sans-serif" font-size="13" lengthAdjust="spacing" textLength="100.4707" x="63.5508" y="258.3247">RequestUpdate</text><polygon fill="#181818" points="402.8345,288.5234,412.8345,292.5234,402.8345,296.5234,406.8345,292.5234" style="stroke:#181818;stroke-width:1;"/><line style="stroke:#181818;stroke-width:1;" x1="239.75" x2="408.8345" y1="292.5234" y2="292.5234"/><text fill="#000000" font-family="sans-serif" font-size="13" lengthAdjust="spacing" textLength="110.8174" x="246.75" y="287.4575">Update Available</text><polygon fill="#181818" points="250.75,317.6563,240.75,321.6563,250.75,325.6563,246.75,321.6563" style="stroke:#181818;stroke-width:1;"/><line style="stroke:#181818;stroke-width:1;" x1="244.75" x2="413.8345" y1="321.6563" y2="321.6563"/><text fill="#000000" font-family="sans-serif" font-size="13" lengthAdjust="spacing" textLength="82.9702" x="256.75" y="316.5903">Start Update</text><polygon fill="#181818" points="67.5508,361.9219,57.5508,365.9219,67.5508,369.9219,63.5508,365.9219" style="stroke:#181818;stroke-width:1;"/><line style="stroke:#181818;stroke-width:1;" x1="61.5508" x2="238.75" y1="365.9219" y2="365.9219"/><text fill="#000000" font-family="sans-serif" font-size="13" lengthAdjust="spacing" textLength="100.4707" x="73.5508" y="345.7231">RequestUpdate</text><text fill="#000000" font-family="sans-serif" font-size="13" lengthAdjust="spacing" textLength="63.0195" x="73.5508" y="360.856">Response</text><path d="M20,380.9219 L96.624,380.9219 L96.624,388.0547 L86.624,398.0547 L20,398.0547 L20,380.9219 " fill="#EEEEEE" style="stroke:#000000;stroke-width:1.5;"/><rect fill="#FFFFFF" fill-opacity="0.00000" height="105.6641" style="stroke:#000000;stroke-width:1.5;" width="310.4927" x="20" y="380.9219"/><text fill="#000000" font-family="sans-serif" font-size="13" font-weight="bold" lengthAdjust="spacing" textLength="31.624" x="35" y="393.9888">loop</text><text fill="#000000" font-family="sans-serif" font-size="11" font-weight="bold" lengthAdjust="spacing" textLength="205.8203" x="111.624" y="393.1323">[until all component info passed]</text><polygon fill="#181818" points="227.75,430.3203,237.75,434.3203,227.75,438.3203,231.75,434.3203" style="stroke:#181818;stroke-width:1;"/><line style="stroke:#181818;stroke-width:1;" x1="56.5508" x2="233.75" y1="434.3203" y2="434.3203"/><text fill="#000000" font-family="sans-serif" font-size="13" lengthAdjust="spacing" textLength="104.8252" x="63.5508" y="414.1216">PassComponent</text><text fill="#000000" font-family="sans-serif" font-size="13" lengthAdjust="spacing" textLength="102.0513" x="63.5508" y="429.2544">(component_id)</text><polygon fill="#181818" points="67.5508,474.5859,57.5508,478.5859,67.5508,482.5859,63.5508,478.5859" style="stroke:#181818;stroke-width:1;"/><line style="stroke:#181818;stroke-width:1;" x1="61.5508" x2="238.75" y1="478.5859" y2="478.5859"/><text fill="#000000" font-family="sans-serif" font-size="13" lengthAdjust="spacing" textLength="104.8252" x="73.5508" y="458.3872">PassComponent</text><text fill="#000000" font-family="sans-serif" font-size="13" lengthAdjust="spacing" textLength="63.0195" x="73.5508" y="473.52">Response</text><path d="M10,500.5859 L86.624,500.5859 L86.624,507.7188 L76.624,517.7188 L10,517.7188 L10,500.5859 " fill="#EEEEEE" style="stroke:#000000;stroke-width:1.5;"/><rect fill="#FFFFFF" fill-opacity="0.00000" height="600.9375" style="stroke:#000000;stroke-width:1.5;" width="427.2256" x="10" y="500.5859"/><text fill="#000000" font-family="sans-serif" font-size="13" font-weight="bold" lengthAdjust="spacing" textLength="31.624" x="25" y="513.6528">loop</text><text fill="#000000" font-family="sans-serif" font-size="11" font-weight="bold" lengthAdjust="spacing" textLength="139.5195" x="101.624" y="512.7964">[for every component]</text><polygon fill="#181818" points="227.75,549.9844,237.75,553.9844,227.75,557.9844,231.75,553.9844" style="stroke:#181818;stroke-width:1;"/><line style="stroke:#181818;stroke-width:1;" x1="56.5508" x2="233.75" y1="553.9844" y2="553.9844"/><text fill="#000000" font-family="sans-serif" font-size="13" lengthAdjust="spacing" textLength="122.5542" x="63.5508" y="533.7856">UpdateComponent</text><text fill="#000000" font-family="sans-serif" font-size="13" lengthAdjust="spacing" textLength="102.0513" x="63.5508" y="548.9185">(component_id)</text><path d="M20,568.9844 L96.624,568.9844 L96.624,576.1172 L86.624,586.1172 L20,586.1172 L20,568.9844 " fill="#EEEEEE" style="stroke:#000000;stroke-width:1.5;"/><rect fill="#FFFFFF" fill-opacity="0.00000" height="277.6719" style="stroke:#000000;stroke-width:1.5;" width="407.2256" x="20" y="568.9844"/><text fill="#000000" font-family="sans-serif" font-size="13" font-weight="bold" lengthAdjust="spacing" textLength="31.624" x="35" y="582.0513">loop</text><text fill="#000000" font-family="sans-serif" font-size="11" font-weight="bold" lengthAdjust="spacing" textLength="205.0576" x="111.624" y="581.1948">[until component is downloaded]</text><polygon fill="#181818" points="67.5508,603.25,57.5508,607.25,67.5508,611.25,63.5508,607.25" style="stroke:#181818;stroke-width:1;"/><line style="stroke:#181818;stroke-width:1;" x1="61.5508" x2="238.75" y1="607.25" y2="607.25"/><text fill="#000000" font-family="sans-serif" font-size="13" lengthAdjust="spacing" textLength="145.4692" x="73.5508" y="602.1841">RequestFirmwareData</text><polygon fill="#181818" points="227.75,632.3828,237.75,636.3828,227.75,640.3828,231.75,636.3828" style="stroke:#181818;stroke-width:1;"/><line style="stroke:#181818;stroke-width:1;" x1="56.5508" x2="233.75" y1="636.3828" y2="636.3828"/><text fill="#000000" font-family="sans-serif" font-size="13" lengthAdjust="spacing" textLength="92.0791" x="63.5508" y="631.3169">FirmwareData</text><path d="M149.0073,651.3828 L213.4502,651.3828 L213.4502,658.5156 L203.4502,668.5156 L149.0073,668.5156 L149.0073,651.3828 " fill="#EEEEEE" style="stroke:#000000;stroke-width:1.5;"/><rect fill="#FFFFFF" fill-opacity="0.00000" height="188.2734" style="stroke:#000000;stroke-width:1.5;" width="268.2183" x="149.0073" y="651.3828"/><text fill="#000000" font-family="sans-serif" font-size="13" font-weight="bold" lengthAdjust="spacing" textLength="19.4429" x="164.0073" y="664.4497">alt</text><text fill="#000000" font-family="sans-serif" font-size="11" font-weight="bold" lengthAdjust="spacing" textLength="93.2529" x="228.4502" y="663.5933">[SOC Manifest]</text><line style="stroke:#181818;stroke-width:1;" x1="239.75" x2="281.75" y1="689.6484" y2="689.6484"/><line style="stroke:#181818;stroke-width:1;" x1="281.75" x2="281.75" y1="689.6484" y2="702.6484"/><line style="stroke:#181818;stroke-width:1;" x1="240.75" x2="281.75" y1="702.6484" y2="702.6484"/><polygon fill="#181818" points="250.75,698.6484,240.75,702.6484,250.75,706.6484,246.75,702.6484" style="stroke:#181818;stroke-width:1;"/><text fill="#000000" font-family="sans-serif" font-size="13" lengthAdjust="spacing" textLength="158.4756" x="246.75" y="684.5825">Buffer to local MCU RAM</text><line style="stroke:#000000;stroke-width:1;stroke-dasharray:2.0,2.0;" x1="149.0073" x2="417.2256" y1="711.6484" y2="711.6484"/><text fill="#000000" font-family="sans-serif" font-size="11" font-weight="bold" lengthAdjust="spacing" textLength="114.6245" x="154.0073" y="721.8589">[Caliptra FMC+RT]</text><line style="stroke:#181818;stroke-width:1;" x1="239.75" x2="281.75" y1="761.7188" y2="761.7188"/><line style="stroke:#181818;stroke-width:1;" x1="281.75" x2="281.75" y1="761.7188" y2="774.7188"/><line style="stroke:#181818;stroke-width:1;" x1="240.75" x2="281.75" y1="774.7188" y2="774.7188"/><polygon fill="#181818" points="250.75,770.7188,240.75,774.7188,250.75,778.7188,246.75,774.7188" style="stroke:#181818;stroke-width:1;"/><text fill="#000000" font-family="sans-serif" font-size="13" lengthAdjust="spacing" textLength="132.4629" x="246.75" y="741.52">CALIPTRA_FW_LOAD</text><text fill="#000000" font-family="sans-serif" font-size="13" lengthAdjust="spacing" textLength="121.2529" x="246.75" y="756.6528">Mailbox Command</text><line style="stroke:#000000;stroke-width:1;stroke-dasharray:2.0,2.0;" x1="149.0073" x2="417.2256" y1="783.7188" y2="783.7188"/><text fill="#000000" font-family="sans-serif" font-size="11" font-weight="bold" lengthAdjust="spacing" textLength="145.938" x="154.0073" y="793.9292">[MCU RT or SOC Image]</text><line style="stroke:#181818;stroke-width:1;" x1="239.75" x2="281.75" y1="818.6563" y2="818.6563"/><line style="stroke:#181818;stroke-width:1;" x1="281.75" x2="281.75" y1="818.6563" y2="831.6563"/><line style="stroke:#181818;stroke-width:1;" x1="240.75" x2="281.75" y1="831.6563" y2="831.6563"/><polygon fill="#181818" points="250.75,827.6563,240.75,831.6563,250.75,835.6563,246.75,831.6563" style="stroke:#181818;stroke-width:1;"/><text fill="#000000" font-family="sans-serif" font-size="13" lengthAdjust="spacing" textLength="140.4736" x="246.75" y="813.5903">Write to\Staging Area</text><polygon fill="#181818" points="67.5508,870.7891,57.5508,874.7891,67.5508,878.7891,63.5508,874.7891" style="stroke:#181818;stroke-width:1;"/><line style="stroke:#181818;stroke-width:1;" x1="61.5508" x2="238.75" y1="874.7891" y2="874.7891"/><text fill="#000000" font-family="sans-serif" font-size="13" lengthAdjust="spacing" textLength="120.9673" x="73.5508" y="869.7231">Transfer Complete</text><path d="M149.0073,889.7891 L213.4502,889.7891 L213.4502,896.9219 L203.4502,906.9219 L149.0073,906.9219 L149.0073,889.7891 " fill="#EEEEEE" style="stroke:#000000;stroke-width:1.5;"/><rect fill="#FFFFFF" fill-opacity="0.00000" height="146.4688" style="stroke:#000000;stroke-width:1.5;" width="270.8271" x="149.0073" y="889.7891"/><text fill="#000000" font-family="sans-serif" font-size="13" font-weight="bold" lengthAdjust="spacing" textLength="19.4429" x="164.0073" y="902.856">alt</text><text fill="#000000" font-family="sans-serif" font-size="11" font-weight="bold" lengthAdjust="spacing" textLength="93.2529" x="228.4502" y="901.9995">[SOC Manifest]</text><line style="stroke:#181818;stroke-width:1;" x1="239.75" x2="281.75" y1="943.1875" y2="943.1875"/><line style="stroke:#181818;stroke-width:1;" x1="281.75" x2="281.75" y1="943.1875" y2="956.1875"/><line style="stroke:#181818;stroke-width:1;" x1="240.75" x2="281.75" y1="956.1875" y2="956.1875"/><polygon fill="#181818" points="250.75,952.1875,240.75,956.1875,250.75,960.1875,246.75,956.1875" style="stroke:#181818;stroke-width:1;"/><text fill="#000000" font-family="sans-serif" font-size="13" lengthAdjust="spacing" textLength="139.0835" x="246.75" y="922.9888">SET_AUTH_MANIFEST</text><text fill="#000000" font-family="sans-serif" font-size="13" lengthAdjust="spacing" textLength="66.8154" x="246.75" y="938.1216">Command</text><line style="stroke:#000000;stroke-width:1;stroke-dasharray:2.0,2.0;" x1="149.0073" x2="419.8345" y1="965.1875" y2="965.1875"/><text fill="#000000" font-family="sans-serif" font-size="11" font-weight="bold" lengthAdjust="spacing" textLength="145.6157" x="154.0073" y="975.3979">[MCU RT or SOC image]</text><line style="stroke:#181818;stroke-width:1;" x1="239.75" x2="281.75" y1="1015.2578" y2="1015.2578"/><line style="stroke:#181818;stroke-width:1;" x1="281.75" x2="281.75" y1="1015.2578" y2="1028.2578"/><line style="stroke:#181818;stroke-width:1;" x1="240.75" x2="281.75" y1="1028.2578" y2="1028.2578"/><polygon fill="#181818" points="250.75,1024.2578,240.75,1028.2578,250.75,1032.2578,246.75,1028.2578" style="stroke:#181818;stroke-width:1;"/><text fill="#000000" font-family="sans-serif" font-size="13" lengthAdjust="spacing" textLength="161.0845" x="246.75" y="995.0591">AUTHORIZE_AND_STASH</text><text fill="#000000" font-family="sans-serif" font-size="13" lengthAdjust="spacing" textLength="66.8154" x="246.75" y="1010.1919">Command</text><polygon fill="#181818" points="67.5508,1060.3906,57.5508,1064.3906,67.5508,1068.3906,63.5508,1064.3906" style="stroke:#181818;stroke-width:1;"/><line style="stroke:#181818;stroke-width:1;" x1="61.5508" x2="238.75" y1="1064.3906" y2="1064.3906"/><text fill="#000000" font-family="sans-serif" font-size="13" lengthAdjust="spacing" textLength="100.769" x="73.5508" y="1059.3247">VerifyComplete</text><polygon fill="#181818" points="67.5508,1089.5234,57.5508,1093.5234,67.5508,1097.5234,63.5508,1093.5234" style="stroke:#181818;stroke-width:1;"/><line style="stroke:#181818;stroke-width:1;" x1="61.5508" x2="238.75" y1="1093.5234" y2="1093.5234"/><text fill="#000000" font-family="sans-serif" font-size="13" lengthAdjust="spacing" textLength="99.3535" x="73.5508" y="1088.4575">ApplyComplete</text><polygon fill="#181818" points="227.75,1125.6563,237.75,1129.6563,227.75,1133.6563,231.75,1129.6563" style="stroke:#181818;stroke-width:1;"/><line style="stroke:#181818;stroke-width:1;" x1="56.5508" x2="233.75" y1="1129.6563" y2="1129.6563"/><text fill="#000000" font-family="sans-serif" font-size="13" lengthAdjust="spacing" textLength="53.5044" x="63.5508" y="1124.5903">Activate</text><path d="M149.0073,1144.6563 L213.4502,1144.6563 L213.4502,1151.7891 L203.4502,1161.7891 L149.0073,1161.7891 L149.0073,1144.6563 " fill="#EEEEEE" style="stroke:#000000;stroke-width:1.5;"/><rect fill="#FFFFFF" fill-opacity="0.00000" height="74.3984" style="stroke:#000000;stroke-width:1.5;" width="244.9668" x="149.0073" y="1144.6563"/><text fill="#000000" font-family="sans-serif" font-size="13" font-weight="bold" lengthAdjust="spacing" textLength="19.4429" x="164.0073" y="1157.7231">alt</text><text fill="#000000" font-family="sans-serif" font-size="11" font-weight="bold" lengthAdjust="spacing" textLength="57.8091" x="228.4502" y="1156.8667">[MCU RT]</text><line style="stroke:#181818;stroke-width:1;" x1="239.75" x2="281.75" y1="1198.0547" y2="1198.0547"/><line style="stroke:#181818;stroke-width:1;" x1="281.75" x2="281.75" y1="1198.0547" y2="1211.0547"/><line style="stroke:#181818;stroke-width:1;" x1="240.75" x2="281.75" y1="1211.0547" y2="1211.0547"/><polygon fill="#181818" points="250.75,1207.0547,240.75,1211.0547,250.75,1215.0547,246.75,1211.0547" style="stroke:#181818;stroke-width:1;"/><text fill="#000000" font-family="sans-serif" font-size="13" lengthAdjust="spacing" textLength="135.2241" x="246.75" y="1177.856">Send Activate Image</text><text fill="#000000" font-family="sans-serif" font-size="13" lengthAdjust="spacing" textLength="121.2529" x="246.75" y="1192.9888">Mailbox Command</text><!--SRC=[VL9VRzem47_FfpZrQTFKBy139I_06ecKB0b3cf2YQt91bepjEOQkttvd0iNGhYzEvBlV_VwSlVIAO2xTxWKTmSfsw0ag-hCdtLAIM7HUjjAYzd1NBARv7U00uUUwT3j15Dcnax_NZSBQiM1jaYHytZ_mCO4rIW-zSQS1IQ3WKf5DuEUUtEkK3hAbh2FjPI_93GdNxXz2smJU5sFy3_9dUGKwt96_WNzGZV5bI6Fm9s57t57osUe1fS9dHISt0L9vzWmnOcIw6hNH9GtMw85pLiPOsBDy1QWKj6R71RO3KlS6B0u3TR6cWc_ISzD6Vta3DBBx6ZFUDBunakuWa9weG_9qu9mlr37TAFZ_XB7-IFi0dNdHoc37wj_7SCvzYXvZjgjxL1wgPGevQjapwBI0qFTzt_Vam1jsqgA2F5r1AVA4r42GefBMEuHvdduhwmYMYaLMrALevkjciHJJZSvvWy_cBx317Ufk772SLWC74-Yp7Muf6h9sadVlpOPNlPLw2y8H9Y7MADh8SkrG3q5j257n8qi-SrRDwaQiwiSc5q_PV5RL6_s9DdcZBI2NPVPxreYdQLFLedgyu8yI8s6_oCd-zQ8gAl5xLfVAnLQqAj5wUGYFF9WPLSKs0kRSCaRuGTYw-mS0]--></g></svg>