<svg xmlns="http://www.w3.org/2000/svg" xmlns:xlink="http://www.w3.org/1999/xlink" contentStyleType="text/css" data-diagram-type="SEQUENCE" height="1655px" preserveAspectRatio="none" style="width:1636px;height:1655px;background:#F9F9F9;" version="1.1" viewBox="0 0 1636 1655" width="1636px" zoomAndPan="magnify"><defs/><g><rect fill="#F9F9F9" height="1655" style="stroke:none;stroke-width:1;" width="1636" x="0" y="0"/><line style="stroke:#393939;stroke-width:0.5;stroke-dasharray:5.0,5.0;" x1="76.5381" x2="76.5381" y1="36.2969" y2="1619.4922"/><line style="stroke:#393939;stroke-width:0.5;stroke-dasharray:5.0,5.0;" x1="251.0918" x2="251.0918" y1="36.2969" y2="1619.4922"/><line style="stroke:#393939;stroke-width:0.5;stroke-dasharray:5.0,5.0;" x1="456.5562" x2="456.5562" y1="36.2969" y2="1619.4922"/><line style="stroke:#393939;stroke-width:0.5;stroke-dasharray:5.0,5.0;" x1="566.4976" x2="566.4976" y1="36.2969" y2="1619.4922"/><line style="stroke:#393939;stroke-width:0.5;stroke-dasharray:5.0,5.0;" x1="745.5771" x2="745.5771" y1="36.2969" y2="1619.4922"/><line style="stroke:#393939;stroke-width:0.5;stroke-dasharray:5.0,5.0;" x1="1039.0327" x2="1039.0327" y1="36.2969" y2="1619.4922"/><line style="stroke:#393939;stroke-width:0.5;stroke-dasharray:5.0,5.0;" x1="1200.1357" x2="1200.1357" y1="36.2969" y2="1619.4922"/><line style="stroke:#393939;stroke-width:0.5;stroke-dasharray:5.0,5.0;" x1="1357.1064" x2="1357.1064" y1="36.2969" y2="1619.4922"/><line style="stroke:#393939;stroke-width:0.5;stroke-dasharray:5.0,5.0;" x1="1415.1802" x2="1415.1802" y1="36.2969" y2="1619.4922"/><line style="stroke:#393939;stroke-width:0.5;stroke-dasharray:5.0,5.0;" x1="1555.793" x2="1555.793" y1="36.2969" y2="1619.4922"/><rect fill="#E55756" height="30.2969" rx="3.5" ry="3.5" style="stroke:#191919;stroke-width:1.5;" width="143.0762" x="5" y="5"/><text fill="#F9F9F9" font-family="sans-serif" font-size="14" lengthAdjust="spacing" textLength="129.0762" x="12" y="24.9951">SOC Configuration</text><rect fill="#E55756" height="30.2969" rx="3.5" ry="3.5" style="stroke:#191919;stroke-width:1.5;" width="68.8447" x="216.6694" y="5"/><text fill="#F9F9F9" font-family="sans-serif" font-size="14" lengthAdjust="spacing" textLength="54.8447" x="223.6694" y="24.9951">Caliptra</text><rect fill="#E55756" height="30.2969" rx="3.5" ry="3.5" style="stroke:#191919;stroke-width:1.5;" width="72.4131" x="420.3496" y="5"/><text fill="#F9F9F9" font-family="sans-serif" font-size="14" lengthAdjust="spacing" textLength="58.4131" x="427.3496" y="24.9951">SHA Acc</text><rect fill="#E55756" height="30.2969" rx="3.5" ry="3.5" style="stroke:#191919;stroke-width:1.5;" width="127.4697" x="502.7627" y="5"/><text fill="#F9F9F9" font-family="sans-serif" font-size="14" lengthAdjust="spacing" textLength="113.4697" x="509.7627" y="24.9951">Caliptra Mailbox</text><rect fill="#E55756" height="30.2969" rx="3.5" ry="3.5" style="stroke:#191919;stroke-width:1.5;" width="46.1016" x="722.5264" y="5"/><text fill="#F9F9F9" font-family="sans-serif" font-size="14" lengthAdjust="spacing" textLength="32.1016" x="729.5264" y="24.9951">MCU</text><rect fill="#E55756" height="30.2969" rx="3.5" ry="3.5" style="stroke:#191919;stroke-width:1.5;" width="90.8223" x="993.6216" y="5"/><text fill="#F9F9F9" font-family="sans-serif" font-size="14" lengthAdjust="spacing" textLength="76.8223" x="1000.6216" y="24.9951">MCU SRAM</text><rect fill="#E55756" height="30.2969" rx="3.5" ry="3.5" style="stroke:#191919;stroke-width:1.5;" width="100.8916" x="1149.6899" y="5"/><text fill="#F9F9F9" font-family="sans-serif" font-size="14" lengthAdjust="spacing" textLength="86.8916" x="1156.6899" y="24.9951">Recovery I/F</text><rect fill="#E55756" height="30.2969" rx="3.5" ry="3.5" style="stroke:#191919;stroke-width:1.5;" width="45.459" x="1334.377" y="5"/><text fill="#F9F9F9" font-family="sans-serif" font-size="14" lengthAdjust="spacing" textLength="31.459" x="1341.377" y="24.9951">BMC</text><rect fill="#E55756" height="30.2969" rx="3.5" ry="3.5" style="stroke:#191919;stroke-width:1.5;" width="50.6885" x="1389.8359" y="5"/><text fill="#F9F9F9" font-family="sans-serif" font-size="14" lengthAdjust="spacing" textLength="36.6885" x="1396.8359" y="24.9951">Flash</text><rect fill="#E55756" height="30.2969" rx="3.5" ry="3.5" style="stroke:#191919;stroke-width:1.5;" width="150.001" x="1480.7925" y="5"/><text fill="#F9F9F9" font-family="sans-serif" font-size="14" lengthAdjust="spacing" textLength="136.001" x="1487.7925" y="24.9951">Vendor Component</text><rect fill="#E55756" height="30.2969" rx="3.5" ry="3.5" style="stroke:#191919;stroke-width:1.5;" width="143.0762" x="5" y="1619.4922"/><text fill="#F9F9F9" font-family="sans-serif" font-size="14" lengthAdjust="spacing" textLength="129.0762" x="12" y="1639.4873">SOC Configuration</text><rect fill="#E55756" height="30.2969" rx="3.5" ry="3.5" style="stroke:#191919;stroke-width:1.5;" width="68.8447" x="216.6694" y="1619.4922"/><text fill="#F9F9F9" font-family="sans-serif" font-size="14" lengthAdjust="spacing" textLength="54.8447" x="223.6694" y="1639.4873">Caliptra</text><rect fill="#E55756" height="30.2969" rx="3.5" ry="3.5" style="stroke:#191919;stroke-width:1.5;" width="72.4131" x="420.3496" y="1619.4922"/><text fill="#F9F9F9" font-family="sans-serif" font-size="14" lengthAdjust="spacing" textLength="58.4131" x="427.3496" y="1639.4873">SHA Acc</text><rect fill="#E55756" height="30.2969" rx="3.5" ry="3.5" style="stroke:#191919;stroke-width:1.5;" width="127.4697" x="502.7627" y="1619.4922"/><text fill="#F9F9F9" font-family="sans-serif" font-size="14" lengthAdjust="spacing" textLength="113.4697" x="509.7627" y="1639.4873">Caliptra Mailbox</text><rect fill="#E55756" height="30.2969" rx="3.5" ry="3.5" style="stroke:#191919;stroke-width:1.5;" width="46.1016" x="722.5264" y="1619.4922"/><text fill="#F9F9F9" font-family="sans-serif" font-size="14" lengthAdjust="spacing" textLength="32.1016" x="729.5264" y="1639.4873">MCU</text><rect fill="#E55756" height="30.2969" rx="3.5" ry="3.5" style="stroke:#191919;stroke-width:1.5;" width="90.8223" x="993.6216" y="1619.4922"/><text fill="#F9F9F9" font-family="sans-serif" font-size="14" lengthAdjust="spacing" textLength="76.8223" x="1000.6216" y="1639.4873">MCU SRAM</text><rect fill="#E55756" height="30.2969" rx="3.5" ry="3.5" style="stroke:#191919;stroke-width:1.5;" width="100.8916" x="1149.6899" y="1619.4922"/><text fill="#F9F9F9" font-family="sans-serif" font-size="14" lengthAdjust="spacing" textLength="86.8916" x="1156.6899" y="1639.4873">Recovery I/F</text><rect fill="#E55756" height="30.2969" rx="3.5" ry="3.5" style="stroke:#191919;stroke-width:1.5;" width="45.459" x="1334.377" y="1619.4922"/><text fill="#F9F9F9" font-family="sans-serif" font-size="14" lengthAdjust="spacing" textLength="31.459" x="1341.377" y="1639.4873">BMC</text><rect fill="#E55756" height="30.2969" rx="3.5" ry="3.5" style="stroke:#191919;stroke-width:1.5;" width="50.6885" x="1389.8359" y="1619.4922"/><text fill="#F9F9F9" font-family="sans-serif" font-size="14" lengthAdjust="spacing" textLength="36.6885" x="1396.8359" y="1639.4873">Flash</text><rect fill="#E55756" height="30.2969" rx="3.5" ry="3.5" style="stroke:#191919;stroke-width:1.5;" width="150.001" x="1480.7925" y="1619.4922"/><text fill="#F9F9F9" font-family="sans-serif" font-size="14" lengthAdjust="spacing" textLength="136.001" x="1487.7925" y="1639.4873">Vendor Component</text><path d="M168.8284,52.7969 L168.8284,70.7969 A3.5,3.5 0 0 0 172.3284,74.2969 L329.3284,74.2969 A3.5,3.5 0 0 0 332.8284,70.7969 L332.8284,59.2969 L322.8284,49.2969 L172.3284,49.2969 A3.5,3.5 0 0 0 168.8284,52.7969 " fill="#E5E5E5" style="stroke:#191919;stroke-width:1.5;"/><path d="M322.8284,49.2969 L322.8284,57.5469 A1.75,1.75 0 0 0 324.5784,59.2969 L332.8284,59.2969 L322.8284,49.2969 " fill="#E5E5E5" style="stroke:#191919;stroke-width:1.5;"/><text fill="#191919" font-family="sans-serif" font-size="13" lengthAdjust="spacing" textLength="143.5269" x="174.8284" y="66.3638">Running Caliptra ROM</text><path d="M673.873,52.7969 L673.873,70.7969 A3.5,3.5 0 0 0 677.373,74.2969 L813.373,74.2969 A3.5,3.5 0 0 0 816.873,70.7969 L816.873,59.2969 L806.873,49.2969 L677.373,49.2969 A3.5,3.5 0 0 0 673.873,52.7969 " fill="#E5E5E5" style="stroke:#191919;stroke-width:1.5;"/><path d="M806.873,49.2969 L806.873,57.5469 A1.75,1.75 0 0 0 808.623,59.2969 L816.873,59.2969 L806.873,49.2969 " fill="#E5E5E5" style="stroke:#191919;stroke-width:1.5;"/><text fill="#191919" font-family="sans-serif" font-size="13" lengthAdjust="spacing" textLength="122.4082" x="679.873" y="66.3638">Running MCU ROM</text><polygon fill="#FF0000" points="239.0918,111.6953,249.0918,115.6953,239.0918,119.6953,243.0918,115.6953" style="stroke:#FF0000;stroke-width:1;"/><line style="stroke:#FF0000;stroke-width:1;" x1="76.5381" x2="245.0918" y1="115.6953" y2="115.6953"/><text fill="#000000" font-family="sans-serif" font-size="13" lengthAdjust="spacing" textLength="150.5537" x="83.5381" y="95.4966">1. Image Source Select</text><text fill="#000000" font-family="sans-serif" font-size="13" lengthAdjust="spacing" textLength="109.4526" x="83.5381" y="110.6294">(Flash/Recovery)</text><path d="M226.2085,132.1953 L226.2085,150.1953 A3.5,3.5 0 0 0 229.7085,153.6953 L1435.7085,153.6953 A3.5,3.5 0 0 0 1439.2085,150.1953 L1439.2085,138.6953 L1429.2085,128.6953 L229.7085,128.6953 A3.5,3.5 0 0 0 226.2085,132.1953 " fill="#E5E5E5" style="stroke:#191919;stroke-width:1.5;"/><path d="M1429.2085,128.6953 L1429.2085,136.9453 A1.75,1.75 0 0 0 1430.9585,138.6953 L1439.2085,138.6953 L1429.2085,128.6953 " fill="#E5E5E5" style="stroke:#191919;stroke-width:1.5;"/><text fill="#191919" font-family="sans-serif" font-size="13" lengthAdjust="spacing" textLength="243.5024" x="706.8848" y="145.7622">2. Authorize and Load Caliptra RT FW</text><path d="M155.0825,167.3281 L155.0825,185.3281 A3.5,3.5 0 0 0 158.5825,188.8281 L343.5825,188.8281 A3.5,3.5 0 0 0 347.0825,185.3281 L347.0825,173.8281 L337.0825,163.8281 L158.5825,163.8281 A3.5,3.5 0 0 0 155.0825,167.3281 " fill="#E5E5E5" style="stroke:#191919;stroke-width:1.5;"/><path d="M337.0825,163.8281 L337.0825,172.0781 A1.75,1.75 0 0 0 338.8325,173.8281 L347.0825,173.8281 L337.0825,163.8281 " fill="#E5E5E5" style="stroke:#191919;stroke-width:1.5;"/><text fill="#191919" font-family="sans-serif" font-size="13" lengthAdjust="spacing" textLength="171.0186" x="161.0825" y="180.895">3. Running Caliptra RT FW</text><path d="M238.5918,197.9609 L299.5347,197.9609 L299.5347,205.0938 L289.5347,215.0938 L235.0918,215.0938 L235.0918,201.4609 A3.5,3.5 0 0 1 238.5918,197.9609 " fill="#EEEEEE" style="stroke:#393939;stroke-width:1.5;"/><rect fill="none" height="174.4688" rx="3.5" ry="3.5" style="stroke:#393939;stroke-width:1;" width="1196.0884" x="235.0918" y="197.9609"/><text fill="#191919" font-family="sans-serif" font-size="13" font-weight="bold" lengthAdjust="spacing" textLength="19.4429" x="250.0918" y="211.0278">alt</text><text fill="#393939" font-family="sans-serif" font-size="11" font-weight="bold" lengthAdjust="spacing" textLength="37.458" x="314.5347" y="210.1714">[BMC]</text><line style="stroke:#393939;stroke-width:1;stroke-dasharray:2.0,2.0;" x1="235.0918" x2="1431.1802" y1="323.4922" y2="323.4922"/><text fill="#393939" font-family="sans-serif" font-size="11" font-weight="bold" lengthAdjust="spacing" textLength="43.1406" x="240.0918" y="335.7026">[Flash]</text><polygon fill="#FF0000" points="1188.1357,242.2266,1198.1357,246.2266,1188.1357,250.2266,1192.1357,246.2266" style="stroke:#FF0000;stroke-width:1;"/><line style="stroke:#FF0000;stroke-width:1;" x1="251.0918" x2="1194.1357" y1="246.2266" y2="246.2266"/><text fill="#000000" font-family="sans-serif" font-size="13" lengthAdjust="spacing" textLength="195.5967" x="258.0918" y="241.1606">4.1.1. Ready for SOC Manifest</text><polygon fill="#191919" points="1211.1357,271.3594,1201.1357,275.3594,1211.1357,279.3594,1207.1357,275.3594" style="stroke:#191919;stroke-width:1;"/><line style="stroke:#191919;stroke-width:1;" x1="1205.1357" x2="1356.1064" y1="275.3594" y2="275.3594"/><text fill="#000000" font-family="sans-serif" font-size="13" lengthAdjust="spacing" textLength="124.3823" x="1217.1357" y="270.2935">4.1.2 SOC Manifest</text><polygon fill="#FF0000" points="577.4976,300.4922,567.4976,304.4922,577.4976,308.4922,573.4976,304.4922" style="stroke:#FF0000;stroke-width:1;"/><line style="stroke:#FF0000;stroke-width:1;" x1="571.4976" x2="1199.1357" y1="304.4922" y2="304.4922"/><text fill="#000000" font-family="sans-serif" font-size="13" lengthAdjust="spacing" textLength="128.5146" x="583.4976" y="299.4263">4.1.3. SOC Manifest</text><polygon fill="#FF0000" points="577.4976,360.4297,567.4976,364.4297,577.4976,368.4297,573.4976,364.4297" style="stroke:#FF0000;stroke-width:1;"/><line style="stroke:#FF0000;stroke-width:1;" x1="571.4976" x2="1414.1802" y1="364.4297" y2="364.4297"/><text fill="#000000" font-family="sans-serif" font-size="13" lengthAdjust="spacing" textLength="128.5146" x="583.4976" y="359.3638">4.2.1. SOC Manifest</text><line style="stroke:#FF0000;stroke-width:1;" x1="251.0918" x2="293.0918" y1="407.5625" y2="407.5625"/><line style="stroke:#FF0000;stroke-width:1;" x1="293.0918" x2="293.0918" y1="407.5625" y2="420.5625"/><line style="stroke:#FF0000;stroke-width:1;" x1="252.0918" x2="293.0918" y1="420.5625" y2="420.5625"/><polygon fill="#FF0000" points="262.0918,416.5625,252.0918,420.5625,262.0918,424.5625,258.0918,420.5625" style="stroke:#FF0000;stroke-width:1;"/><text fill="#000000" font-family="sans-serif" font-size="13" lengthAdjust="spacing" textLength="191.4644" x="258.0918" y="402.4966">5. Authenticate SOC Manifest</text><path d="M238.5918,432.5625 L299.5347,432.5625 L299.5347,439.6953 L289.5347,449.6953 L235.0918,449.6953 L235.0918,436.0625 A3.5,3.5 0 0 1 238.5918,432.5625 " fill="#EEEEEE" style="stroke:#393939;stroke-width:1.5;"/><rect fill="none" height="174.4688" rx="3.5" ry="3.5" style="stroke:#393939;stroke-width:1;" width="1196.0884" x="235.0918" y="432.5625"/><text fill="#191919" font-family="sans-serif" font-size="13" font-weight="bold" lengthAdjust="spacing" textLength="19.4429" x="250.0918" y="445.6294">alt</text><text fill="#393939" font-family="sans-serif" font-size="11" font-weight="bold" lengthAdjust="spacing" textLength="37.458" x="314.5347" y="444.7729">[BMC]</text><line style="stroke:#393939;stroke-width:1;stroke-dasharray:2.0,2.0;" x1="235.0918" x2="1431.1802" y1="558.0938" y2="558.0938"/><text fill="#393939" font-family="sans-serif" font-size="11" font-weight="bold" lengthAdjust="spacing" textLength="43.1406" x="240.0918" y="570.3042">[Flash]</text><polygon fill="#FF0000" points="1188.1357,476.8281,1198.1357,480.8281,1188.1357,484.8281,1192.1357,480.8281" style="stroke:#FF0000;stroke-width:1;"/><line style="stroke:#FF0000;stroke-width:1;" x1="251.0918" x2="1194.1357" y1="480.8281" y2="480.8281"/><text fill="#000000" font-family="sans-serif" font-size="13" lengthAdjust="spacing" textLength="204.1851" x="258.0918" y="475.7622">6.1.1. Ready for MCU RT Image</text><polygon fill="#191919" points="1211.1357,505.9609,1201.1357,509.9609,1211.1357,513.9609,1207.1357,509.9609" style="stroke:#191919;stroke-width:1;"/><line style="stroke:#191919;stroke-width:1;" x1="1205.1357" x2="1356.1064" y1="509.9609" y2="509.9609"/><text fill="#000000" font-family="sans-serif" font-size="13" lengthAdjust="spacing" textLength="132.9707" x="1217.1357" y="504.895">5.1.2 MCU RT Image</text><polygon fill="#FF0000" points="1050.0327,535.0938,1040.0327,539.0938,1050.0327,543.0938,1046.0327,539.0938" style="stroke:#FF0000;stroke-width:1;"/><line style="stroke:#FF0000;stroke-width:1;" x1="1044.0327" x2="1199.1357" y1="539.0938" y2="539.0938"/><text fill="#000000" font-family="sans-serif" font-size="13" lengthAdjust="spacing" textLength="137.103" x="1056.0327" y="534.0278">6.1.3. MCU RT Image</text><polygon fill="#FF0000" points="1050.0327,595.0313,1040.0327,599.0313,1050.0327,603.0313,1046.0327,599.0313" style="stroke:#FF0000;stroke-width:1;"/><line style="stroke:#FF0000;stroke-width:1;" x1="1044.0327" x2="1414.1802" y1="599.0313" y2="599.0313"/><text fill="#000000" font-family="sans-serif" font-size="13" lengthAdjust="spacing" textLength="137.103" x="1056.0327" y="593.9653">6.2.1. MCU RT Image</text><polygon fill="#FF0000" points="467.5562,638.1641,457.5562,642.1641,467.5562,646.1641,463.5562,642.1641" style="stroke:#FF0000;stroke-width:1;"/><line style="stroke:#FF0000;stroke-width:1;" x1="461.5562" x2="1038.0327" y1="642.1641" y2="642.1641"/><text fill="#000000" font-family="sans-serif" font-size="13" lengthAdjust="spacing" textLength="124.7568" x="473.5562" y="637.0981">7. Hash MCU SRAM</text><line style="stroke:#FF0000;stroke-width:1;" x1="251.0918" x2="293.0918" y1="686.4297" y2="686.4297"/><line style="stroke:#FF0000;stroke-width:1;" x1="293.0918" x2="293.0918" y1="686.4297" y2="699.4297"/><line style="stroke:#FF0000;stroke-width:1;" x1="252.0918" x2="293.0918" y1="699.4297" y2="699.4297"/><polygon fill="#FF0000" points="262.0918,695.4297,252.0918,699.4297,262.0918,703.4297,258.0918,699.4297" style="stroke:#FF0000;stroke-width:1;"/><text fill="#000000" font-family="sans-serif" font-size="13" lengthAdjust="spacing" textLength="167.0957" x="258.0918" y="666.231">8. Compare SOC Manifest</text><text fill="#000000" font-family="sans-serif" font-size="13" lengthAdjust="spacing" textLength="146.6118" x="258.0918" y="681.3638">Hash vs SHA Acc Hash</text><line style="stroke:#FF0000;stroke-width:1;" x1="251.0918" x2="293.0918" y1="728.5625" y2="728.5625"/><line style="stroke:#FF0000;stroke-width:1;" x1="293.0918" x2="293.0918" y1="728.5625" y2="741.5625"/><line style="stroke:#FF0000;stroke-width:1;" x1="252.0918" x2="293.0918" y1="741.5625" y2="741.5625"/><polygon fill="#FF0000" points="262.0918,737.5625,252.0918,741.5625,262.0918,745.5625,258.0918,741.5625" style="stroke:#FF0000;stroke-width:1;"/><text fill="#000000" font-family="sans-serif" font-size="13" lengthAdjust="spacing" textLength="122.8716" x="258.0918" y="723.4966">9. Set EXEC/GO Bit</text><polygon fill="#FF0000" points="733.5771,766.6953,743.5771,770.6953,733.5771,774.6953,737.5771,770.6953" style="stroke:#FF0000;stroke-width:1;"/><line style="stroke:#FF0000;stroke-width:1;" x1="251.0918" x2="739.5771" y1="770.6953" y2="770.6953"/><text fill="#000000" font-family="sans-serif" font-size="13" lengthAdjust="spacing" textLength="98.5537" x="258.0918" y="765.6294">10. Go wire set</text><line style="stroke:#FF0000;stroke-width:1;" x1="745.5771" x2="787.5771" y1="799.8281" y2="799.8281"/><line style="stroke:#FF0000;stroke-width:1;" x1="787.5771" x2="787.5771" y1="799.8281" y2="812.8281"/><line style="stroke:#FF0000;stroke-width:1;" x1="746.5771" x2="787.5771" y1="812.8281" y2="812.8281"/><polygon fill="#FF0000" points="756.5771,808.8281,746.5771,812.8281,756.5771,816.8281,752.5771,812.8281" style="stroke:#FF0000;stroke-width:1;"/><text fill="#000000" font-family="sans-serif" font-size="13" lengthAdjust="spacing" textLength="169.1206" x="752.5771" y="794.7622">11. Detected GO Bit is set</text><line style="stroke:#FF0000;stroke-width:1;" x1="745.5771" x2="787.5771" y1="841.9609" y2="841.9609"/><line style="stroke:#FF0000;stroke-width:1;" x1="787.5771" x2="787.5771" y1="841.9609" y2="854.9609"/><line style="stroke:#FF0000;stroke-width:1;" x1="746.5771" x2="787.5771" y1="854.9609" y2="854.9609"/><polygon fill="#FF0000" points="756.5771,850.9609,746.5771,854.9609,756.5771,858.9609,752.5771,854.9609" style="stroke:#FF0000;stroke-width:1;"/><text fill="#000000" font-family="sans-serif" font-size="13" lengthAdjust="spacing" textLength="246.0288" x="752.5771" y="836.895">12. Set Image Select in HandOff table</text><path d="M668.2236,871.4609 L668.2236,889.4609 A3.5,3.5 0 0 0 671.7236,892.9609 L818.7236,892.9609 A3.5,3.5 0 0 0 822.2236,889.4609 L822.2236,877.9609 L812.2236,867.9609 L671.7236,867.9609 A3.5,3.5 0 0 0 668.2236,871.4609 " fill="#E5E5E5" style="stroke:#191919;stroke-width:1.5;"/><path d="M812.2236,867.9609 L812.2236,876.2109 A1.75,1.75 0 0 0 813.9736,877.9609 L822.2236,877.9609 L812.2236,867.9609 " fill="#E5E5E5" style="stroke:#191919;stroke-width:1.5;"/><text fill="#191919" font-family="sans-serif" font-size="13" lengthAdjust="spacing" textLength="133.707" x="674.2236" y="885.0278">13. Running MCU RT</text><line style="stroke:#0000FF;stroke-width:1;" x1="745.5771" x2="787.5771" y1="919.2266" y2="919.2266"/><line style="stroke:#0000FF;stroke-width:1;" x1="787.5771" x2="787.5771" y1="919.2266" y2="932.2266"/><line style="stroke:#0000FF;stroke-width:1;" x1="746.5771" x2="787.5771" y1="932.2266" y2="932.2266"/><polygon fill="#0000FF" points="756.5771,928.2266,746.5771,932.2266,756.5771,936.2266,752.5771,932.2266" style="stroke:#0000FF;stroke-width:1;"/><text fill="#000000" font-family="sans-serif" font-size="13" lengthAdjust="spacing" textLength="279.4556" x="752.5771" y="914.1606">14. Retrieve Image Select in HandOff table</text><path d="M710.0264,944.2266 L770.9692,944.2266 L770.9692,951.3594 L760.9692,961.3594 L706.5264,961.3594 L706.5264,947.7266 A3.5,3.5 0 0 1 710.0264,944.2266 " fill="#EEEEEE" style="stroke:#393939;stroke-width:1.5;"/><rect fill="none" height="180.4688" rx="3.5" ry="3.5" style="stroke:#393939;stroke-width:1;" width="724.6538" x="706.5264" y="944.2266"/><text fill="#191919" font-family="sans-serif" font-size="13" font-weight="bold" lengthAdjust="spacing" textLength="19.4429" x="721.5264" y="957.2935">alt</text><text fill="#393939" font-family="sans-serif" font-size="11" font-weight="bold" lengthAdjust="spacing" textLength="37.458" x="785.9692" y="956.437">[BMC]</text><line style="stroke:#393939;stroke-width:1;stroke-dasharray:2.0,2.0;" x1="706.5264" x2="1431.1802" y1="1075.7578" y2="1075.7578"/><text fill="#393939" font-family="sans-serif" font-size="11" font-weight="bold" lengthAdjust="spacing" textLength="43.1406" x="711.5264" y="1087.9683">[Flash]</text><path d="M727.687,979.8594 L727.687,997.8594 A3.5,3.5 0 0 0 731.187,1001.3594 L1371.187,1001.3594 A3.5,3.5 0 0 0 1374.687,997.8594 L1374.687,986.3594 L1364.687,976.3594 L731.187,976.3594 A3.5,3.5 0 0 0 727.687,979.8594 " fill="#E5E5E5" style="stroke:#191919;stroke-width:1.5;"/><path d="M1364.687,976.3594 L1364.687,984.6094 A1.75,1.75 0 0 0 1366.437,986.3594 L1374.687,986.3594 L1364.687,976.3594 " fill="#E5E5E5" style="stroke:#191919;stroke-width:1.5;"/><text fill="#191919" font-family="sans-serif" font-size="13" lengthAdjust="spacing" textLength="169.0381" x="962.3228" y="993.4263">15.1.1 MCTP enumeration</text><polygon fill="#191919" points="1211.1357,1023.625,1201.1357,1027.625,1211.1357,1031.625,1207.1357,1027.625" style="stroke:#191919;stroke-width:1;"/><line style="stroke:#191919;stroke-width:1;" x1="1205.1357" x2="1356.1064" y1="1027.625" y2="1027.625"/><text fill="#000000" font-family="sans-serif" font-size="13" lengthAdjust="spacing" textLength="132.6533" x="1217.1357" y="1022.5591">15.1.2 SOC Manifest</text><polygon fill="#0000FF" points="1050.0327,1052.7578,1040.0327,1056.7578,1050.0327,1060.7578,1046.0327,1056.7578" style="stroke:#0000FF;stroke-width:1;"/><line style="stroke:#0000FF;stroke-width:1;" x1="1044.0327" x2="1199.1357" y1="1056.7578" y2="1056.7578"/><text fill="#000000" font-family="sans-serif" font-size="13" lengthAdjust="spacing" textLength="132.6533" x="1056.0327" y="1051.6919">15.1.3 SOC Manifest</text><polygon fill="#0000FF" points="1050.0327,1112.6953,1040.0327,1116.6953,1050.0327,1120.6953,1046.0327,1116.6953" style="stroke:#0000FF;stroke-width:1;"/><line style="stroke:#0000FF;stroke-width:1;" x1="1044.0327" x2="1414.1802" y1="1116.6953" y2="1116.6953"/><text fill="#000000" font-family="sans-serif" font-size="13" lengthAdjust="spacing" textLength="247.6221" x="1056.0327" y="1111.6294">15.2.1 Get Image Metadata Collection</text><path d="M238.5918,1142.6953 L311.7158,1142.6953 L311.7158,1149.8281 L301.7158,1159.8281 L235.0918,1159.8281 L235.0918,1146.1953 A3.5,3.5 0 0 1 238.5918,1142.6953 " fill="#EEEEEE" style="stroke:#393939;stroke-width:1.5;"/><rect fill="none" height="452.7969" rx="3.5" ry="3.5" style="stroke:#393939;stroke-width:1;" width="1361.7012" x="235.0918" y="1142.6953"/><text fill="#191919" font-family="sans-serif" font-size="13" font-weight="bold" lengthAdjust="spacing" textLength="31.624" x="250.0918" y="1155.7622">loop</text><text fill="#393939" font-family="sans-serif" font-size="11" font-weight="bold" lengthAdjust="spacing" textLength="137.3335" x="326.7158" y="1154.9058">[for every SOC image]</text><path d="M444.0562,1173.8281 L504.999,1173.8281 L504.999,1180.9609 L494.999,1190.9609 L440.5562,1190.9609 L440.5562,1177.3281 A3.5,3.5 0 0 1 444.0562,1173.8281 " fill="#EEEEEE" style="stroke:#393939;stroke-width:1.5;"/><rect fill="none" height="174.4688" rx="3.5" ry="3.5" style="stroke:#393939;stroke-width:1;" width="1131.2368" x="440.5562" y="1173.8281"/><text fill="#191919" font-family="sans-serif" font-size="13" font-weight="bold" lengthAdjust="spacing" textLength="19.4429" x="455.5562" y="1186.895">alt</text><text fill="#393939" font-family="sans-serif" font-size="11" font-weight="bold" lengthAdjust="spacing" textLength="37.458" x="519.999" y="1186.0386">[BMC]</text><line style="stroke:#393939;stroke-width:1;stroke-dasharray:2.0,2.0;" x1="440.5562" x2="1571.793" y1="1270.2266" y2="1270.2266"/><text fill="#393939" font-family="sans-serif" font-size="11" font-weight="bold" lengthAdjust="spacing" textLength="43.1406" x="445.5562" y="1282.437">[Flash]</text><polygon fill="#191919" points="1211.1357,1218.0938,1201.1357,1222.0938,1211.1357,1226.0938,1207.1357,1222.0938" style="stroke:#191919;stroke-width:1;"/><line style="stroke:#191919;stroke-width:1;" x1="1205.1357" x2="1356.1064" y1="1222.0938" y2="1222.0938"/><text fill="#000000" font-family="sans-serif" font-size="13" lengthAdjust="spacing" textLength="116.6128" x="1217.1357" y="1217.0278">16.1.1. Image/Cfg</text><polygon fill="#191919" points="467.5562,1247.2266,457.5562,1251.2266,467.5562,1255.2266,463.5562,1251.2266" style="stroke:#191919;stroke-width:1;"/><line style="stroke:#191919;stroke-width:1;" x1="461.5562" x2="1199.1357" y1="1251.2266" y2="1251.2266"/><text fill="#000000" font-family="sans-serif" font-size="13" lengthAdjust="spacing" textLength="116.6128" x="473.5562" y="1246.1606">16.1.2. Image/Cfg</text><polygon fill="#191919" points="1543.793,1247.2266,1553.793,1251.2266,1543.793,1255.2266,1547.793,1251.2266" style="stroke:#191919;stroke-width:1;"/><line style="stroke:#191919;stroke-width:1;" x1="1200.1357" x2="1549.793" y1="1251.2266" y2="1251.2266"/><text fill="#000000" font-family="sans-serif" font-size="13" lengthAdjust="spacing" textLength="116.6128" x="1207.1357" y="1246.1606">16.1.2. Image/Cfg</text><polygon fill="#0000FF" points="1543.793,1307.1641,1553.793,1311.1641,1543.793,1315.1641,1547.793,1311.1641" style="stroke:#0000FF;stroke-width:1;"/><line style="stroke:#0000FF;stroke-width:1;" x1="1415.1802" x2="1549.793" y1="1311.1641" y2="1311.1641"/><text fill="#000000" font-family="sans-serif" font-size="13" lengthAdjust="spacing" textLength="116.6128" x="1422.1802" y="1306.0981">16.2.1. Image/Cfg</text><polygon fill="#0000FF" points="467.5562,1336.2969,457.5562,1340.2969,467.5562,1344.2969,463.5562,1340.2969" style="stroke:#0000FF;stroke-width:1;"/><line style="stroke:#0000FF;stroke-width:1;" x1="461.5562" x2="1554.793" y1="1340.2969" y2="1340.2969"/><text fill="#000000" font-family="sans-serif" font-size="13" lengthAdjust="spacing" textLength="116.6128" x="473.5562" y="1335.231">16.2.2. Image/Cfg</text><polygon fill="#0000FF" points="577.4976,1379.4297,567.4976,1383.4297,577.4976,1387.4297,573.4976,1383.4297" style="stroke:#0000FF;stroke-width:1;"/><line style="stroke:#0000FF;stroke-width:1;" x1="571.4976" x2="744.5771" y1="1383.4297" y2="1383.4297"/><text fill="#000000" font-family="sans-serif" font-size="13" lengthAdjust="spacing" textLength="155.0796" x="583.4976" y="1378.3638">17. authorize(image_id)</text><line style="stroke:#FF0000;stroke-width:1;" x1="251.0918" x2="293.0918" y1="1442.8281" y2="1442.8281"/><line style="stroke:#FF0000;stroke-width:1;" x1="293.0918" x2="293.0918" y1="1442.8281" y2="1455.8281"/><line style="stroke:#FF0000;stroke-width:1;" x1="252.0918" x2="293.0918" y1="1455.8281" y2="1455.8281"/><polygon fill="#FF0000" points="262.0918,1451.8281,252.0918,1455.8281,262.0918,1459.8281,258.0918,1455.8281" style="stroke:#FF0000;stroke-width:1;"/><text fill="#000000" font-family="sans-serif" font-size="13" lengthAdjust="spacing" textLength="174.167" x="258.0918" y="1407.4966">18. Verify Hash in SHA Acc</text><text fill="#000000" font-family="sans-serif" font-size="13" lengthAdjust="spacing" textLength="155.7715" x="258.0918" y="1422.6294">with SOC Manifest Hash</text><text fill="#000000" font-family="sans-serif" font-size="13" lengthAdjust="spacing" textLength="80.8628" x="262.2241" y="1437.7622">for image_id</text><polygon fill="#FF0000" points="554.4976,1480.9609,564.4976,1484.9609,554.4976,1488.9609,558.4976,1484.9609" style="stroke:#FF0000;stroke-width:1;"/><line style="stroke:#FF0000;stroke-width:1;" x1="251.0918" x2="560.4976" y1="1484.9609" y2="1484.9609"/><text fill="#000000" font-family="sans-serif" font-size="13" lengthAdjust="spacing" textLength="123.7412" x="258.0918" y="1479.895">19. Return success</text><polygon fill="#0000FF" points="733.5771,1510.0938,743.5771,1514.0938,733.5771,1518.0938,737.5771,1514.0938" style="stroke:#0000FF;stroke-width:1;"/><line style="stroke:#0000FF;stroke-width:1;" x1="566.4976" x2="739.5771" y1="1514.0938" y2="1514.0938"/><text fill="#000000" font-family="sans-serif" font-size="13" lengthAdjust="spacing" textLength="77.1367" x="573.4976" y="1509.0278">20. Success</text><polygon fill="#0000FF" points="262.0918,1554.3594,252.0918,1558.3594,262.0918,1562.3594,258.0918,1558.3594" style="stroke:#0000FF;stroke-width:1;"/><line style="stroke:#0000FF;stroke-width:1;" x1="256.0918" x2="744.5771" y1="1558.3594" y2="1558.3594"/><text fill="#000000" font-family="sans-serif" font-size="13" lengthAdjust="spacing" textLength="223.2026" x="268.0918" y="1538.1606">21. Set EXEC/Go Bit of component</text><text fill="#000000" font-family="sans-serif" font-size="13" lengthAdjust="spacing" textLength="173.5322" x="268.0918" y="1553.2935">corresponding to image_id</text><polygon fill="#FF0000" points="1543.793,1583.4922,1553.793,1587.4922,1543.793,1591.4922,1547.793,1587.4922" style="stroke:#FF0000;stroke-width:1;"/><line style="stroke:#FF0000;stroke-width:1;" x1="251.0918" x2="1549.793" y1="1587.4922" y2="1587.4922"/><text fill="#000000" font-family="sans-serif" font-size="13" lengthAdjust="spacing" textLength="98.5537" x="258.0918" y="1582.4263">22. Go wire set</text><!--SRC=[ZLNlJzim4FsUl-9WqWGIj4k0RVJ3f9BnIrhLgGKsQPsGIIx5KcfNZWE3ltxs9KxgDdHJfJRElJlVFR_dxkX7N20ic2g29LEQ9tp9X8RTwJY6M8gCpql5D9TY5rXHl_6HCSlvKYjM0Uh5Mh6h8GoJX13ckJiVHepd3_8FeUfd7pcARwjWVBiHWEbaE7BHUxlm8HDCv1Eg5xZkNn3ClV1XPwEOekRN3rpah7Ya43tvmJiKgLI6dSLI2XIQS8bR1O6G6i7krl0pW4af11VpvWrCngEW3otKpD6Yx8GM45GdSFZhdSBqzvUsNDY3wmMR8qnbgHBpWpacUYRsgDs-ctQ_evS3WWmWwi6mr8zIyLS49bBu9bcwqjyDNFpe7EMerp4DeGEMQ-BIlNUDktu6SDmBpSSS1qjV83CiMkMDcE0P5ZemkOThuCX7kA2hN2kdmfhEF33c1TO7IDyTIP7jnayIQR0nG3lzIKMREMYUC4EEb_iV17nS9u3E-gOwpdK2JeW03x51GAt_gh9Xm4E_oS1A5b7WPraA7CIb62SFu5CFhamPS1RSGjJd7Zc4APyZc0cgy4HtWxqdgEAMGgVcW533-S_pk7yvXZEkDy1adl133oubF7EpOu7Q3k37pPXVKHkVO0fL8U15DpIgzgmzHkO2Baod8Xrd6MZsa6EmPjvmnHWLdK5T-24lqLK-jcUl5SSd_4VvLatUHWVcZQbZfH6QzSrtG54kiBgsrmKKdcorKDDOBGQ27_tJH1rfHaHmsJ0sGirIffbHG6w7ivsHg89SoYN97kbwjZjnqfoRTMUfs7p1GADy1QtA3K-4jODeftwSpTk1AeqI85e5l8SMqjpJNS2tX_NJ8h-19jZ0NIEHNzzou4d2NKIXCHPpj_4UCNBFq_qjhWYDl-vGyUobSgIHZ_FJJ3np_UYxpc9cWfXtrJTTr7HpIY8jbO2YJ18iYg2E-MAEZEEc3h0oLjjb5AwQLvBdPDR-MSv48fN2mgnIwnijtsvlvGYYoBUwuHMiilu2]--></g></svg>