<svg xmlns="http://www.w3.org/2000/svg" xmlns:xlink="http://www.w3.org/1999/xlink" contentStyleType="text/css" data-diagram-type="SEQUENCE" height="1597px" preserveAspectRatio="none" style="width:1619px;height:1597px;background:#F9F9F9;" version="1.1" viewBox="0 0 1619 1597" width="1619px" zoomAndPan="magnify"><defs/><g><rect fill="#F9F9F9" height="1597" style="stroke:none;stroke-width:1;" width="1619" x="0" y="0"/><line style="stroke:#393939;stroke-width:0.5;stroke-dasharray:5.0,5.0;" x1="106.0093" x2="106.0093" y1="36.2969" y2="1561.2266"/><line style="stroke:#393939;stroke-width:0.5;stroke-dasharray:5.0,5.0;" x1="311.4736" x2="311.4736" y1="36.2969" y2="1561.2266"/><line style="stroke:#393939;stroke-width:0.5;stroke-dasharray:5.0,5.0;" x1="421.415" x2="421.415" y1="36.2969" y2="1561.2266"/><line style="stroke:#393939;stroke-width:0.5;stroke-dasharray:5.0,5.0;" x1="600.4946" x2="600.4946" y1="36.2969" y2="1561.2266"/><line style="stroke:#393939;stroke-width:0.5;stroke-dasharray:5.0,5.0;" x1="893.9502" x2="893.9502" y1="36.2969" y2="1561.2266"/><line style="stroke:#393939;stroke-width:0.5;stroke-dasharray:5.0,5.0;" x1="1020.8994" x2="1020.8994" y1="36.2969" y2="1561.2266"/><line style="stroke:#393939;stroke-width:0.5;stroke-dasharray:5.0,5.0;" x1="1165.4668" x2="1165.4668" y1="36.2969" y2="1561.2266"/><line style="stroke:#393939;stroke-width:0.5;stroke-dasharray:5.0,5.0;" x1="1352.6338" x2="1352.6338" y1="36.2969" y2="1561.2266"/><line style="stroke:#393939;stroke-width:0.5;stroke-dasharray:5.0,5.0;" x1="1410.7075" x2="1410.7075" y1="36.2969" y2="1561.2266"/><line style="stroke:#393939;stroke-width:0.5;stroke-dasharray:5.0,5.0;" x1="1538.917" x2="1538.917" y1="36.2969" y2="1561.2266"/><rect fill="#E55756" height="30.2969" rx="3.5" ry="3.5" style="stroke:#191919;stroke-width:1.5;" width="68.8447" x="71.5869" y="5"/><text fill="#F9F9F9" font-family="sans-serif" font-size="14" lengthAdjust="spacing" textLength="54.8447" x="78.5869" y="24.9951">Caliptra</text><rect fill="#E55756" height="30.2969" rx="3.5" ry="3.5" style="stroke:#191919;stroke-width:1.5;" width="72.4131" x="275.2671" y="5"/><text fill="#F9F9F9" font-family="sans-serif" font-size="14" lengthAdjust="spacing" textLength="58.4131" x="282.2671" y="24.9951">SHA Acc</text><rect fill="#E55756" height="30.2969" rx="3.5" ry="3.5" style="stroke:#191919;stroke-width:1.5;" width="127.4697" x="357.6802" y="5"/><text fill="#F9F9F9" font-family="sans-serif" font-size="14" lengthAdjust="spacing" textLength="113.4697" x="364.6802" y="24.9951">Caliptra Mailbox</text><rect fill="#E55756" height="30.2969" rx="3.5" ry="3.5" style="stroke:#191919;stroke-width:1.5;" width="46.1016" x="577.4438" y="5"/><text fill="#F9F9F9" font-family="sans-serif" font-size="14" lengthAdjust="spacing" textLength="32.1016" x="584.4438" y="24.9951">MCU</text><rect fill="#E55756" height="30.2969" rx="3.5" ry="3.5" style="stroke:#191919;stroke-width:1.5;" width="143.0762" x="822.4121" y="5"/><text fill="#F9F9F9" font-family="sans-serif" font-size="14" lengthAdjust="spacing" textLength="129.0762" x="829.4121" y="24.9951">SOC Configuration</text><rect fill="#E55756" height="30.2969" rx="3.5" ry="3.5" style="stroke:#191919;stroke-width:1.5;" width="90.8223" x="975.4883" y="5"/><text fill="#F9F9F9" font-family="sans-serif" font-size="14" lengthAdjust="spacing" textLength="76.8223" x="982.4883" y="24.9951">MCU SRAM</text><rect fill="#E55756" height="30.2969" rx="3.5" ry="3.5" style="stroke:#191919;stroke-width:1.5;" width="100.8916" x="1115.021" y="5"/><text fill="#F9F9F9" font-family="sans-serif" font-size="14" lengthAdjust="spacing" textLength="86.8916" x="1122.021" y="24.9951">Recovery I/F</text><rect fill="#E55756" height="30.2969" rx="3.5" ry="3.5" style="stroke:#191919;stroke-width:1.5;" width="45.459" x="1329.9043" y="5"/><text fill="#F9F9F9" font-family="sans-serif" font-size="14" lengthAdjust="spacing" textLength="31.459" x="1336.9043" y="24.9951">BMC</text><rect fill="#E55756" height="30.2969" rx="3.5" ry="3.5" style="stroke:#191919;stroke-width:1.5;" width="50.6885" x="1385.3633" y="5"/><text fill="#F9F9F9" font-family="sans-serif" font-size="14" lengthAdjust="spacing" textLength="36.6885" x="1392.3633" y="24.9951">Flash</text><rect fill="#E55756" height="30.2969" rx="3.5" ry="3.5" style="stroke:#191919;stroke-width:1.5;" width="150.001" x="1463.9165" y="5"/><text fill="#F9F9F9" font-family="sans-serif" font-size="14" lengthAdjust="spacing" textLength="136.001" x="1470.9165" y="24.9951">Vendor Component</text><rect fill="#E55756" height="30.2969" rx="3.5" ry="3.5" style="stroke:#191919;stroke-width:1.5;" width="68.8447" x="71.5869" y="1561.2266"/><text fill="#F9F9F9" font-family="sans-serif" font-size="14" lengthAdjust="spacing" textLength="54.8447" x="78.5869" y="1581.2217">Caliptra</text><rect fill="#E55756" height="30.2969" rx="3.5" ry="3.5" style="stroke:#191919;stroke-width:1.5;" width="72.4131" x="275.2671" y="1561.2266"/><text fill="#F9F9F9" font-family="sans-serif" font-size="14" lengthAdjust="spacing" textLength="58.4131" x="282.2671" y="1581.2217">SHA Acc</text><rect fill="#E55756" height="30.2969" rx="3.5" ry="3.5" style="stroke:#191919;stroke-width:1.5;" width="127.4697" x="357.6802" y="1561.2266"/><text fill="#F9F9F9" font-family="sans-serif" font-size="14" lengthAdjust="spacing" textLength="113.4697" x="364.6802" y="1581.2217">Caliptra Mailbox</text><rect fill="#E55756" height="30.2969" rx="3.5" ry="3.5" style="stroke:#191919;stroke-width:1.5;" width="46.1016" x="577.4438" y="1561.2266"/><text fill="#F9F9F9" font-family="sans-serif" font-size="14" lengthAdjust="spacing" textLength="32.1016" x="584.4438" y="1581.2217">MCU</text><rect fill="#E55756" height="30.2969" rx="3.5" ry="3.5" style="stroke:#191919;stroke-width:1.5;" width="143.0762" x="822.4121" y="1561.2266"/><text fill="#F9F9F9" font-family="sans-serif" font-size="14" lengthAdjust="spacing" textLength="129.0762" x="829.4121" y="1581.2217">SOC Configuration</text><rect fill="#E55756" height="30.2969" rx="3.5" ry="3.5" style="stroke:#191919;stroke-width:1.5;" width="90.8223" x="975.4883" y="1561.2266"/><text fill="#F9F9F9" font-family="sans-serif" font-size="14" lengthAdjust="spacing" textLength="76.8223" x="982.4883" y="1581.2217">MCU SRAM</text><rect fill="#E55756" height="30.2969" rx="3.5" ry="3.5" style="stroke:#191919;stroke-width:1.5;" width="100.8916" x="1115.021" y="1561.2266"/><text fill="#F9F9F9" font-family="sans-serif" font-size="14" lengthAdjust="spacing" textLength="86.8916" x="1122.021" y="1581.2217">Recovery I/F</text><rect fill="#E55756" height="30.2969" rx="3.5" ry="3.5" style="stroke:#191919;stroke-width:1.5;" width="45.459" x="1329.9043" y="1561.2266"/><text fill="#F9F9F9" font-family="sans-serif" font-size="14" lengthAdjust="spacing" textLength="31.459" x="1336.9043" y="1581.2217">BMC</text><rect fill="#E55756" height="30.2969" rx="3.5" ry="3.5" style="stroke:#191919;stroke-width:1.5;" width="50.6885" x="1385.3633" y="1561.2266"/><text fill="#F9F9F9" font-family="sans-serif" font-size="14" lengthAdjust="spacing" textLength="36.6885" x="1392.3633" y="1581.2217">Flash</text><rect fill="#E55756" height="30.2969" rx="3.5" ry="3.5" style="stroke:#191919;stroke-width:1.5;" width="150.001" x="1463.9165" y="1561.2266"/><text fill="#F9F9F9" font-family="sans-serif" font-size="14" lengthAdjust="spacing" textLength="136.001" x="1470.9165" y="1581.2217">Vendor Component</text><path d="M23.7458,52.7969 L23.7458,70.7969 A3.5,3.5 0 0 0 27.2458,74.2969 L184.2458,74.2969 A3.5,3.5 0 0 0 187.7458,70.7969 L187.7458,59.2969 L177.7458,49.2969 L27.2458,49.2969 A3.5,3.5 0 0 0 23.7458,52.7969 " fill="#E5E5E5" style="stroke:#191919;stroke-width:1.5;"/><path d="M177.7458,49.2969 L177.7458,57.5469 A1.75,1.75 0 0 0 179.4958,59.2969 L187.7458,59.2969 L177.7458,49.2969 " fill="#E5E5E5" style="stroke:#191919;stroke-width:1.5;"/><text fill="#191919" font-family="sans-serif" font-size="13" lengthAdjust="spacing" textLength="143.5269" x="29.7458" y="66.3638">Running Caliptra ROM</text><path d="M528.7905,52.7969 L528.7905,70.7969 A3.5,3.5 0 0 0 532.2905,74.2969 L668.2905,74.2969 A3.5,3.5 0 0 0 671.7905,70.7969 L671.7905,59.2969 L661.7905,49.2969 L532.2905,49.2969 A3.5,3.5 0 0 0 528.7905,52.7969 " fill="#E5E5E5" style="stroke:#191919;stroke-width:1.5;"/><path d="M661.7905,49.2969 L661.7905,57.5469 A1.75,1.75 0 0 0 663.5405,59.2969 L671.7905,59.2969 L661.7905,49.2969 " fill="#E5E5E5" style="stroke:#191919;stroke-width:1.5;"/><text fill="#191919" font-family="sans-serif" font-size="13" lengthAdjust="spacing" textLength="122.4082" x="534.7905" y="66.3638">Running MCU ROM</text><polygon fill="#800080" points="611.4946,111.6953,601.4946,115.6953,611.4946,119.6953,607.4946,115.6953" style="stroke:#800080;stroke-width:1;"/><line style="stroke:#800080;stroke-width:1;" x1="605.4946" x2="892.9502" y1="115.6953" y2="115.6953"/><text fill="#000000" font-family="sans-serif" font-size="13" lengthAdjust="spacing" textLength="150.5537" x="617.4946" y="95.4966">1. Image Source Select</text><text fill="#000000" font-family="sans-serif" font-size="13" lengthAdjust="spacing" textLength="77.8032" x="617.4946" y="110.6294">(Flash/BMC)</text><path d="M81.126,132.1953 L81.126,150.1953 A3.5,3.5 0 0 0 84.626,153.6953 L1431.626,153.6953 A3.5,3.5 0 0 0 1435.126,150.1953 L1435.126,138.6953 L1425.126,128.6953 L84.626,128.6953 A3.5,3.5 0 0 0 81.126,132.1953 " fill="#E5E5E5" style="stroke:#191919;stroke-width:1.5;"/><path d="M1425.126,128.6953 L1425.126,136.9453 A1.75,1.75 0 0 0 1426.876,138.6953 L1435.126,138.6953 L1425.126,128.6953 " fill="#E5E5E5" style="stroke:#191919;stroke-width:1.5;"/><text fill="#191919" font-family="sans-serif" font-size="13" lengthAdjust="spacing" textLength="243.5024" x="632.1072" y="145.7622">2. Authorize and Load Caliptra RT FW</text><path d="M10,167.3281 L10,185.3281 A3.5,3.5 0 0 0 13.5,188.8281 L198.5,188.8281 A3.5,3.5 0 0 0 202,185.3281 L202,173.8281 L192,163.8281 L13.5,163.8281 A3.5,3.5 0 0 0 10,167.3281 " fill="#E5E5E5" style="stroke:#191919;stroke-width:1.5;"/><path d="M192,163.8281 L192,172.0781 A1.75,1.75 0 0 0 193.75,173.8281 L202,173.8281 L192,163.8281 " fill="#E5E5E5" style="stroke:#191919;stroke-width:1.5;"/><text fill="#191919" font-family="sans-serif" font-size="13" lengthAdjust="spacing" textLength="171.0186" x="16" y="180.895">3. Running Caliptra RT FW</text><polygon fill="#FF0000" points="1153.4668,211.0938,1163.4668,215.0938,1153.4668,219.0938,1157.4668,215.0938" style="stroke:#FF0000;stroke-width:1;"/><line style="stroke:#FF0000;stroke-width:1;" x1="106.0093" x2="1159.4668" y1="215.0938" y2="215.0938"/><text fill="#000000" font-family="sans-serif" font-size="13" lengthAdjust="spacing" textLength="170.79" x="113.0093" y="210.0278">4. Ready for SOC Manifest</text><path d="M1152.9668,227.0938 L1213.9097,227.0938 L1213.9097,234.2266 L1203.9097,244.2266 L1149.4668,244.2266 L1149.4668,230.5938 A3.5,3.5 0 0 1 1152.9668,227.0938 " fill="#EEEEEE" style="stroke:#393939;stroke-width:1.5;"/><rect fill="none" height="116.2031" rx="3.5" ry="3.5" style="stroke:#393939;stroke-width:1;" width="277.2407" x="1149.4668" y="227.0938"/><text fill="#191919" font-family="sans-serif" font-size="13" font-weight="bold" lengthAdjust="spacing" textLength="19.4429" x="1164.4668" y="240.1606">alt</text><text fill="#393939" font-family="sans-serif" font-size="11" font-weight="bold" lengthAdjust="spacing" textLength="37.458" x="1228.9097" y="239.3042">[BMC]</text><line style="stroke:#393939;stroke-width:1;stroke-dasharray:2.0,2.0;" x1="1149.4668" x2="1426.7075" y1="294.3594" y2="294.3594"/><text fill="#393939" font-family="sans-serif" font-size="11" font-weight="bold" lengthAdjust="spacing" textLength="43.1406" x="1154.4668" y="306.5698">[Flash]</text><polygon fill="#191919" points="1176.4668,271.3594,1166.4668,275.3594,1176.4668,279.3594,1172.4668,275.3594" style="stroke:#191919;stroke-width:1;"/><line style="stroke:#191919;stroke-width:1;" x1="1170.4668" x2="1351.6338" y1="275.3594" y2="275.3594"/><text fill="#000000" font-family="sans-serif" font-size="13" lengthAdjust="spacing" textLength="116.1113" x="1182.4668" y="270.2935">5.1. SOC Manifest</text><polygon fill="#800080" points="1176.4668,331.2969,1166.4668,335.2969,1176.4668,339.2969,1172.4668,335.2969" style="stroke:#800080;stroke-width:1;"/><line style="stroke:#800080;stroke-width:1;" x1="1170.4668" x2="1409.7075" y1="335.2969" y2="335.2969"/><text fill="#000000" font-family="sans-serif" font-size="13" lengthAdjust="spacing" textLength="116.1113" x="1182.4668" y="330.231">5.2. SOC Manifest</text><polygon fill="#FF0000" points="432.415,374.4297,422.415,378.4297,432.415,382.4297,428.415,378.4297" style="stroke:#FF0000;stroke-width:1;"/><line style="stroke:#FF0000;stroke-width:1;" x1="426.415" x2="1164.4668" y1="378.4297" y2="378.4297"/><text fill="#000000" font-family="sans-serif" font-size="13" lengthAdjust="spacing" textLength="103.708" x="438.415" y="373.3638">6. SOC Manifest</text><line style="stroke:#FF0000;stroke-width:1;" x1="106.0093" x2="148.0093" y1="407.5625" y2="407.5625"/><line style="stroke:#FF0000;stroke-width:1;" x1="148.0093" x2="148.0093" y1="407.5625" y2="420.5625"/><line style="stroke:#FF0000;stroke-width:1;" x1="107.0093" x2="148.0093" y1="420.5625" y2="420.5625"/><polygon fill="#FF0000" points="117.0093,416.5625,107.0093,420.5625,117.0093,424.5625,113.0093,420.5625" style="stroke:#FF0000;stroke-width:1;"/><text fill="#000000" font-family="sans-serif" font-size="13" lengthAdjust="spacing" textLength="191.4644" x="113.0093" y="402.4966">7. Authenticate SOC Manifest</text><polygon fill="#FF0000" points="1153.4668,445.6953,1163.4668,449.6953,1153.4668,453.6953,1157.4668,449.6953" style="stroke:#FF0000;stroke-width:1;"/><line style="stroke:#FF0000;stroke-width:1;" x1="106.0093" x2="1159.4668" y1="449.6953" y2="449.6953"/><text fill="#000000" font-family="sans-serif" font-size="13" lengthAdjust="spacing" textLength="179.3784" x="113.0093" y="444.6294">8. Ready for MCU RT Image</text><path d="M1152.9668,461.6953 L1213.9097,461.6953 L1213.9097,468.8281 L1203.9097,478.8281 L1149.4668,478.8281 L1149.4668,465.1953 A3.5,3.5 0 0 1 1152.9668,461.6953 " fill="#EEEEEE" style="stroke:#393939;stroke-width:1.5;"/><rect fill="none" height="116.2031" rx="3.5" ry="3.5" style="stroke:#393939;stroke-width:1;" width="277.2407" x="1149.4668" y="461.6953"/><text fill="#191919" font-family="sans-serif" font-size="13" font-weight="bold" lengthAdjust="spacing" textLength="19.4429" x="1164.4668" y="474.7622">alt</text><text fill="#393939" font-family="sans-serif" font-size="11" font-weight="bold" lengthAdjust="spacing" textLength="37.458" x="1228.9097" y="473.9058">[BMC]</text><line style="stroke:#393939;stroke-width:1;stroke-dasharray:2.0,2.0;" x1="1149.4668" x2="1426.7075" y1="528.9609" y2="528.9609"/><text fill="#393939" font-family="sans-serif" font-size="11" font-weight="bold" lengthAdjust="spacing" textLength="43.1406" x="1154.4668" y="541.1714">[Flash]</text><polygon fill="#191919" points="1176.4668,505.9609,1166.4668,509.9609,1176.4668,513.9609,1172.4668,509.9609" style="stroke:#191919;stroke-width:1;"/><line style="stroke:#191919;stroke-width:1;" x1="1170.4668" x2="1351.6338" y1="509.9609" y2="509.9609"/><text fill="#000000" font-family="sans-serif" font-size="13" lengthAdjust="spacing" textLength="120.5674" x="1182.4668" y="504.895">9.1 MCU RT Image</text><polygon fill="#800080" points="1176.4668,565.8984,1166.4668,569.8984,1176.4668,573.8984,1172.4668,569.8984" style="stroke:#800080;stroke-width:1;"/><line style="stroke:#800080;stroke-width:1;" x1="1170.4668" x2="1409.7075" y1="569.8984" y2="569.8984"/><text fill="#000000" font-family="sans-serif" font-size="13" lengthAdjust="spacing" textLength="124.6997" x="1182.4668" y="564.8325">9.2. MCU RT Image</text><polygon fill="#FF0000" points="1031.8994,609.0313,1021.8994,613.0313,1031.8994,617.0313,1027.8994,613.0313" style="stroke:#FF0000;stroke-width:1;"/><line style="stroke:#FF0000;stroke-width:1;" x1="1025.8994" x2="1164.4668" y1="613.0313" y2="613.0313"/><text fill="#000000" font-family="sans-serif" font-size="13" lengthAdjust="spacing" textLength="120.5674" x="1037.8994" y="607.9653">10. MCU RT Image</text><polygon fill="#FF0000" points="322.4736,638.1641,312.4736,642.1641,322.4736,646.1641,318.4736,642.1641" style="stroke:#FF0000;stroke-width:1;"/><line style="stroke:#FF0000;stroke-width:1;" x1="316.4736" x2="1019.8994" y1="642.1641" y2="642.1641"/><text fill="#000000" font-family="sans-serif" font-size="13" lengthAdjust="spacing" textLength="133.0278" x="328.4736" y="637.0981">11. Hash MCU SRAM</text><line style="stroke:#FF0000;stroke-width:1;" x1="106.0093" x2="148.0093" y1="686.4297" y2="686.4297"/><line style="stroke:#FF0000;stroke-width:1;" x1="148.0093" x2="148.0093" y1="686.4297" y2="699.4297"/><line style="stroke:#FF0000;stroke-width:1;" x1="107.0093" x2="148.0093" y1="699.4297" y2="699.4297"/><polygon fill="#FF0000" points="117.0093,695.4297,107.0093,699.4297,117.0093,703.4297,113.0093,699.4297" style="stroke:#FF0000;stroke-width:1;"/><text fill="#000000" font-family="sans-serif" font-size="13" lengthAdjust="spacing" textLength="175.3667" x="113.0093" y="666.231">12. Compare SOC Manifest</text><text fill="#000000" font-family="sans-serif" font-size="13" lengthAdjust="spacing" textLength="146.6118" x="113.0093" y="681.3638">Hash vs SHA Acc Hash</text><line style="stroke:#FF0000;stroke-width:1;" x1="106.0093" x2="148.0093" y1="728.5625" y2="728.5625"/><line style="stroke:#FF0000;stroke-width:1;" x1="148.0093" x2="148.0093" y1="728.5625" y2="741.5625"/><line style="stroke:#FF0000;stroke-width:1;" x1="107.0093" x2="148.0093" y1="741.5625" y2="741.5625"/><polygon fill="#FF0000" points="117.0093,737.5625,107.0093,741.5625,117.0093,745.5625,113.0093,741.5625" style="stroke:#FF0000;stroke-width:1;"/><text fill="#000000" font-family="sans-serif" font-size="13" lengthAdjust="spacing" textLength="131.1426" x="113.0093" y="723.4966">13. Set EXEC/GO Bit</text><polygon fill="#FF0000" points="588.4946,766.6953,598.4946,770.6953,588.4946,774.6953,592.4946,770.6953" style="stroke:#FF0000;stroke-width:1;"/><line style="stroke:#FF0000;stroke-width:1;" x1="106.0093" x2="594.4946" y1="770.6953" y2="770.6953"/><text fill="#000000" font-family="sans-serif" font-size="13" lengthAdjust="spacing" textLength="98.5537" x="113.0093" y="765.6294">14. Go wire set</text><line style="stroke:#800080;stroke-width:1;" x1="600.4946" x2="642.4946" y1="799.8281" y2="799.8281"/><line style="stroke:#800080;stroke-width:1;" x1="642.4946" x2="642.4946" y1="799.8281" y2="812.8281"/><line style="stroke:#800080;stroke-width:1;" x1="601.4946" x2="642.4946" y1="812.8281" y2="812.8281"/><polygon fill="#800080" points="611.4946,808.8281,601.4946,812.8281,611.4946,816.8281,607.4946,812.8281" style="stroke:#800080;stroke-width:1;"/><text fill="#000000" font-family="sans-serif" font-size="13" lengthAdjust="spacing" textLength="169.1206" x="607.4946" y="794.7622">15. Detected GO Bit is set</text><line style="stroke:#800080;stroke-width:1;" x1="600.4946" x2="642.4946" y1="841.9609" y2="841.9609"/><line style="stroke:#800080;stroke-width:1;" x1="642.4946" x2="642.4946" y1="841.9609" y2="854.9609"/><line style="stroke:#800080;stroke-width:1;" x1="601.4946" x2="642.4946" y1="854.9609" y2="854.9609"/><polygon fill="#800080" points="611.4946,850.9609,601.4946,854.9609,611.4946,858.9609,607.4946,854.9609" style="stroke:#800080;stroke-width:1;"/><text fill="#000000" font-family="sans-serif" font-size="13" lengthAdjust="spacing" textLength="246.0288" x="607.4946" y="836.895">16. Set Image Select in HandOff table</text><path d="M523.1411,871.4609 L523.1411,889.4609 A3.5,3.5 0 0 0 526.6411,892.9609 L673.6411,892.9609 A3.5,3.5 0 0 0 677.1411,889.4609 L677.1411,877.9609 L667.1411,867.9609 L526.6411,867.9609 A3.5,3.5 0 0 0 523.1411,871.4609 " fill="#E5E5E5" style="stroke:#191919;stroke-width:1.5;"/><path d="M667.1411,867.9609 L667.1411,876.2109 A1.75,1.75 0 0 0 668.8911,877.9609 L677.1411,877.9609 L667.1411,867.9609 " fill="#E5E5E5" style="stroke:#191919;stroke-width:1.5;"/><text fill="#191919" font-family="sans-serif" font-size="13" lengthAdjust="spacing" textLength="133.707" x="529.1411" y="885.0278">17. Running MCU RT</text><line style="stroke:#0000FF;stroke-width:1;" x1="600.4946" x2="642.4946" y1="919.2266" y2="919.2266"/><line style="stroke:#0000FF;stroke-width:1;" x1="642.4946" x2="642.4946" y1="919.2266" y2="932.2266"/><line style="stroke:#0000FF;stroke-width:1;" x1="601.4946" x2="642.4946" y1="932.2266" y2="932.2266"/><polygon fill="#0000FF" points="611.4946,928.2266,601.4946,932.2266,611.4946,936.2266,607.4946,932.2266" style="stroke:#0000FF;stroke-width:1;"/><text fill="#000000" font-family="sans-serif" font-size="13" lengthAdjust="spacing" textLength="279.4556" x="607.4946" y="914.1606">18. Retrieve Image Select in HandOff table</text><path d="M582.6045,948.7266 L582.6045,966.7266 A3.5,3.5 0 0 0 586.1045,970.2266 L1366.1045,970.2266 A3.5,3.5 0 0 0 1369.6045,966.7266 L1369.6045,955.2266 L1359.6045,945.2266 L586.1045,945.2266 A3.5,3.5 0 0 0 582.6045,948.7266 " fill="#E5E5E5" style="stroke:#191919;stroke-width:1.5;"/><path d="M1359.6045,945.2266 L1359.6045,953.4766 A1.75,1.75 0 0 0 1361.3545,955.2266 L1369.6045,955.2266 L1359.6045,945.2266 " fill="#E5E5E5" style="stroke:#191919;stroke-width:1.5;"/><text fill="#191919" font-family="sans-serif" font-size="13" lengthAdjust="spacing" textLength="148.3638" x="897.8823" y="962.2935">19. MCTP enumeration</text><path d="M1008.3994,979.3594 L1069.3423,979.3594 L1069.3423,986.4922 L1059.3423,996.4922 L1004.8994,996.4922 L1004.8994,982.8594 A3.5,3.5 0 0 1 1008.3994,979.3594 " fill="#EEEEEE" style="stroke:#393939;stroke-width:1.5;"/><rect fill="none" height="116.2031" rx="3.5" ry="3.5" style="stroke:#393939;stroke-width:1;" width="421.8081" x="1004.8994" y="979.3594"/><text fill="#191919" font-family="sans-serif" font-size="13" font-weight="bold" lengthAdjust="spacing" textLength="19.4429" x="1019.8994" y="992.4263">alt</text><text fill="#393939" font-family="sans-serif" font-size="11" font-weight="bold" lengthAdjust="spacing" textLength="37.458" x="1084.3423" y="991.5698">[BMC]</text><line style="stroke:#393939;stroke-width:1;stroke-dasharray:2.0,2.0;" x1="1004.8994" x2="1426.7075" y1="1046.625" y2="1046.625"/><text fill="#393939" font-family="sans-serif" font-size="11" font-weight="bold" lengthAdjust="spacing" textLength="43.1406" x="1009.8994" y="1058.8354">[Flash]</text><polygon fill="#0000FF" points="1031.8994,1023.625,1021.8994,1027.625,1031.8994,1031.625,1027.8994,1027.625" style="stroke:#0000FF;stroke-width:1;"/><line style="stroke:#0000FF;stroke-width:1;" x1="1025.8994" x2="1351.6338" y1="1027.625" y2="1027.625"/><text fill="#000000" font-family="sans-serif" font-size="13" lengthAdjust="spacing" textLength="307.7344" x="1037.8994" y="1022.5591">20.1 SOC Manifest / Image Metadata Collection</text><polygon fill="#0000FF" points="1031.8994,1083.5625,1021.8994,1087.5625,1031.8994,1091.5625,1027.8994,1087.5625" style="stroke:#0000FF;stroke-width:1;"/><line style="stroke:#0000FF;stroke-width:1;" x1="1025.8994" x2="1409.7075" y1="1087.5625" y2="1087.5625"/><text fill="#000000" font-family="sans-serif" font-size="13" lengthAdjust="spacing" textLength="235.2188" x="1037.8994" y="1082.4966">20.2 Get Image Metadata Collection</text><path d="M93.5093,1113.5625 L166.6333,1113.5625 L166.6333,1120.6953 L156.6333,1130.6953 L90.0093,1130.6953 L90.0093,1117.0625 A3.5,3.5 0 0 1 93.5093,1113.5625 " fill="#EEEEEE" style="stroke:#393939;stroke-width:1.5;"/><rect fill="none" height="423.6641" rx="3.5" ry="3.5" style="stroke:#393939;stroke-width:1;" width="1489.9077" x="90.0093" y="1113.5625"/><text fill="#191919" font-family="sans-serif" font-size="13" font-weight="bold" lengthAdjust="spacing" textLength="31.624" x="105.0093" y="1126.6294">loop</text><text fill="#393939" font-family="sans-serif" font-size="11" font-weight="bold" lengthAdjust="spacing" textLength="137.3335" x="181.6333" y="1125.7729">[for every SOC image]</text><path d="M1340.1338,1144.6953 L1401.0767,1144.6953 L1401.0767,1151.8281 L1391.0767,1161.8281 L1336.6338,1161.8281 L1336.6338,1148.1953 A3.5,3.5 0 0 1 1340.1338,1144.6953 " fill="#EEEEEE" style="stroke:#393939;stroke-width:1.5;"/><rect fill="none" height="116.2031" rx="3.5" ry="3.5" style="stroke:#393939;stroke-width:1;" width="218.2832" x="1336.6338" y="1144.6953"/><text fill="#191919" font-family="sans-serif" font-size="13" font-weight="bold" lengthAdjust="spacing" textLength="19.4429" x="1351.6338" y="1157.7622">alt</text><text fill="#393939" font-family="sans-serif" font-size="11" font-weight="bold" lengthAdjust="spacing" textLength="37.458" x="1416.0767" y="1156.9058">[BMC]</text><line style="stroke:#393939;stroke-width:1;stroke-dasharray:2.0,2.0;" x1="1336.6338" x2="1554.917" y1="1211.9609" y2="1211.9609"/><text fill="#393939" font-family="sans-serif" font-size="11" font-weight="bold" lengthAdjust="spacing" textLength="43.1406" x="1341.6338" y="1224.1714">[Flash]</text><polygon fill="#0000FF" points="1526.917,1188.9609,1536.917,1192.9609,1526.917,1196.9609,1530.917,1192.9609" style="stroke:#0000FF;stroke-width:1;"/><line style="stroke:#0000FF;stroke-width:1;" x1="1352.6338" x2="1532.917" y1="1192.9609" y2="1192.9609"/><text fill="#000000" font-family="sans-serif" font-size="13" lengthAdjust="spacing" textLength="104.2095" x="1359.6338" y="1187.895">21.1. Image/Cfg</text><polygon fill="#0000FF" points="1526.917,1248.8984,1536.917,1252.8984,1526.917,1256.8984,1530.917,1252.8984" style="stroke:#0000FF;stroke-width:1;"/><line style="stroke:#0000FF;stroke-width:1;" x1="1410.7075" x2="1532.917" y1="1252.8984" y2="1252.8984"/><text fill="#000000" font-family="sans-serif" font-size="13" lengthAdjust="spacing" textLength="104.2095" x="1417.7075" y="1247.8325">21.2. Image/Cfg</text><polygon fill="#0000FF" points="432.415,1292.0313,422.415,1296.0313,432.415,1300.0313,428.415,1296.0313" style="stroke:#0000FF;stroke-width:1;"/><line style="stroke:#0000FF;stroke-width:1;" x1="426.415" x2="599.4946" y1="1296.0313" y2="1296.0313"/><text fill="#000000" font-family="sans-serif" font-size="13" lengthAdjust="spacing" textLength="155.0796" x="438.415" y="1290.9653">22. authorize(image_id)</text><polygon fill="#FF0000" points="322.4736,1321.1641,312.4736,1325.1641,322.4736,1329.1641,318.4736,1325.1641" style="stroke:#FF0000;stroke-width:1;"/><line style="stroke:#FF0000;stroke-width:1;" x1="316.4736" x2="1537.917" y1="1325.1641" y2="1325.1641"/><text fill="#000000" font-family="sans-serif" font-size="13" lengthAdjust="spacing" textLength="91.8062" x="328.4736" y="1320.0981">23. Image/Cfg</text><line style="stroke:#FF0000;stroke-width:1;" x1="106.0093" x2="148.0093" y1="1384.5625" y2="1384.5625"/><line style="stroke:#FF0000;stroke-width:1;" x1="148.0093" x2="148.0093" y1="1384.5625" y2="1397.5625"/><line style="stroke:#FF0000;stroke-width:1;" x1="107.0093" x2="148.0093" y1="1397.5625" y2="1397.5625"/><polygon fill="#FF0000" points="117.0093,1393.5625,107.0093,1397.5625,117.0093,1401.5625,113.0093,1397.5625" style="stroke:#FF0000;stroke-width:1;"/><text fill="#000000" font-family="sans-serif" font-size="13" lengthAdjust="spacing" textLength="174.167" x="113.0093" y="1349.231">24. Verify Hash in SHA Acc</text><text fill="#000000" font-family="sans-serif" font-size="13" lengthAdjust="spacing" textLength="155.7715" x="113.0093" y="1364.3638">with SOC Manifest Hash</text><text fill="#000000" font-family="sans-serif" font-size="13" lengthAdjust="spacing" textLength="80.8628" x="117.1416" y="1379.4966">for image_id</text><polygon fill="#FF0000" points="409.415,1422.6953,419.415,1426.6953,409.415,1430.6953,413.415,1426.6953" style="stroke:#FF0000;stroke-width:1;"/><line style="stroke:#FF0000;stroke-width:1;" x1="106.0093" x2="415.415" y1="1426.6953" y2="1426.6953"/><text fill="#000000" font-family="sans-serif" font-size="13" lengthAdjust="spacing" textLength="123.7412" x="113.0093" y="1421.6294">25. Return success</text><polygon fill="#0000FF" points="588.4946,1451.8281,598.4946,1455.8281,588.4946,1459.8281,592.4946,1455.8281" style="stroke:#0000FF;stroke-width:1;"/><line style="stroke:#0000FF;stroke-width:1;" x1="421.415" x2="594.4946" y1="1455.8281" y2="1455.8281"/><text fill="#000000" font-family="sans-serif" font-size="13" lengthAdjust="spacing" textLength="77.1367" x="428.415" y="1450.7622">26. Success</text><polygon fill="#0000FF" points="117.0093,1496.0938,107.0093,1500.0938,117.0093,1504.0938,113.0093,1500.0938" style="stroke:#0000FF;stroke-width:1;"/><line style="stroke:#0000FF;stroke-width:1;" x1="111.0093" x2="599.4946" y1="1500.0938" y2="1500.0938"/><text fill="#000000" font-family="sans-serif" font-size="13" lengthAdjust="spacing" textLength="223.2026" x="123.0093" y="1479.895">27. Set EXEC/Go Bit of component</text><text fill="#000000" font-family="sans-serif" font-size="13" lengthAdjust="spacing" textLength="173.5322" x="123.0093" y="1495.0278">corresponding to image_id</text><polygon fill="#FF0000" points="1526.917,1525.2266,1536.917,1529.2266,1526.917,1533.2266,1530.917,1529.2266" style="stroke:#FF0000;stroke-width:1;"/><line style="stroke:#FF0000;stroke-width:1;" x1="106.0093" x2="1532.917" y1="1529.2266" y2="1529.2266"/><text fill="#000000" font-family="sans-serif" font-size="13" lengthAdjust="spacing" textLength="98.5537" x="113.0093" y="1524.1606">28. Go wire set</text><!--SRC=[ZLNRJkCm47tFLmpi2qYGqh3S-e1KijoahRfg2xlI5Y6JJ5fBgLqv3Yny_OwTk8rxOVUXRHoV6P-PESVTqLES8SoOAe8vKvedVCw4XjsOvNok5Ti5Le1R-93XNHUwIM8HzBmv7dgCvo_oZqNLppwo5pzKc_73Ilv-3B4K6P-KYcakHSN5lbbB0SD1j-VoF9k53nbW8bzHlSDzwyR2t0iVTjMBxIxz-XitEIkcTii- -PkFA5AfYDfiBWKARN69MmM1a1h1dBReP0S6fH1SJ1PlOD3l1IrOGgcE9SfKQ011LVxXxo_pKirpVBgqi7O8zpCsGHZAKYNqWpacUYpsBDaMLRE_WSI1tUr054Atr5Ef-0S24obybonj41l1pS-DDHo76ygmwC2jYQd2zEdIjRi3Noa8MVeE6RNCpBZ71C-mq07BjMqyVGuR0ISXbUS1CI-mdeFzRhIZ6HQjXeaq21p04QirsO7J5VHQ2Skwpwg6qMnvmgWjdySjAPqtIxSZ7LLpsrRwHTZsSVzL-OMft0-ZojSAhtr2wZbQWGTkps79tWIZCTpHcU3izac7siJ0s84flpim5ZR5gxqopFLXKtwMYKGsH0tNlwxZrcqVhhXUGrSU867TIdZZT6I1sjImPfEJ4BwX9cjW2bKkuCLMz6brSkqiQodWWWYBj9zbeDbBZi6AOTjdeM_QKL3dVidBHMOh1Aqulk8_qllv3qWV57vXvZNw0IZA6LPtewUWnc7rYACZKf8tY5PzS0yrIvbcDAxSK32vDgXiGy88RXVTsPZ5s2t8fPnRlQEzVWq7xab-PwxOPCP0e_m0hKhqIbZSedHaEtJtN2lE9i5scdvGr0mofBnvEFj716Fk5jop59zvkXyiSdbUY8wRIRUhDo9HFgBYsNjb7Pglq_rOl74zzOTYC6DXs-KOh8jzmVZ4ggXK0eeoIR0eWdhFLrjaTEm0ZT8RBC-Q7fFM5p9R_eEDHIALme9MgH6sbjlfDNj_xZkIUWz63dy1]--></g></svg>