<?xml version="1.0" encoding="UTF-8" standalone="no"?>
<!DOCTYPE svg PUBLIC "-//W3C//DTD SVG 1.1//EN" "http://www.w3.org/Graphics/SVG/1.1/DTD/svg11.dtd">
<!-- Generated by Microsoft Visio, SVG Export image_loading_sw_stack.svg Page-1 -->
<svg xmlns="http://www.w3.org/2000/svg" xmlns:xlink="http://www.w3.org/1999/xlink" xmlns:ev="http://www.w3.org/2001/xml-events"
		xmlns:v="http://schemas.microsoft.com/visio/2003/SVGExtensions/" width="9.77089in" height="2.51409in"
		viewBox="0 0 703.504 181.015" xml:space="preserve" color-interpolation-filters="sRGB" class="st11">
	<v:documentProperties v:langID="1033" v:viewMarkup="false"/>

	<style type="text/css">
	<![CDATA[
		.st1 {fill:#fff2cc;stroke:none;stroke-linecap:round;stroke-linejoin:round;stroke-width:0.75}
		.st2 {fill:#000000;font-family:Calibri;font-size:1.5em;font-weight:bold}
		.st3 {fill:#ffd965;stroke:none;stroke-linecap:round;stroke-linejoin:round;stroke-width:0.75}
		.st4 {fill:#000000;font-family:Calibri;font-size:1.16666em;font-weight:bold}
		.st5 {font-size:1em}
		.st6 {fill:#bfbfbf;stroke:none;stroke-linecap:round;stroke-linejoin:round;stroke-width:0.75}
		.st7 {fill:none}
		.st8 {stroke:#000000;stroke-linecap:round;stroke-linejoin:round;stroke-width:0.24}
		.st9 {fill:#00b050;font-family:Calibri;font-size:0.833336em;font-weight:bold}
		.st10 {fill:#ff0000;font-family:Calibri;font-size:0.833336em;font-weight:bold}
		.st11 {fill:none;fill-rule:evenodd;font-size:12px;overflow:visible;stroke-linecap:square;stroke-miterlimit:3}
	]]>
	</style>

	<g v:mID="0" v:index="1" v:groupContext="foregroundPage">
		<title>Page-1</title>
		<v:pageProperties v:drawingScale="1" v:pageScale="1" v:drawingUnits="0" v:shadowOffsetX="9" v:shadowOffsetY="-9"/>
		<g id="shape1010-1" v:mID="1010" v:groupContext="shape" transform="translate(93.9023,-0.375)">
			<title>Sheet.1010</title>
			<desc>MCTP</desc>
			<v:userDefs/>
			<v:textBlock v:margins="rect(4,4,4,4)"/>
			<v:textRect cx="304.049" cy="158.515" width="608.16" height="45"/>
			<path d="M0 178.2 A27.6414 2.81257 -180 0 0 27.64 181.01 L580.46 181.01 A27.6414 2.81257 -180 0 0 608.1 178.2 L608.1
						 138.83 A27.6414 2.81257 -180 0 0 580.46 136.01 L27.64 136.01 A27.6414 2.81257 -180 0 0 0 138.83 L0 178.2
						 Z" class="st1"/>
			<text x="280.56" y="163.91" class="st2" v:langID="1033"><v:paragraph v:horizAlign="1"/><v:tabList/>Stacks</text>		</g>
		<g id="shape1016-4" v:mID="1016" v:groupContext="shape" transform="translate(93.9023,-61.2083)">
			<title>Sheet.1016</title>
			<desc>Image Loading</desc>
			<v:userDefs/>
			<v:textBlock v:margins="rect(4,4,4,4)"/>
			<v:textRect cx="72" cy="163.971" width="144.01" height="34.0833"/>
			<path d="M-0 176.51 A4.5001 4.5001 -180 0 0 4.5 181.01 L139.5 181.01 A4.5001 4.5001 -180 0 0 144 176.51 L144 151.43 A4.5001
						 4.5001 -180 0 0 139.5 146.93 L4.5 146.93 A4.5001 4.5001 -180 0 0 -0 151.43 L0 176.51 Z" class="st3"/>
			<text x="29.83" y="168.17" class="st4" v:langID="1033"><v:paragraph v:horizAlign="1"/><v:tabList/>Image Loading</text>		</g>
		<g id="shape1017-7" v:mID="1017" v:groupContext="shape" transform="translate(559.129,-61.2083)">
			<title>Sheet.1017</title>
			<desc>Attestation</desc>
			<v:userDefs/>
			<v:textBlock v:margins="rect(4,4,4,4)"/>
			<v:textRect cx="72" cy="163.971" width="144.01" height="34.0833"/>
			<path d="M-0 176.51 A4.5001 4.5001 -180 0 0 4.5 181.01 L139.5 181.01 A4.5001 4.5001 -180 0 0 144 176.51 L144 151.43 A4.5001
						 4.5001 -180 0 0 139.5 146.93 L4.5 146.93 A4.5001 4.5001 -180 0 0 -0 151.43 L0 176.51 Z" class="st3"/>
			<text x="39.04" y="168.17" class="st4" v:langID="1033"><v:paragraph v:horizAlign="1"/><v:tabList/>Attestation</text>		</g>
		<g id="shape1019-10" v:mID="1019" v:groupContext="shape" transform="translate(248.978,-61.2083)">
			<title>Sheet.1019</title>
			<desc>Anti Rollback Protection</desc>
			<v:userDefs/>
			<v:textBlock v:margins="rect(4,4,4,4)"/>
			<v:textRect cx="72" cy="163.971" width="144.01" height="34.0833"/>
			<path d="M-0 176.51 A4.5001 4.5001 -180 0 0 4.5 181.01 L139.5 181.01 A4.5001 4.5001 -180 0 0 144 176.51 L144 151.43 A4.5001
						 4.5001 -180 0 0 139.5 146.93 L4.5 146.93 A4.5001 4.5001 -180 0 0 -0 151.43 L0 176.51 Z" class="st3"/>
			<text x="33.63" y="159.77" class="st4" v:langID="1033"><v:paragraph v:horizAlign="1"/><v:tabList/>Anti Rollback<v:newlineChar/><tspan
						x="41.48" dy="1.2em" class="st5">Protection</tspan></text>		</g>
		<g id="shape1023-14" v:mID="1023" v:groupContext="shape" transform="translate(404.054,-61.6249)">
			<title>Sheet.1023</title>
			<desc>Crypto API</desc>
			<v:userDefs/>
			<v:textBlock v:margins="rect(4,4,4,4)"/>
			<v:textRect cx="72" cy="164.188" width="144.01" height="33.6667"/>
			<path d="M0 176.51 A4.5001 4.5001 -180 0 0 4.5 181.01 L139.5 181.01 A4.5001 4.5001 -180 0 0 144 176.51 L144 151.85 A4.5001
						 4.5001 -180 0 0 139.5 147.35 L4.5 147.35 A4.5001 4.5001 -180 0 0 0 151.85 L0 176.51 Z" class="st3"/>
			<text x="41.13" y="168.39" class="st4" v:langID="1033"><v:paragraph v:horizAlign="1"/><v:tabList/>Crypto API</text>		</g>
		<g id="shape1026-17" v:mID="1026" v:groupContext="shape" transform="translate(93.9023,-108.64)">
			<title>Sheet.1026</title>
			<desc>ROT Applications</desc>
			<v:userDefs/>
			<v:textBlock v:margins="rect(4,4,4,4)"/>
			<v:textRect cx="304.049" cy="145.015" width="608.11" height="72"/>
			<path d="M0 176.51 A5.0676 4.5001 -180 0 0 5.07 181.01 L603.03 181.01 A5.0676 4.5001 -180 0 0 608.1 176.51 L608.1 113.51
						 A5.0676 4.5001 -180 0 0 603.03 109.01 L5.07 109.01 A5.0676 4.5001 -180 0 0 -0 113.51 L0 176.51 Z"
					class="st6"/>
			<text x="240.07" y="150.41" class="st2" v:langID="1033"><v:paragraph v:horizAlign="1"/><v:tabList/>ROT Applications</text>		</g>
		<g id="shape1038-20" v:mID="1038" v:groupContext="shape" transform="translate(236.841,180.64) rotate(90) scale(-1,1)">
			<title>Side brace.1003</title>
			<desc>MCU SDK</desc>
			<v:userDefs>
				<v:ud v:nameU="TxtW" v:val="VT0(0.55555555555556):29"/>
				<v:ud v:nameU="TxtA" v:prompt="" v:val="VT0(0):26"/>
				<v:ud v:nameU="TxtAState" v:val="VT0(0):26"/>
				<v:ud v:nameU="TxtWState" v:val="VT0(0):26"/>
				<v:ud v:nameU="MaxRadius" v:val="VT0(0.25):1"/>
				<v:ud v:nameU="PosCH1" v:prompt="Constrains X position of Control Handle #1" v:val="VT0(0):26"/>
				<v:ud v:nameU="PosCH2" v:prompt="Constrains Y position of Control Handle #2" v:val="VT0(0):26"/>
				<v:ud v:nameU="Scale" v:val="VT0(1):26"/>
				<v:ud v:nameU="AntiScale" v:val="VT0(1):26"/>
				<v:ud v:nameU="visVersion" v:val="VT0(15):26"/>
			</v:userDefs>
			<v:textBlock v:margins="rect(4,4,4,4)"/>
			<v:textRect cx="45.1017" cy="204.809" width="37.07" height="27.2035" transform="rotate(-90)"/>
			<path d="M0 154.01 L0 163.01 A1.74889 8.99985 -180 0 0 1.75 172.01 L45.5 172.01 A1.74889 8.99985 0 0 1 47.25 181.01 A1.74889
						 8.99985 0 0 1 49 172.01 L92.75 172.01 A1.74889 8.99985 -180 0 0 94.5 163.01 L94.5 154.01 L0 154.01 Z"
					class="st7"/>
			<path d="M0 154.01 L0 163.01 A1.74889 8.99985 -180 0 0 1.75 172.01 L45.5 172.01 A1.74889 8.99985 0 0 1 47.25 181.01 A1.74889
						 8.99985 0 0 1 49 172.01 L92.75 172.01 A1.74889 8.99985 -180 0 0 94.5 163.01 L94.5 154.01" class="st8"/>
			<text x="-215.09" y="-48.1" transform="rotate(90) scale(-1,1)" class="st9" v:langID="1033"><v:paragraph
						v:horizAlign="1"/><v:tabList/>MCU<v:newlineChar/><tspan x="-213.06" dy="1.2em" class="st5">SDK</tspan></text>		</g>
		<g id="shape1040-25" v:mID="1040" v:groupContext="shape" transform="translate(239.25,72.375) rotate(90) scale(-1,1)">
			<title>Side brace.1005</title>
			<desc>Silicon Vendor Provided</desc>
			<v:userDefs>
				<v:ud v:nameU="TxtW" v:val="VT0(0.55555555555556):29"/>
				<v:ud v:nameU="TxtA" v:prompt="" v:val="VT0(0):26"/>
				<v:ud v:nameU="TxtAState" v:val="VT0(0):26"/>
				<v:ud v:nameU="TxtWState" v:val="VT0(0):26"/>
				<v:ud v:nameU="MaxRadius" v:val="VT0(0.25):1"/>
				<v:ud v:nameU="PosCH1" v:prompt="Constrains X position of Control Handle #1" v:val="VT0(0):26"/>
				<v:ud v:nameU="PosCH2" v:prompt="Constrains Y position of Control Handle #2" v:val="VT0(0):26"/>
				<v:ud v:nameU="Scale" v:val="VT0(1):26"/>
				<v:ud v:nameU="AntiScale" v:val="VT0(1):26"/>
				<v:ud v:nameU="visVersion" v:val="VT0(15):26"/>
				<v:ud v:nameU="visAltText" v:val="VT4()"/>
				<v:ud v:nameU="visAltDescription" v:val="VT4()"/>
			</v:userDefs>
			<v:textBlock v:margins="rect(4,4,4,4)"/>
			<v:textRect cx="36" cy="214.418" width="49.67" height="36.8035" transform="rotate(-90)"/>
			<path d="M0 154.01 L0 163.01 A5.14277 8.99985 -180 0 0 5.14 172.01 L30.86 172.01 A5.14277 8.99985 0 0 1 36 181.01 A5.14277
						 8.99985 0 0 1 41.14 172.01 L66.86 172.01 A5.14277 8.99985 -180 0 0 72 163.01 L72 154.01 L0 154.01 Z"
					class="st7"/>
			<path d="M0 154.01 L0 163.01 A5.14277 8.99985 -180 0 0 5.14 172.01 L30.86 172.01 A5.14277 8.99985 0 0 1 36 181.01 A5.14277
						 8.99985 0 0 1 41.14 172.01 L66.86 172.01 A5.14277 8.99985 -180 0 0 72 163.01 L72 154.01" class="st8"/>
			<text x="-227.93" y="-45" transform="rotate(90) scale(-1,1)" class="st10" v:langID="1033"><v:paragraph v:horizAlign="1"/><v:tabList/>Silicon <tspan
						x="-229.72" dy="1.2em" class="st5">Vendor </tspan><tspan x="-233.02" dy="1.2em" class="st5">Provided</tspan></text>		</g>
	</g>
</svg>
