<svg xmlns="http://www.w3.org/2000/svg" xmlns:xlink="http://www.w3.org/1999/xlink" contentStyleType="text/css" data-diagram-type="SEQUENCE" height="593px" preserveAspectRatio="none" style="width:961px;height:593px;background:#F9F9F9;" version="1.1" viewBox="0 0 961 593" width="961px" zoomAndPan="magnify"><defs/><g><rect fill="#F9F9F9" height="593" style="stroke:none;stroke-width:1;" width="961" x="0" y="0"/><line style="stroke:#393939;stroke-width:0.5;stroke-dasharray:5.0,5.0;" x1="39.4224" x2="39.4224" y1="52.5938" y2="541.3906"/><line style="stroke:#393939;stroke-width:0.5;stroke-dasharray:5.0,5.0;" x1="231.7217" x2="231.7217" y1="52.5938" y2="541.3906"/><line style="stroke:#393939;stroke-width:0.5;stroke-dasharray:5.0,5.0;" x1="341.6631" x2="341.6631" y1="52.5938" y2="541.3906"/><line style="stroke:#393939;stroke-width:0.5;stroke-dasharray:5.0,5.0;" x1="572.9585" x2="572.9585" y1="52.5938" y2="541.3906"/><line style="stroke:#393939;stroke-width:0.5;stroke-dasharray:5.0,5.0;" x1="661.3052" x2="661.3052" y1="52.5938" y2="541.3906"/><line style="stroke:#393939;stroke-width:0.5;stroke-dasharray:5.0,5.0;" x1="751.9453" x2="751.9453" y1="52.5938" y2="541.3906"/><line style="stroke:#393939;stroke-width:0.5;stroke-dasharray:5.0,5.0;" x1="880.1548" x2="880.1548" y1="52.5938" y2="541.3906"/><rect fill="#E55756" height="30.2969" rx="3.5" ry="3.5" style="stroke:#191919;stroke-width:1.5;" width="68.8447" x="5" y="21.2969"/><text fill="#F9F9F9" font-family="sans-serif" font-size="14" lengthAdjust="spacing" textLength="54.8447" x="12" y="41.292">Caliptra</text><rect fill="#E55756" height="30.2969" rx="3.5" ry="3.5" style="stroke:#191919;stroke-width:1.5;" width="72.4131" x="195.5151" y="21.2969"/><text fill="#F9F9F9" font-family="sans-serif" font-size="14" lengthAdjust="spacing" textLength="58.4131" x="202.5151" y="41.292">SHA Acc</text><rect fill="#E55756" height="30.2969" rx="3.5" ry="3.5" style="stroke:#191919;stroke-width:1.5;" width="127.4697" x="277.9282" y="21.2969"/><text fill="#F9F9F9" font-family="sans-serif" font-size="14" lengthAdjust="spacing" textLength="113.4697" x="284.9282" y="41.292">Caliptra Mailbox</text><rect fill="#E55756" height="30.2969" rx="3.5" ry="3.5" style="stroke:#191919;stroke-width:1.5;" width="46.1016" x="549.9077" y="21.2969"/><text fill="#F9F9F9" font-family="sans-serif" font-size="14" lengthAdjust="spacing" textLength="32.1016" x="556.9077" y="41.292">MCU</text><rect fill="#E55756" height="46.5938" rx="3.5" ry="3.5" style="stroke:#191919;stroke-width:1.5;" width="110.5918" x="606.0093" y="5"/><text fill="#F9F9F9" font-family="sans-serif" font-size="14" lengthAdjust="spacing" textLength="65.4473" x="626.3564" y="24.9951">PLDM FW</text><text fill="#F9F9F9" font-family="sans-serif" font-size="14" lengthAdjust="spacing" textLength="96.5918" x="613.0093" y="41.292">Update Agent</text><rect fill="#E55756" height="30.2969" rx="3.5" ry="3.5" style="stroke:#191919;stroke-width:1.5;" width="50.6885" x="726.6011" y="21.2969"/><text fill="#F9F9F9" font-family="sans-serif" font-size="14" lengthAdjust="spacing" textLength="36.6885" x="733.6011" y="41.292">Flash</text><rect fill="#E55756" height="30.2969" rx="3.5" ry="3.5" style="stroke:#191919;stroke-width:1.5;" width="150.001" x="805.1543" y="21.2969"/><text fill="#F9F9F9" font-family="sans-serif" font-size="14" lengthAdjust="spacing" textLength="136.001" x="812.1543" y="41.292">Vendor Component</text><rect fill="#E55756" height="30.2969" rx="3.5" ry="3.5" style="stroke:#191919;stroke-width:1.5;" width="68.8447" x="5" y="541.3906"/><text fill="#F9F9F9" font-family="sans-serif" font-size="14" lengthAdjust="spacing" textLength="54.8447" x="12" y="561.3857">Caliptra</text><rect fill="#E55756" height="30.2969" rx="3.5" ry="3.5" style="stroke:#191919;stroke-width:1.5;" width="72.4131" x="195.5151" y="541.3906"/><text fill="#F9F9F9" font-family="sans-serif" font-size="14" lengthAdjust="spacing" textLength="58.4131" x="202.5151" y="561.3857">SHA Acc</text><rect fill="#E55756" height="30.2969" rx="3.5" ry="3.5" style="stroke:#191919;stroke-width:1.5;" width="127.4697" x="277.9282" y="541.3906"/><text fill="#F9F9F9" font-family="sans-serif" font-size="14" lengthAdjust="spacing" textLength="113.4697" x="284.9282" y="561.3857">Caliptra Mailbox</text><rect fill="#E55756" height="30.2969" rx="3.5" ry="3.5" style="stroke:#191919;stroke-width:1.5;" width="46.1016" x="549.9077" y="541.3906"/><text fill="#F9F9F9" font-family="sans-serif" font-size="14" lengthAdjust="spacing" textLength="32.1016" x="556.9077" y="561.3857">MCU</text><rect fill="#E55756" height="46.5938" rx="3.5" ry="3.5" style="stroke:#191919;stroke-width:1.5;" width="110.5918" x="606.0093" y="541.3906"/><text fill="#F9F9F9" font-family="sans-serif" font-size="14" lengthAdjust="spacing" textLength="65.4473" x="626.3564" y="561.3857">PLDM FW</text><text fill="#F9F9F9" font-family="sans-serif" font-size="14" lengthAdjust="spacing" textLength="96.5918" x="613.0093" y="577.6826">Update Agent</text><rect fill="#E55756" height="30.2969" rx="3.5" ry="3.5" style="stroke:#191919;stroke-width:1.5;" width="50.6885" x="726.6011" y="541.3906"/><text fill="#F9F9F9" font-family="sans-serif" font-size="14" lengthAdjust="spacing" textLength="36.6885" x="733.6011" y="561.3857">Flash</text><rect fill="#E55756" height="30.2969" rx="3.5" ry="3.5" style="stroke:#191919;stroke-width:1.5;" width="150.001" x="805.1543" y="541.3906"/><text fill="#F9F9F9" font-family="sans-serif" font-size="14" lengthAdjust="spacing" textLength="136.001" x="812.1543" y="561.3857">Vendor Component</text><path d="M26.9224,64.5938 L100.0464,64.5938 L100.0464,71.7266 L90.0464,81.7266 L23.4224,81.7266 L23.4224,68.0938 A3.5,3.5 0 0 1 26.9224,64.5938 " fill="#EEEEEE" style="stroke:#393939;stroke-width:1.5;"/><rect fill="none" height="452.7969" rx="3.5" ry="3.5" style="stroke:#393939;stroke-width:1;" width="897.7324" x="23.4224" y="64.5938"/><text fill="#191919" font-family="sans-serif" font-size="13" font-weight="bold" lengthAdjust="spacing" textLength="31.624" x="38.4224" y="77.6606">loop</text><text fill="#393939" font-family="sans-serif" font-size="11" font-weight="bold" lengthAdjust="spacing" textLength="137.3335" x="115.0464" y="76.8042">[for every SOC image]</text><polygon fill="#0000FF" points="352.6631,108.8594,342.6631,112.8594,352.6631,116.8594,348.6631,112.8594" style="stroke:#0000FF;stroke-width:1;"/><line style="stroke:#0000FF;stroke-width:1;" x1="346.6631" x2="571.9585" y1="112.8594" y2="112.8594"/><text fill="#000000" font-family="sans-serif" font-size="13" lengthAdjust="spacing" textLength="207.2954" x="358.6631" y="107.7935">17. get_load_address(image_id)</text><polygon fill="#FF0000" points="50.4224,108.8594,40.4224,112.8594,50.4224,116.8594,46.4224,112.8594" style="stroke:#FF0000;stroke-width:1;"/><line style="stroke:#FF0000;stroke-width:1;" x1="44.4224" x2="340.6631" y1="112.8594" y2="112.8594"/><text fill="#000000" font-family="sans-serif" font-size="13" lengthAdjust="spacing" textLength="207.2954" x="56.4224" y="107.7935">17. get_load_address(image_id)</text><polygon fill="#FF0000" points="329.6631,137.9922,339.6631,141.9922,329.6631,145.9922,333.6631,141.9922" style="stroke:#FF0000;stroke-width:1;"/><line style="stroke:#FF0000;stroke-width:1;" x1="39.4224" x2="335.6631" y1="141.9922" y2="141.9922"/><text fill="#000000" font-family="sans-serif" font-size="13" lengthAdjust="spacing" textLength="110.4492" x="46.4224" y="136.9263">18. load_address</text><polygon fill="#0000FF" points="560.9585,137.9922,570.9585,141.9922,560.9585,145.9922,564.9585,141.9922" style="stroke:#0000FF;stroke-width:1;"/><line style="stroke:#0000FF;stroke-width:1;" x1="341.6631" x2="566.9585" y1="141.9922" y2="141.9922"/><text fill="#000000" font-family="sans-serif" font-size="13" lengthAdjust="spacing" textLength="110.4492" x="348.6631" y="136.9263">18. load_address</text><path d="M648.8052,153.9922 L709.748,153.9922 L709.748,161.125 L699.748,171.125 L645.3052,171.125 L645.3052,157.4922 A3.5,3.5 0 0 1 648.8052,153.9922 " fill="#EEEEEE" style="stroke:#393939;stroke-width:1.5;"/><rect fill="none" height="116.2031" rx="3.5" ry="3.5" style="stroke:#393939;stroke-width:1;" width="250.8496" x="645.3052" y="153.9922"/><text fill="#191919" font-family="sans-serif" font-size="13" font-weight="bold" lengthAdjust="spacing" textLength="19.4429" x="660.3052" y="167.0591">alt</text><text fill="#393939" font-family="sans-serif" font-size="11" font-weight="bold" lengthAdjust="spacing" textLength="45.2031" x="724.748" y="166.2026">[PLDM]</text><line style="stroke:#393939;stroke-width:1;stroke-dasharray:2.0,2.0;" x1="645.3052" x2="896.1548" y1="221.2578" y2="221.2578"/><text fill="#393939" font-family="sans-serif" font-size="11" font-weight="bold" lengthAdjust="spacing" textLength="43.1406" x="650.3052" y="233.4683">[Flash]</text><polygon fill="#0000FF" points="868.1548,198.2578,878.1548,202.2578,868.1548,206.2578,872.1548,202.2578" style="stroke:#0000FF;stroke-width:1;"/><line style="stroke:#0000FF;stroke-width:1;" x1="661.3052" x2="874.1548" y1="202.2578" y2="202.2578"/><text fill="#000000" font-family="sans-serif" font-size="13" lengthAdjust="spacing" textLength="104.2095" x="668.3052" y="197.1919">19.1. Image/Cfg</text><polygon fill="#0000FF" points="868.1548,258.1953,878.1548,262.1953,868.1548,266.1953,872.1548,262.1953" style="stroke:#0000FF;stroke-width:1;"/><line style="stroke:#0000FF;stroke-width:1;" x1="751.9453" x2="874.1548" y1="262.1953" y2="262.1953"/><text fill="#000000" font-family="sans-serif" font-size="13" lengthAdjust="spacing" textLength="104.2095" x="758.9453" y="257.1294">19.2. Image/Cfg</text><polygon fill="#0000FF" points="352.6631,301.3281,342.6631,305.3281,352.6631,309.3281,348.6631,305.3281" style="stroke:#0000FF;stroke-width:1;"/><line style="stroke:#0000FF;stroke-width:1;" x1="346.6631" x2="571.9585" y1="305.3281" y2="305.3281"/><text fill="#000000" font-family="sans-serif" font-size="13" lengthAdjust="spacing" textLength="155.0796" x="358.6631" y="300.2622">20. authorize(image_id)</text><polygon fill="#FF0000" points="50.4224,301.3281,40.4224,305.3281,50.4224,309.3281,46.4224,305.3281" style="stroke:#FF0000;stroke-width:1;"/><line style="stroke:#FF0000;stroke-width:1;" x1="44.4224" x2="340.6631" y1="305.3281" y2="305.3281"/><text fill="#000000" font-family="sans-serif" font-size="13" lengthAdjust="spacing" textLength="155.0796" x="56.4224" y="300.2622">20. authorize(image_id)</text><polygon fill="#FF0000" points="242.7217,330.4609,232.7217,334.4609,242.7217,338.4609,238.7217,334.4609" style="stroke:#FF0000;stroke-width:1;"/><line style="stroke:#FF0000;stroke-width:1;" x1="236.7217" x2="879.1548" y1="334.4609" y2="334.4609"/><text fill="#000000" font-family="sans-serif" font-size="13" lengthAdjust="spacing" textLength="91.8062" x="248.7217" y="329.395">21. Image/Cfg</text><line style="stroke:#FF0000;stroke-width:1;" x1="39.4224" x2="81.4224" y1="393.8594" y2="393.8594"/><line style="stroke:#FF0000;stroke-width:1;" x1="81.4224" x2="81.4224" y1="393.8594" y2="406.8594"/><line style="stroke:#FF0000;stroke-width:1;" x1="40.4224" x2="81.4224" y1="406.8594" y2="406.8594"/><polygon fill="#FF0000" points="50.4224,402.8594,40.4224,406.8594,50.4224,410.8594,46.4224,406.8594" style="stroke:#FF0000;stroke-width:1;"/><text fill="#000000" font-family="sans-serif" font-size="13" lengthAdjust="spacing" textLength="174.167" x="46.4224" y="358.5278">22. Verify Hash in SHA Acc</text><text fill="#000000" font-family="sans-serif" font-size="13" lengthAdjust="spacing" textLength="155.7715" x="46.4224" y="373.6606">with SOC Manifest Hash</text><text fill="#000000" font-family="sans-serif" font-size="13" lengthAdjust="spacing" textLength="80.8628" x="50.5547" y="388.7935">for image_id</text><polygon fill="#FF0000" points="329.6631,431.9922,339.6631,435.9922,329.6631,439.9922,333.6631,435.9922" style="stroke:#FF0000;stroke-width:1;"/><line style="stroke:#FF0000;stroke-width:1;" x1="39.4224" x2="335.6631" y1="435.9922" y2="435.9922"/><text fill="#000000" font-family="sans-serif" font-size="13" lengthAdjust="spacing" textLength="123.7412" x="46.4224" y="430.9263">23. Return success</text><polygon fill="#0000FF" points="560.9585,431.9922,570.9585,435.9922,560.9585,439.9922,564.9585,435.9922" style="stroke:#0000FF;stroke-width:1;"/><line style="stroke:#0000FF;stroke-width:1;" x1="341.6631" x2="566.9585" y1="435.9922" y2="435.9922"/><text fill="#000000" font-family="sans-serif" font-size="13" lengthAdjust="spacing" textLength="52.3301" x="348.6631" y="430.9263">Success</text><polygon fill="#0000FF" points="50.4224,476.2578,40.4224,480.2578,50.4224,484.2578,46.4224,480.2578" style="stroke:#0000FF;stroke-width:1;"/><line style="stroke:#0000FF;stroke-width:1;" x1="44.4224" x2="571.9585" y1="480.2578" y2="480.2578"/><text fill="#000000" font-family="sans-serif" font-size="13" lengthAdjust="spacing" textLength="223.2026" x="56.4224" y="460.0591">24. Set EXEC/Go Bit of component</text><text fill="#000000" font-family="sans-serif" font-size="13" lengthAdjust="spacing" textLength="173.5322" x="56.4224" y="475.1919">corresponding to image_id</text><polygon fill="#FF0000" points="868.1548,505.3906,878.1548,509.3906,868.1548,513.3906,872.1548,509.3906" style="stroke:#FF0000;stroke-width:1;"/><line style="stroke:#FF0000;stroke-width:1;" x1="39.4224" x2="874.1548" y1="509.3906" y2="509.3906"/><text fill="#000000" font-family="sans-serif" font-size="13" lengthAdjust="spacing" textLength="98.5537" x="46.4224" y="504.3247">25. Go wire set</text><!--SRC=[ZLDXRzCm4FtkN_4s90GVo5W10VimgOID8L61g3gGw5HvoIMrbDYHVTdOVZsE5xV9r09VehFllRldTvS3NbDDgALref6MLQOQgHc7gQnKmrOUGZh4mnWolvXYccK1uUFTVCoaggxDxu3gup5obYuUakb2Y77gsvUFCvp_m58lcbmoOLgIve3kKcFmUINTEkH2D4vUaiwDHMhgnkXO8uidtrTKnZGeF8PkoDvX_ZM5gcL9mkjwyUl9TTNIrMd_W1CSlqrG4gyg8_ELp7DBpZqB-9NAdukdyQcUQIc_EersdE1VL16XaRhj-Ix1a3JgqkjB5pjmik87lmuQAyjQWidSWsrBehlUi3T- -1hla-C4dpjLHsbH2a6LezxOyDr3cWn9tlFTxarU9f0jhurLz_H_jksZRDf7Yjz4Znw9V-peeAhNUqbM5NUuy8-2qkYtsk_ShU9rs8EPrAeWnm6pr65Bee8TdkuTuEHLWk_4hTLmRPRzPOJpFZrqRw3wTO8vCSv-dgL7dmm-A8Ofjkkyr9cnVlB-b2jTWirMxcDnW_5DtYJmrMwL9JZYRdpe_ee_]--></g></svg>