<?xml version="1.0" encoding="UTF-8" standalone="no"?>
<!DOCTYPE svg PUBLIC "-//W3C//DTD SVG 1.1//EN" "http://www.w3.org/Graphics/SVG/1.1/DTD/svg11.dtd">
<!-- Generated by Microsoft Visio, SVG Export pldm_discovery_cmd_sequence.svg Page-1 -->
<svg xmlns="http://www.w3.org/2000/svg" xmlns:xlink="http://www.w3.org/1999/xlink" xmlns:ev="http://www.w3.org/2001/xml-events"
		xmlns:v="http://schemas.microsoft.com/visio/2003/SVGExtensions/" width="7.26042in" height="6.47321in"
		viewBox="0 0 522.75 466.071" xml:space="preserve" color-interpolation-filters="sRGB" class="st13">
	<v:documentProperties v:langID="1033" v:viewMarkup="false"/>

	<style type="text/css">
	<![CDATA[
		.st1 {fill:#0070c0;stroke:#000000;stroke-linecap:round;stroke-linejoin:round;stroke-width:0.75}
		.st2 {stroke:#000000;stroke-dasharray:5.25,3.75;stroke-linecap:round;stroke-linejoin:round;stroke-width:0.75}
		.st3 {fill:#ffffff;font-family:Calibri;font-size:0.833336em;font-weight:bold}
		.st4 {font-size:1em}
		.st5 {fill:#c4d6a0;stroke:none;stroke-linecap:round;stroke-linejoin:round;stroke-width:0.75}
		.st6 {marker-end:url(#mrkr4-38);stroke:#000000;stroke-linecap:round;stroke-linejoin:round;stroke-width:0.75}
		.st7 {fill:#000000;fill-opacity:1;stroke:#000000;stroke-opacity:1;stroke-width:0.29411764705882}
		.st8 {fill:#ffffff;stroke:none;stroke-linecap:butt;stroke-width:7.2}
		.st9 {fill:#000000;font-family:Calibri;font-size:0.833336em}
		.st10 {marker-end:url(#mrkr3-46);stroke:#000000;stroke-dasharray:5.25,3.75;stroke-linecap:round;stroke-linejoin:round;stroke-width:0.75}
		.st11 {fill:none;stroke:#0070c0;stroke-dasharray:5.25,3.75;stroke-linecap:round;stroke-linejoin:round;stroke-width:0.75}
		.st12 {fill:#000000;font-family:Calibri;font-size:0.75em}
		.st13 {fill:none;fill-rule:evenodd;font-size:12px;overflow:visible;stroke-linecap:square;stroke-miterlimit:3}
	]]>
	</style>

	<defs id="Markers">
		<g id="lend4">
			<path d="M 2 1 L 0 0 L 2 -1 L 2 1 " style="stroke:none"/>
		</g>
		<marker id="mrkr4-38" class="st7" v:arrowType="4" v:arrowSize="1" v:setback="6.8" refX="-6.8" orient="auto"
				markerUnits="strokeWidth" overflow="visible">
			<use xlink:href="#lend4" transform="scale(-3.4,-3.4) "/>
		</marker>
		<g id="lend3">
			<path d="M 2 1 L 0 0 L 2 -1 " style="stroke-linecap:round;stroke-linejoin:round;fill:none"/>
		</g>
		<marker id="mrkr3-46" class="st7" v:arrowType="3" v:arrowSize="1" orient="auto" markerUnits="strokeWidth"
				overflow="visible">
			<use xlink:href="#lend3" transform="scale(-3.4,-3.4) "/>
		</marker>
	</defs>
	<g v:mID="0" v:index="1" v:groupContext="foregroundPage">
		<title>Page-1</title>
		<v:pageProperties v:drawingScale="1" v:pageScale="1" v:drawingUnits="19" v:shadowOffsetX="9" v:shadowOffsetY="-9"/>
		<v:layer v:name="Connector" v:index="0"/>
		<g id="group1098-1" transform="translate(117.375,-417.096)" v:mID="1098" v:groupContext="group">
			<v:userDefs>
				<v:ud v:nameU="visVersion" v:prompt="" v:val="VT0(15):26"/>
				<v:ud v:nameU="ShowActor" v:prompt="" v:val="VT0(0):5"/>
				<v:ud v:nameU="ShowDestruction" v:prompt="" v:val="VT0(0):5"/>
			</v:userDefs>
			<title>Object lifeline.1010</title>
			<desc>Requester (UA)</desc>
			<g id="shape1099-2" v:mID="1099" v:groupContext="shape" transform="translate(10.125,-9.9)">
				<title>Sheet.1099</title>
				<rect x="0" y="440.871" width="54" height="25.2" class="st1"/>
			</g>
			<g id="shape1100-4" v:mID="1100" v:groupContext="shape" transform="translate(28.125,-48.6)">
				<title>Sheet.1100</title>
				<path d="M9 466.07 a0 0 0 1 1 0 0 a0 0 0 1 1 0 0 Z" class="st1"/>
			</g>
			<g id="shape1101-6" v:mID="1101" v:groupContext="shape" transform="translate(24.75,417.096)">
				<title>Sheet.1101</title>
			</g>
			<g id="shape1102-8" v:mID="1102" v:groupContext="shape" transform="translate(503.196,466.071) rotate(90)">
				<title>Sheet.1102</title>
				<path d="M0 466.07 L392.03 466.07" class="st2"/>
			</g>
			<g id="shape1098-11" v:mID="1098" v:groupContext="groupContent">
				<v:textBlock v:margins="rect(4,4,4,4)"/>
				<v:textRect cx="37.125" cy="443.571" width="74.25" height="45"/>
				<rect x="0" y="421.071" width="74.25" height="45" class="st1"/>
				<text x="15.89" y="440.57" class="st3" v:langID="1033"><v:paragraph v:horizAlign="1"/><v:tabList/>Requester <v:newlineChar/><tspan
							x="27.72" dy="1.2em" class="st4">(UA)</tspan></text>			</g>
		</g>
		<g id="group1103-15" transform="translate(331.125,-417.254)" v:mID="1103" v:groupContext="group">
			<v:userDefs>
				<v:ud v:nameU="visVersion" v:prompt="" v:val="VT0(15):26"/>
				<v:ud v:nameU="ShowActor" v:prompt="" v:val="VT0(0):5"/>
				<v:ud v:nameU="ShowDestruction" v:prompt="" v:val="VT0(0):5"/>
			</v:userDefs>
			<title>Object lifeline.1015</title>
			<desc>Responder (FD)</desc>
			<g id="shape1104-16" v:mID="1104" v:groupContext="shape" transform="translate(10.125,-9.82105)">
				<title>Sheet.1104</title>
				<rect x="0" y="440.871" width="54" height="25.2" class="st1"/>
			</g>
			<g id="shape1105-18" v:mID="1105" v:groupContext="shape" transform="translate(28.125,-48.4421)">
				<title>Sheet.1105</title>
				<path d="M9 466.07 a0 0 0 1 1 0 0 a0 0 0 1 1 0 0 Z" class="st1"/>
			</g>
			<g id="shape1106-20" v:mID="1106" v:groupContext="shape" transform="translate(24.75,417.198)">
				<title>Sheet.1106</title>
			</g>
			<g id="shape1107-22" v:mID="1107" v:groupContext="shape" transform="translate(503.196,466.071) rotate(90)">
				<title>Sheet.1107</title>
				<path d="M0 466.07 L392.18 466.07" class="st2"/>
			</g>
			<g id="shape1103-25" v:mID="1103" v:groupContext="groupContent">
				<v:textBlock v:margins="rect(4,4,4,4)"/>
				<v:textRect cx="37.125" cy="443.65" width="74.25" height="44.8421"/>
				<rect x="0" y="421.229" width="74.25" height="44.8421" class="st1"/>
				<text x="14.77" y="440.65" class="st3" v:langID="1033"><v:paragraph v:horizAlign="1"/><v:tabList/>Responder<v:newlineChar/><tspan
							x="28.56" dy="1.2em" class="st4">(FD)</tspan></text>			</g>
		</g>
		<g id="shape1151-29" v:mID="1151" v:groupContext="shape" transform="translate(-308.196,106.954) rotate(-90)">
			<title>Activation.1151</title>
			<v:userDefs>
				<v:ud v:nameU="visVersion" v:prompt="" v:val="VT0(15):26"/>
			</v:userDefs>
			<rect x="0" y="457.071" width="27.1579" height="9" class="st5"/>
		</g>
		<g id="shape1152-31" v:mID="1152" v:groupContext="shape" transform="translate(-94.4464,106.796) rotate(-90)">
			<title>Activation.1152</title>
			<v:userDefs>
				<v:ud v:nameU="visVersion" v:prompt="" v:val="VT0(15):26"/>
			</v:userDefs>
			<rect x="0" y="457.071" width="27.1579" height="9" class="st5"/>
		</g>
		<g id="shape1153-33" v:mID="1153" v:groupContext="shape" v:layerMember="0" transform="translate(157.875,-377.354)">
			<title>Message.1153</title>
			<desc>Get TID Request (0x02)</desc>
			<v:userDefs>
				<v:ud v:nameU="IsReturn" v:prompt="" v:val="VT0(0):5"/>
				<v:ud v:nameU="IsAsync" v:prompt="" v:val="VT0(0):5"/>
				<v:ud v:nameU="IsSelfMessage" v:prompt="" v:val="VT0(0):5"/>
				<v:ud v:nameU="visVersion" v:prompt="" v:val="VT0(15):26"/>
			</v:userDefs>
			<v:textBlock v:margins="rect(4,4,4,4)"/>
			<v:textRect cx="102.375" cy="457.071" width="106.24" height="20.0036"/>
			<path d="M0 457.15 L199.65 457" class="st6"/>
			<rect v:rectContext="textBkgnd" x="55.5194" y="451.072" width="93.7112" height="12.0001" class="st8"/>
			<text x="55.52" y="460.07" class="st9" v:langID="1033"><v:paragraph v:horizAlign="1"/><v:tabList/>Get TID Request (0x02)  </text>		</g>
		<g id="shape1154-41" v:mID="1154" v:groupContext="shape" v:layerMember="0" transform="translate(362.625,-368.196)">
			<title>Return Message.1154</title>
			<desc>Get TID Response (0x02)</desc>
			<v:userDefs>
				<v:ud v:nameU="IsReturn" v:prompt="" v:val="VT0(1):5"/>
				<v:ud v:nameU="IsAsync" v:prompt="" v:val="VT0(0):5"/>
				<v:ud v:nameU="IsSelfMessage" v:prompt="" v:val="VT0(0):5"/>
				<v:ud v:nameU="visVersion" v:prompt="" v:val="VT0(15):26"/>
			</v:userDefs>
			<v:textBlock v:margins="rect(4,4,4,4)"/>
			<v:textRect cx="-102.375" cy="475.071" width="109.82" height="20.0036"/>
			<path d="M0 474.99 L-204.75 475.15" class="st10"/>
			<rect v:rectContext="textBkgnd" x="-152.148" y="469.072" width="99.546" height="12.0001" class="st8"/>
			<text x="-152.15" y="478.07" class="st9" v:langID="1033"><v:paragraph v:horizAlign="1"/><v:tabList/>Get TID Response (0x02)</text>		</g>
		<g id="shape1155-49" v:mID="1155" v:groupContext="shape" transform="translate(-308.196,165.375) rotate(-90)">
			<title>Activation.1155</title>
			<v:userDefs>
				<v:ud v:nameU="visVersion" v:prompt="" v:val="VT0(15):26"/>
			</v:userDefs>
			<rect x="0" y="457.071" width="27.1579" height="9" class="st5"/>
		</g>
		<g id="shape1156-51" v:mID="1156" v:groupContext="shape" transform="translate(-93.3214,165.817) rotate(-90)">
			<title>Activation.1156</title>
			<v:userDefs>
				<v:ud v:nameU="visVersion" v:prompt="" v:val="VT0(15):26"/>
			</v:userDefs>
			<rect x="0" y="457.071" width="27.1579" height="9" class="st5"/>
		</g>
		<g id="shape1157-53" v:mID="1157" v:groupContext="shape" v:layerMember="0" transform="translate(157.875,-336.633)">
			<title>Message.1157</title>
			<desc>GetPLDMTypes Request (0x04)</desc>
			<v:userDefs>
				<v:ud v:nameU="IsReturn" v:prompt="" v:val="VT0(0):5"/>
				<v:ud v:nameU="IsAsync" v:prompt="" v:val="VT0(0):5"/>
				<v:ud v:nameU="IsSelfMessage" v:prompt="" v:val="VT0(0):5"/>
				<v:ud v:nameU="visVersion" v:prompt="" v:val="VT0(15):26"/>
			</v:userDefs>
			<v:textBlock v:margins="rect(4,4,4,4)"/>
			<v:textRect cx="102.938" cy="475.071" width="135.79" height="20.0036"/>
			<path d="M0 474.85 L200.78 475.28" class="st6"/>
			<rect v:rectContext="textBkgnd" x="40.1785" y="469.072" width="125.518" height="12.0001" class="st8"/>
			<text x="40.18" y="478.07" class="st9" v:langID="1033"><v:paragraph v:horizAlign="1"/><v:tabList/>GetPLDMTypes Request (0x04)</text>		</g>
		<g id="shape1158-60" v:mID="1158" v:groupContext="shape" v:layerMember="0" transform="translate(363.75,-291.475)">
			<title>Return Message.1158</title>
			<desc>GetPLDMTypes Response (0x04)</desc>
			<v:userDefs>
				<v:ud v:nameU="IsReturn" v:prompt="" v:val="VT0(1):5"/>
				<v:ud v:nameU="IsAsync" v:prompt="" v:val="VT0(0):5"/>
				<v:ud v:nameU="IsSelfMessage" v:prompt="" v:val="VT0(0):5"/>
				<v:ud v:nameU="visVersion" v:prompt="" v:val="VT0(15):26"/>
			</v:userDefs>
			<v:textBlock v:margins="rect(4,4,4,4)"/>
			<v:textRect cx="-102.938" cy="457.071" width="141.62" height="20.0036"/>
			<path d="M0 457.29 L-205.88 456.85" class="st10"/>
			<rect v:rectContext="textBkgnd" x="-168.614" y="451.072" width="131.353" height="12.0001" class="st8"/>
			<text x="-168.61" y="460.07" class="st9" v:langID="1033"><v:paragraph v:horizAlign="1"/><v:tabList/>GetPLDMTypes Response (0x04)</text>		</g>
		<g id="shape1159-67" v:mID="1159" v:groupContext="shape" transform="translate(-308.196,228.375) rotate(-90)">
			<title>Activation.1159</title>
			<v:userDefs>
				<v:ud v:nameU="visVersion" v:prompt="" v:val="VT0(15):26"/>
			</v:userDefs>
			<rect x="0" y="457.071" width="27.1579" height="9" class="st5"/>
		</g>
		<g id="shape1160-69" v:mID="1160" v:groupContext="shape" transform="translate(-93.3214,228.975) rotate(-90)">
			<title>Activation.1160</title>
			<v:userDefs>
				<v:ud v:nameU="visVersion" v:prompt="" v:val="VT0(15):26"/>
			</v:userDefs>
			<rect x="0" y="457.071" width="27.1579" height="9" class="st5"/>
		</g>
		<g id="shape1161-71" v:mID="1161" v:groupContext="shape" v:layerMember="0" transform="translate(157.875,-273.554)">
			<title>Message.1161</title>
			<desc>GetPLDMVersion Request (0x03)</desc>
			<v:userDefs>
				<v:ud v:nameU="IsReturn" v:prompt="" v:val="VT0(0):5"/>
				<v:ud v:nameU="IsAsync" v:prompt="" v:val="VT0(0):5"/>
				<v:ud v:nameU="IsSelfMessage" v:prompt="" v:val="VT0(0):5"/>
				<v:ud v:nameU="visVersion" v:prompt="" v:val="VT0(15):26"/>
			</v:userDefs>
			<v:textBlock v:margins="rect(4,4,4,4)"/>
			<v:textRect cx="102.938" cy="475.071" width="143.12" height="20.0036"/>
			<path d="M0 474.77 L200.78 475.36" class="st6"/>
			<rect v:rectContext="textBkgnd" x="36.5139" y="469.072" width="132.848" height="12.0001" class="st8"/>
			<text x="36.51" y="478.07" class="st9" v:langID="1033"><v:paragraph v:horizAlign="1"/><v:tabList/>GetPLDMVersion Request (0x03)</text>		</g>
		<g id="shape1162-78" v:mID="1162" v:groupContext="shape" v:layerMember="0" transform="translate(363.75,-228.396)">
			<title>Return Message.1162</title>
			<desc>GetPLDMVersion Response (0x03)</desc>
			<v:userDefs>
				<v:ud v:nameU="IsReturn" v:prompt="" v:val="VT0(1):5"/>
				<v:ud v:nameU="IsAsync" v:prompt="" v:val="VT0(0):5"/>
				<v:ud v:nameU="IsSelfMessage" v:prompt="" v:val="VT0(0):5"/>
				<v:ud v:nameU="visVersion" v:prompt="" v:val="VT0(15):26"/>
			</v:userDefs>
			<v:textBlock v:margins="rect(4,4,4,4)"/>
			<v:textRect cx="-102.938" cy="457.071" width="148.95" height="20.0036"/>
			<path d="M0 457.37 L-205.88 456.77" class="st10"/>
			<rect v:rectContext="textBkgnd" x="-172.279" y="451.072" width="138.682" height="12.0001" class="st8"/>
			<text x="-172.28" y="460.07" class="st9" v:langID="1033"><v:paragraph v:horizAlign="1"/><v:tabList/>GetPLDMVersion Response (0x03)</text>		</g>
		<g id="shape1163-85" v:mID="1163" v:groupContext="shape" transform="translate(-308.196,291.375) rotate(-90)">
			<title>Activation.1163</title>
			<v:userDefs>
				<v:ud v:nameU="visVersion" v:prompt="" v:val="VT0(15):26"/>
			</v:userDefs>
			<rect x="0" y="457.071" width="27.1579" height="9" class="st5"/>
		</g>
		<g id="shape1164-87" v:mID="1164" v:groupContext="shape" transform="translate(-94.4464,291.217) rotate(-90)">
			<title>Activation.1164</title>
			<v:userDefs>
				<v:ud v:nameU="visVersion" v:prompt="" v:val="VT0(15):26"/>
			</v:userDefs>
			<rect x="0" y="457.071" width="27.1579" height="9" class="st5"/>
		</g>
		<g id="shape1165-89" v:mID="1165" v:groupContext="shape" v:layerMember="0" transform="translate(157.875,-192.933)">
			<title>Message.1165</title>
			<desc>GetPLDMCommand Request (0x05)</desc>
			<v:userDefs>
				<v:ud v:nameU="IsReturn" v:prompt="" v:val="VT0(0):5"/>
				<v:ud v:nameU="IsAsync" v:prompt="" v:val="VT0(0):5"/>
				<v:ud v:nameU="IsSelfMessage" v:prompt="" v:val="VT0(0):5"/>
				<v:ud v:nameU="visVersion" v:prompt="" v:val="VT0(15):26"/>
			</v:userDefs>
			<v:textBlock v:margins="rect(4,4,4,4)"/>
			<v:textRect cx="102.375" cy="457.071" width="154.13" height="20.0036"/>
			<path d="M0 457.15 L199.65 457" class="st6"/>
			<rect v:rectContext="textBkgnd" x="30.446" y="451.072" width="143.858" height="12.0001" class="st8"/>
			<text x="30.45" y="460.07" class="st9" v:langID="1033"><v:paragraph v:horizAlign="1"/><v:tabList/>GetPLDMCommand Request (0x05)</text>		</g>
		<g id="shape1166-96" v:mID="1166" v:groupContext="shape" v:layerMember="0" transform="translate(362.625,-183.775)">
			<title>Return Message.1166</title>
			<desc>GetPLDMCommand Response (0x05)</desc>
			<v:userDefs>
				<v:ud v:nameU="IsReturn" v:prompt="" v:val="VT0(1):5"/>
				<v:ud v:nameU="IsAsync" v:prompt="" v:val="VT0(0):5"/>
				<v:ud v:nameU="IsSelfMessage" v:prompt="" v:val="VT0(0):5"/>
				<v:ud v:nameU="visVersion" v:prompt="" v:val="VT0(15):26"/>
			</v:userDefs>
			<v:textBlock v:margins="rect(4,4,4,4)"/>
			<v:textRect cx="-102.375" cy="475.071" width="159.96" height="20.0036"/>
			<path d="M0 474.99 L-204.75 475.15" class="st10"/>
			<rect v:rectContext="textBkgnd" x="-177.221" y="469.072" width="149.693" height="12.0001" class="st8"/>
			<text x="-177.22" y="478.07" class="st9" v:langID="1033"><v:paragraph v:horizAlign="1"/><v:tabList/>GetPLDMCommand Response (0x05)</text>		</g>
		<g id="shape1167-103" v:mID="1167" v:groupContext="shape" transform="translate(-308.196,345.533) rotate(-90)">
			<title>Activation.1167</title>
			<v:userDefs>
				<v:ud v:nameU="visVersion" v:prompt="" v:val="VT0(15):26"/>
			</v:userDefs>
			<rect x="0" y="457.071" width="27.1579" height="9" class="st5"/>
		</g>
		<g id="shape1168-105" v:mID="1168" v:groupContext="shape" transform="translate(-93.3214,346.133) rotate(-90)">
			<title>Activation.1168</title>
			<v:userDefs>
				<v:ud v:nameU="visVersion" v:prompt="" v:val="VT0(15):26"/>
			</v:userDefs>
			<rect x="0" y="457.071" width="27.1579" height="9" class="st5"/>
		</g>
		<g id="shape1169-107" v:mID="1169" v:groupContext="shape" v:layerMember="0" transform="translate(157.875,-156.396)">
			<title>Message.1169</title>
			<desc>GetPLDMVersion Request (0x03)</desc>
			<v:userDefs>
				<v:ud v:nameU="IsReturn" v:prompt="" v:val="VT0(0):5"/>
				<v:ud v:nameU="IsAsync" v:prompt="" v:val="VT0(0):5"/>
				<v:ud v:nameU="IsSelfMessage" v:prompt="" v:val="VT0(0):5"/>
				<v:ud v:nameU="visVersion" v:prompt="" v:val="VT0(15):26"/>
			</v:userDefs>
			<v:textBlock v:margins="rect(4,4,4,4)"/>
			<v:textRect cx="102.938" cy="475.071" width="143.12" height="20.0036"/>
			<path d="M0 474.77 L200.78 475.36" class="st6"/>
			<rect v:rectContext="textBkgnd" x="36.5139" y="469.072" width="132.848" height="12.0001" class="st8"/>
			<text x="36.51" y="478.07" class="st9" v:langID="1033"><v:paragraph v:horizAlign="1"/><v:tabList/>GetPLDMVersion Request (0x03)</text>		</g>
		<g id="shape1170-114" v:mID="1170" v:groupContext="shape" v:layerMember="0" transform="translate(363.75,-111.239)">
			<title>Return Message.1170</title>
			<desc>GetPLDMVersion Response (0x03)</desc>
			<v:userDefs>
				<v:ud v:nameU="IsReturn" v:prompt="" v:val="VT0(1):5"/>
				<v:ud v:nameU="IsAsync" v:prompt="" v:val="VT0(0):5"/>
				<v:ud v:nameU="IsSelfMessage" v:prompt="" v:val="VT0(0):5"/>
				<v:ud v:nameU="visVersion" v:prompt="" v:val="VT0(15):26"/>
			</v:userDefs>
			<v:textBlock v:margins="rect(4,4,4,4)"/>
			<v:textRect cx="-102.938" cy="457.071" width="148.95" height="20.0036"/>
			<path d="M0 457.37 L-205.88 456.77" class="st10"/>
			<rect v:rectContext="textBkgnd" x="-172.279" y="451.072" width="138.682" height="12.0001" class="st8"/>
			<text x="-172.28" y="460.07" class="st9" v:langID="1033"><v:paragraph v:horizAlign="1"/><v:tabList/>GetPLDMVersion Response (0x03)</text>		</g>
		<g id="shape1171-121" v:mID="1171" v:groupContext="shape" transform="translate(-308.196,408.533) rotate(-90)">
			<title>Activation.1171</title>
			<v:userDefs>
				<v:ud v:nameU="visVersion" v:prompt="" v:val="VT0(15):26"/>
			</v:userDefs>
			<rect x="0" y="457.071" width="27.1579" height="9" class="st5"/>
		</g>
		<g id="shape1172-123" v:mID="1172" v:groupContext="shape" transform="translate(-94.4464,408.375) rotate(-90)">
			<title>Activation.1172</title>
			<v:userDefs>
				<v:ud v:nameU="visVersion" v:prompt="" v:val="VT0(15):26"/>
			</v:userDefs>
			<rect x="0" y="457.071" width="27.1579" height="9" class="st5"/>
		</g>
		<g id="shape1173-125" v:mID="1173" v:groupContext="shape" v:layerMember="0" transform="translate(157.875,-75.7754)">
			<title>Message.1173</title>
			<desc>GetPLDMCommands Request (0x05)</desc>
			<v:userDefs>
				<v:ud v:nameU="IsReturn" v:prompt="" v:val="VT0(0):5"/>
				<v:ud v:nameU="IsAsync" v:prompt="" v:val="VT0(0):5"/>
				<v:ud v:nameU="IsSelfMessage" v:prompt="" v:val="VT0(0):5"/>
				<v:ud v:nameU="visVersion" v:prompt="" v:val="VT0(15):26"/>
			</v:userDefs>
			<v:textBlock v:margins="rect(4,4,4,4)"/>
			<v:textRect cx="102.375" cy="457.071" width="158.04" height="20.0036"/>
			<path d="M0 457.15 L199.65 457" class="st6"/>
			<rect v:rectContext="textBkgnd" x="28.4904" y="451.072" width="147.769" height="12.0001" class="st8"/>
			<text x="28.49" y="460.07" class="st9" v:langID="1033"><v:paragraph v:horizAlign="1"/><v:tabList/>GetPLDMCommands Request (0x05)</text>		</g>
		<g id="shape1174-132" v:mID="1174" v:groupContext="shape" v:layerMember="0" transform="translate(362.625,-66.6175)">
			<title>Return Message.1174</title>
			<desc>GetPLDMCommands Response (0x05)</desc>
			<v:userDefs>
				<v:ud v:nameU="IsReturn" v:prompt="" v:val="VT0(1):5"/>
				<v:ud v:nameU="IsAsync" v:prompt="" v:val="VT0(0):5"/>
				<v:ud v:nameU="IsSelfMessage" v:prompt="" v:val="VT0(0):5"/>
				<v:ud v:nameU="visVersion" v:prompt="" v:val="VT0(15):26"/>
			</v:userDefs>
			<v:textBlock v:margins="rect(4,4,4,4)"/>
			<v:textRect cx="-102.375" cy="475.071" width="163.87" height="20.0036"/>
			<path d="M0 474.99 L-204.75 475.15" class="st10"/>
			<rect v:rectContext="textBkgnd" x="-179.177" y="469.072" width="153.604" height="12.0001" class="st8"/>
			<text x="-179.18" y="478.07" class="st9" v:langID="1033"><v:paragraph v:horizAlign="1"/><v:tabList/>GetPLDMCommands Response (0x05)</text>		</g>
		<g id="shape1175-139" v:mID="1175" v:groupContext="shape" transform="translate(0.375,-291.696)">
			<title>2-D word balloon.1175</title>
			<desc>Request for PLDM types supported by the device</desc>
			<v:userDefs>
				<v:ud v:nameU="visVersion" v:val="VT0(15):26"/>
				<v:ud v:nameU="Scale" v:val="VT0(1):26"/>
				<v:ud v:nameU="AntiScale" v:val="VT0(1):26"/>
			</v:userDefs>
			<v:textBlock v:margins="rect(4,4,4,4)"/>
			<v:textRect cx="54" cy="443.571" width="108" height="45"/>
			<path d="M0 437.95 L0 421.07 L40.5 421.07 L54 421.07 L67.5 421.07 L108 421.07 L108 437.95 L148.5 447.91 L108 449.2 L108
						 466.07 L67.5 466.07 L54 466.07 L40.5 466.07 L0 466.07 L0 449.2 L0 443.57 L0 437.95 Z" class="st11"/>
			<text x="9.98" y="440.87" class="st12" v:langID="1033"><v:paragraph v:horizAlign="1"/><v:tabList/>Request for PLDM types <tspan
						x="9.72" dy="1.2em" class="st4">supported by the device </tspan> </text>		</g>
		<g id="shape1176-143" v:mID="1176" v:groupContext="shape" transform="translate(0.375,-233.196)">
			<title>2-D word balloon.1176</title>
			<desc>Request for PLDM Type-0 version</desc>
			<v:userDefs>
				<v:ud v:nameU="visVersion" v:val="VT0(15):26"/>
				<v:ud v:nameU="Scale" v:val="VT0(1):26"/>
				<v:ud v:nameU="AntiScale" v:val="VT0(1):26"/>
			</v:userDefs>
			<v:textBlock v:margins="rect(4,4,4,4)"/>
			<v:textRect cx="54" cy="443.571" width="108" height="45"/>
			<path d="M0 437.95 L0 421.07 L40.5 421.07 L54 421.07 L67.5 421.07 L108 421.07 L108 437.95 L148.5 447.91 L108 449.2 L108
						 466.07 L67.5 466.07 L54 466.07 L40.5 466.07 L0 466.07 L0 449.2 L0 443.57 L0 437.95 Z" class="st11"/>
			<text x="6.37" y="440.87" class="st12" v:langID="1033"><v:paragraph v:horizAlign="1"/><v:tabList/>Request for  PLDM Type-0 <tspan
						x="40.63" dy="1.2em" class="st4">version</tspan></text>		</g>
		<g id="shape1177-147" v:mID="1177" v:groupContext="shape" transform="translate(0.375,-165.696)">
			<title>2-D word balloon.1177</title>
			<desc>Request for command codes supported for PLDM Type-0</desc>
			<v:userDefs>
				<v:ud v:nameU="visVersion" v:val="VT0(15):26"/>
				<v:ud v:nameU="Scale" v:val="VT0(1):26"/>
				<v:ud v:nameU="AntiScale" v:val="VT0(1):26"/>
			</v:userDefs>
			<v:textBlock v:margins="rect(4,4,4,4)"/>
			<v:textRect cx="54" cy="443.571" width="108" height="45"/>
			<path d="M0 437.95 L0 421.07 L40.5 421.07 L54 421.07 L67.5 421.07 L108 421.07 L108 437.95 L148.5 447.91 L108 449.2 L108
						 466.07 L67.5 466.07 L54 466.07 L40.5 466.07 L0 466.07 L0 449.2 L0 443.57 L0 437.95 Z" class="st11"/>
			<text x="13.38" y="435.47" class="st12" v:langID="1033"><v:paragraph v:horizAlign="1"/><v:tabList/>Request for command <tspan
						x="5.26" dy="1.2em" class="st4">codes supported for PLDM </tspan><tspan x="41.51" dy="1.2em" class="st4">Type</tspan>-0</text>		</g>
		<g id="shape1178-152" v:mID="1178" v:groupContext="shape" transform="translate(0.375,-107.196)">
			<title>2-D word balloon.1178</title>
			<desc>Request for PLDM Type-5 version</desc>
			<v:userDefs>
				<v:ud v:nameU="visVersion" v:val="VT0(15):26"/>
				<v:ud v:nameU="Scale" v:val="VT0(1):26"/>
				<v:ud v:nameU="AntiScale" v:val="VT0(1):26"/>
			</v:userDefs>
			<v:textBlock v:margins="rect(4,4,4,4)"/>
			<v:textRect cx="54" cy="443.571" width="108" height="45"/>
			<path d="M0 437.95 L0 421.07 L40.5 421.07 L54 421.07 L67.5 421.07 L108 421.07 L108 437.95 L148.5 443.57 L108 449.2 L108
						 466.07 L67.5 466.07 L54 466.07 L40.5 466.07 L0 466.07 L0 449.2 L0 443.57 L0 437.95 Z" class="st11"/>
			<text x="7.39" y="440.87" class="st12" v:langID="1033"><v:paragraph v:horizAlign="1"/><v:tabList/>Request for PLDM Type-5 <tspan
						x="40.63" dy="1.2em" class="st4">version </tspan> </text>		</g>
		<g id="shape1179-156" v:mID="1179" v:groupContext="shape" transform="translate(0.375,-48.6964)">
			<title>2-D word balloon.1179</title>
			<desc>Request for command codes supported for PLDM Type-5</desc>
			<v:userDefs>
				<v:ud v:nameU="visVersion" v:val="VT0(15):26"/>
				<v:ud v:nameU="Scale" v:val="VT0(1):26"/>
				<v:ud v:nameU="AntiScale" v:val="VT0(1):26"/>
			</v:userDefs>
			<v:textBlock v:margins="rect(4,4,4,4)"/>
			<v:textRect cx="54" cy="443.571" width="108" height="45"/>
			<path d="M0 437.95 L0 421.07 L40.5 421.07 L54 421.07 L67.5 421.07 L108 421.07 L108 437.95 L148.5 447.91 L108 449.2 L108
						 466.07 L67.5 466.07 L54 466.07 L40.5 466.07 L0 466.07 L0 449.2 L0 443.57 L0 437.95 Z" class="st11"/>
			<text x="13.38" y="435.47" class="st12" v:langID="1033"><v:paragraph v:horizAlign="1"/><v:tabList/>Request for command <tspan
						x="5.26" dy="1.2em" class="st4">codes supported for PLDM </tspan><tspan x="41.51" dy="1.2em" class="st4">Type</tspan>-5</text>		</g>
		<g id="shape1180-161" v:mID="1180" v:groupContext="shape" transform="translate(414.375,-291.696)">
			<title>2-D word balloon.1180</title>
			<desc>Responder indicates PLDM Type-0 and Type-5 are supported.</desc>
			<v:userDefs>
				<v:ud v:nameU="visVersion" v:val="VT0(15):26"/>
				<v:ud v:nameU="Scale" v:val="VT0(1):26"/>
				<v:ud v:nameU="AntiScale" v:val="VT0(1):26"/>
			</v:userDefs>
			<v:textBlock v:margins="rect(4,4,4,4)"/>
			<v:textRect cx="54" cy="443.571" width="108" height="45"/>
			<path d="M0 437.95 L0 421.07 L40.5 421.07 L54 421.07 L67.5 421.07 L108 421.07 L108 437.95 L108 443.57 L108 449.2 L108
						 466.07 L67.5 466.07 L54 466.07 L40.5 466.07 L0 466.07 L0 449.2 L-41.63 448.36 L0 437.95 Z" class="st11"/>
			<text x="5.06" y="435.47" class="st12" v:langID="1033"><v:paragraph v:horizAlign="1"/><v:tabList/>Responder indicates PLDM <tspan
						x="13.12" dy="1.2em" class="st4">Type</tspan>-0 and Type-5 are <tspan x="33.96" dy="1.2em" class="st4">supported. </tspan> </text>		</g>
		<g id="shape1181-166" v:mID="1181" v:groupContext="shape" transform="translate(414.375,-228.696)">
			<title>2-D word balloon.1181</title>
			<desc>Responder indicates version 1.0.0 supported for PLDM Type-0</desc>
			<v:userDefs>
				<v:ud v:nameU="visVersion" v:val="VT0(15):26"/>
				<v:ud v:nameU="Scale" v:val="VT0(1):26"/>
				<v:ud v:nameU="AntiScale" v:val="VT0(1):26"/>
			</v:userDefs>
			<v:textBlock v:margins="rect(4,4,4,4)"/>
			<v:textRect cx="54" cy="443.571" width="108" height="45"/>
			<path d="M0 437.95 L0 421.07 L40.5 421.07 L54 421.07 L67.5 421.07 L108 421.07 L108 437.95 L108 443.57 L108 449.2 L108
						 466.07 L67.5 466.07 L54 466.07 L40.5 466.07 L0 466.07 L0 449.2 L-41.63 448.36 L0 437.95 Z" class="st11"/>
			<text x="16.91" y="435.47" class="st12" v:langID="1033"><v:paragraph v:horizAlign="1"/><v:tabList/>Responder indicates <tspan
						x="9.56" dy="1.2em" class="st4">version 1.0.0  supported </tspan><tspan x="23.33" dy="1.2em" class="st4">for PLDM Type</tspan>-0</text>		</g>
		<g id="shape1182-171" v:mID="1182" v:groupContext="shape" transform="translate(414.375,-165.696)">
			<title>2-D word balloon.1182</title>
			<desc>Responder indicates command codes supported for PLDM Type-0</desc>
			<v:userDefs>
				<v:ud v:nameU="visVersion" v:val="VT0(15):26"/>
				<v:ud v:nameU="Scale" v:val="VT0(1):26"/>
				<v:ud v:nameU="AntiScale" v:val="VT0(1):26"/>
			</v:userDefs>
			<v:textBlock v:margins="rect(4,4,4,4)"/>
			<v:textRect cx="54" cy="443.571" width="108" height="45"/>
			<path d="M0 437.95 L0 421.07 L40.5 421.07 L54 421.07 L67.5 421.07 L108 421.07 L108 437.95 L108 443.57 L108 449.2 L108
						 466.07 L67.5 466.07 L54 466.07 L40.5 466.07 L0 466.07 L0 449.2 L-41.63 448.36 L0 437.95 Z" class="st11"/>
			<text x="16.91" y="435.47" class="st12" v:langID="1033"><v:paragraph v:horizAlign="1"/><v:tabList/>Responder indicates <tspan
						x="4.07" dy="1.2em" class="st4">command codes supported </tspan><tspan x="23.33" dy="1.2em" class="st4">for PLDM Type</tspan>-0</text>		</g>
		<g id="shape1183-176" v:mID="1183" v:groupContext="shape" transform="translate(414.375,-111.696)">
			<title>2-D word balloon.1183</title>
			<desc>Responder indicates version 1.3.0 supported for PLDM Type-5</desc>
			<v:userDefs>
				<v:ud v:nameU="visVersion" v:val="VT0(15):26"/>
				<v:ud v:nameU="Scale" v:val="VT0(1):26"/>
				<v:ud v:nameU="AntiScale" v:val="VT0(1):26"/>
			</v:userDefs>
			<v:textBlock v:margins="rect(4,4,4,4)"/>
			<v:textRect cx="54" cy="443.571" width="108" height="45"/>
			<path d="M0 437.95 L0 421.07 L40.5 421.07 L54 421.07 L67.5 421.07 L108 421.07 L108 437.95 L108 443.57 L108 449.2 L108
						 466.07 L67.5 466.07 L54 466.07 L40.5 466.07 L0 466.07 L0 449.2 L-41.63 448.36 L0 437.95 Z" class="st11"/>
			<text x="16.91" y="435.47" class="st12" v:langID="1033"><v:paragraph v:horizAlign="1"/><v:tabList/>Responder indicates <tspan
						x="9.56" dy="1.2em" class="st4">version 1.3.0  supported </tspan><tspan x="23.33" dy="1.2em" class="st4">for PLDM Type</tspan>-5  </text>		</g>
		<g id="shape1184-181" v:mID="1184" v:groupContext="shape" transform="translate(414.375,-48.6964)">
			<title>2-D word balloon.1184</title>
			<desc>Responder indicates the command codes supported for PLDM Type-5</desc>
			<v:userDefs>
				<v:ud v:nameU="visVersion" v:val="VT0(15):26"/>
				<v:ud v:nameU="Scale" v:val="VT0(1):26"/>
				<v:ud v:nameU="AntiScale" v:val="VT0(1):26"/>
			</v:userDefs>
			<v:textBlock v:margins="rect(4,4,4,4)"/>
			<v:textRect cx="54" cy="443.571" width="108" height="45"/>
			<path d="M0 437.95 L0 421.07 L40.5 421.07 L54 421.07 L67.5 421.07 L108 421.07 L108 437.95 L108 443.57 L108 449.2 L108
						 466.07 L67.5 466.07 L54 466.07 L40.5 466.07 L0 466.07 L0 449.2 L-41.63 448.36 L0 437.95 Z" class="st11"/>
			<text x="9.78" y="435.47" class="st12" v:langID="1033"><v:paragraph v:horizAlign="1"/><v:tabList/>Responder indicates the <tspan
						x="4.07" dy="1.2em" class="st4">command codes supported </tspan><tspan x="23.33" dy="1.2em" class="st4">for PLDM Type</tspan>-5</text>		</g>
	</g>
</svg>
